<?xml version="1.0" encoding="utf-8"?>
<!-- Hackstub logo v1 - 2015 -->
	 
<!DOCTYPE svg PUBLIC "-//W3C//DTD SVG 1.1//EN" "http://www.w3.org/Graphics/SVG/1.1/DTD/svg11.dtd">
<svg version="1.1" xmlns="http://www.w3.org/2000/svg" xmlns:xlink="http://www.w3.org/1999/xlink" x="120.678px" y="285.543px"
	 width="213.313px" height="213.313px" viewBox="120.678 285.543 213.313 213.313" enable-background="new 0 0 833.669 850.4" xml:space="preserve">

<g id="fond">
	<rect y="0" fill="#282828" width="833.669" height="850.4"/>
</g>

<g id="PRINT">
	<g id="LOGO-W-PRINT" fill="#FFFFFF">
		<g id="hackstub-w">
			<path d="M316.307,352.929l-22.07-12.759v-14.177c0-2.708-2.195-4.904-4.904-4.904s-4.904,2.196-4.904,4.904
			v36.854l-17.162-9.92c-1.519-0.877-3.39-0.877-4.908,0l-7.354,4.251v-8.508c0-2.708-2.195-4.904-4.904-4.904
			s-4.904,2.196-4.904,4.904v14.958c-0.835-0.001-1.68,0.19-2.455,0.638l-19.613,11.338c-0.001,0-0.002,0.001-0.002,0.001
			l-12.258,7.086v-8.51c0-2.708-2.195-4.904-4.904-4.904s-4.904,2.196-4.904,4.904v14.938c-0.002,0-0.003,0-0.005,0
			c-0.833,0-1.677,0.212-2.45,0.658l-19.615,11.339c-1.516,0.877-2.45,2.495-2.45,4.246s0.934,3.369,2.45,4.246l24.52,14.173
			c0.759,0.438,1.606,0.658,2.454,0.658c0.846,0,1.692-0.219,2.451-0.657c1.518-0.875,2.453-2.494,2.453-4.247v-19.846
			l10.486,6.061c-0.848,1.469-0.929,3.328-0.02,4.901c0.909,1.572,2.556,2.451,4.25,2.45c0.833,0,1.677-0.212,2.45-0.658
			l4.855-2.807c0.007-0.004,0.015-0.009,0.022-0.013l19.642-11.354c0.064-0.037,0.121-0.083,0.183-0.122
			c0.065-0.042,0.129-0.084,0.192-0.129c0.222-0.157,0.433-0.326,0.624-0.515c0.006-0.006,0.012-0.011,0.018-0.016
			c0.197-0.198,0.37-0.415,0.529-0.642c0.043-0.061,0.083-0.122,0.123-0.186c0.135-0.211,0.257-0.43,0.358-0.66
			c0.013-0.029,0.031-0.057,0.043-0.087c0.107-0.257,0.185-0.524,0.247-0.797c0.017-0.073,0.031-0.146,0.044-0.222
			c0.052-0.285,0.088-0.575,0.088-0.872v-25.517l9.808-5.67l22.066,12.754c0.149,0.086,0.305,0.157,0.46,0.227
			c0.037,0.017,0.071,0.038,0.108,0.054c0.259,0.107,0.526,0.186,0.796,0.247c0.073,0.017,0.146,0.03,0.219,0.043
			c0.288,0.053,0.579,0.088,0.87,0.088s0.582-0.035,0.87-0.088c0.074-0.013,0.146-0.026,0.219-0.043
			c0.27-0.062,0.537-0.14,0.796-0.247c0.038-0.016,0.071-0.037,0.108-0.054c0.156-0.069,0.311-0.141,0.46-0.227l24.52-14.172
			c1.516-0.877,2.45-2.495,2.45-4.246S317.822,353.805,316.307,352.929z M201.062,411.036l-9.817-5.674l9.817-5.675V411.036z
			 M245.197,374.177v11.349l-9.817-5.674L245.197,374.177z M230.485,399.698l-14.72-8.508l9.816-5.675l14.72,8.509L230.485,399.698
			z M294.236,362.848v-11.35l9.817,5.676L294.236,362.848z"/>
			
			<path d="M193.707,423.792l-24.52-14.174c-0.149-0.086-0.305-0.157-0.46-0.227
			c-0.037-0.017-0.071-0.038-0.109-0.054c-0.258-0.107-0.524-0.185-0.794-0.246c-0.074-0.018-0.149-0.031-0.225-0.045
			c-0.283-0.05-0.567-0.085-0.853-0.086c-0.005,0-0.009-0.001-0.014-0.001s-0.009,0.001-0.014,0.001
			c-0.286,0.001-0.57,0.036-0.853,0.086c-0.076,0.014-0.15,0.027-0.225,0.045c-0.27,0.062-0.536,0.139-0.794,0.246
			c-0.038,0.016-0.072,0.037-0.109,0.054c-0.155,0.069-0.311,0.141-0.46,0.227l-12.257,7.086v-8.507
			c0-2.708-2.195-4.904-4.904-4.904s-4.904,2.196-4.904,4.904v45.354c0,2.708,2.195,4.904,4.904,4.904s4.904-2.196,4.904-4.904
			v-25.518l9.808-5.67v19.848c0,0.094,0.022,0.182,0.028,0.273c0.01,0.179,0.024,0.354,0.053,0.532
			c0.026,0.156,0.064,0.308,0.104,0.459c0.041,0.152,0.084,0.303,0.14,0.452c0.063,0.168,0.139,0.327,0.219,0.485
			c0.042,0.083,0.066,0.171,0.114,0.252c0.037,0.063,0.082,0.118,0.12,0.179c0.043,0.068,0.088,0.135,0.135,0.2
			c0.152,0.216,0.316,0.418,0.496,0.602c0.012,0.013,0.022,0.027,0.035,0.04c0.203,0.201,0.423,0.378,0.653,0.538
			c0.054,0.038,0.11,0.072,0.166,0.108c0.206,0.132,0.419,0.249,0.641,0.348c0.042,0.02,0.081,0.042,0.124,0.061
			c0.256,0.105,0.521,0.184,0.791,0.245c0.072,0.017,0.144,0.029,0.217,0.042c0.284,0.052,0.571,0.087,0.861,0.087
			c0.003,0,0.005,0.001,0.008,0.001c0,0,0.001,0,0.002,0c0,0,0.001,0,0.002,0c0.291,0,0.583-0.036,0.873-0.089
			c0.068-0.012,0.135-0.024,0.203-0.039c0.271-0.062,0.542-0.14,0.805-0.25c0.038-0.016,0.072-0.037,0.11-0.054
			c0.155-0.069,0.31-0.14,0.459-0.227l24.52-14.173c1.516-0.877,2.45-2.495,2.45-4.246S195.223,424.669,193.707,423.792z
			 M171.637,433.712v-11.349l9.817,5.675L171.637,433.712z"/>
		</g>
	</g>
</g>

</svg>
