<?xml version="1.0" encoding="utf-8"?>
<!-- Hackstub logo v1 - 2015 -->
	 
<!DOCTYPE svg PUBLIC "-//W3C//DTD SVG 1.1//EN" "http://www.w3.org/Graphics/SVG/1.1/DTD/svg11.dtd">
<svg version="1.1" xmlns="http://www.w3.org/2000/svg" xmlns:xlink="http://www.w3.org/1999/xlink" x="0px" y="0px"
	 width="833.669px" height="850.4px" viewBox="0 0 833.669 850.4" enable-background="new 0 0 833.669 850.4" xml:space="preserve">

<g id="fond" display="none">
	<rect display="inline" y="0" fill="#282828" width="833.669" height="850.4"/>
</g>

<g id="PRINT">
	<g id="LOGO-W-PRINT" fill="#FFFFFF">
		<g id="hs-w">
			<path d="M389.866,537.178l-17.175-9.928l12.269-7.092c2.345-1.355,3.147-4.355,1.792-6.7
			c-1.355-2.345-4.357-3.146-6.7-1.792l-12.257,7.086v-7.092c0-2.708-2.195-4.904-4.904-4.904s-4.904,2.196-4.904,4.904v12.761
			l-9.808,5.67v-7.092c0-2.708-2.195-4.904-4.904-4.904s-4.904,2.196-4.904,4.904v43.938c0,2.708,2.195,4.904,4.904,4.904
			s4.904-2.196,4.904-4.904V541.42l9.808-5.67v19.848c0,1.753,0.935,3.372,2.453,4.248c0.758,0.438,1.604,0.656,2.451,0.656
			c0.848,0,1.695-0.22,2.454-0.658l24.521-14.174c1.516-0.877,2.45-2.495,2.45-4.246S391.382,538.055,389.866,537.178z
			 M367.795,547.099v-11.35l9.818,5.675L367.795,547.099z"/>
		</g>
		
		<g id="hk_sb-w">
			<path d="M669.39,375.604l-22.069-12.757v-8.511c0-2.708-2.196-4.904-4.904-4.904s-4.904,2.196-4.904,4.904v2.842
			l-9.816-5.674l12.271-7.093c2.345-1.355,3.146-4.355,1.792-6.7c-1.354-2.344-4.354-3.146-6.7-1.792l-12.257,7.085v-8.509
			c0-2.708-2.196-4.904-4.904-4.904s-4.904,2.196-4.904,4.904v42.524l-9.807,5.669v-19.848c0-1.753-0.936-3.372-2.453-4.248
			s-3.388-0.874-4.905,0.002l-12.257,7.085v-8.509c0-2.708-2.196-4.904-4.904-4.904s-4.904,2.196-4.904,4.904v45.354
			c0,2.708,2.196,4.904,4.904,4.904s4.904-2.196,4.904-4.904V377.01l9.807-5.669v19.848c0,0.297,0.036,0.587,0.088,0.872
			c0.014,0.075,0.028,0.148,0.045,0.223c0.062,0.271,0.14,0.539,0.247,0.795c0.013,0.031,0.03,0.06,0.044,0.09
			c0.102,0.229,0.222,0.446,0.356,0.656c0.041,0.064,0.082,0.127,0.126,0.188c0.159,0.226,0.331,0.442,0.527,0.64
			c0.007,0.007,0.015,0.013,0.022,0.02c0.189,0.188,0.399,0.355,0.619,0.512c0.063,0.045,0.127,0.087,0.192,0.129
			c0.062,0.039,0.118,0.085,0.183,0.122l17.175,9.927l-17.175,9.927c-2.345,1.355-3.146,4.355-1.792,6.7
			c0.909,1.572,2.557,2.45,4.251,2.45c0.832,0,1.677-0.212,2.449-0.658l24.52-14.173c1.516-0.877,2.45-2.495,2.45-4.246
			s-0.935-3.369-2.45-4.246l-17.175-9.927l12.271-7.093c1.517-0.877,2.45-2.495,2.45-4.246v-19.846l14.711,8.504v25.515
			c0,1.752,0.936,3.372,2.453,4.247c0.759,0.438,1.604,0.657,2.451,0.657c0.848,0,1.695-0.22,2.454-0.658l24.52-14.172
			c1.516-0.877,2.45-2.495,2.45-4.246S670.905,376.481,669.39,375.604z M647.32,385.524v-11.348l9.815,5.674L647.32,385.524z"/>
		</g>
		
		<g id="hksb-w">
			<path d="M335.921,454.974l-22.07-12.758V428.04c0-2.708-2.195-4.904-4.904-4.904s-4.904,2.196-4.904,4.904V443
			c-0.834-0.002-1.68,0.189-2.455,0.637l-31.874,18.425v-8.511c0-2.708-2.195-4.904-4.904-4.904s-4.904,2.196-4.904,4.904v14.18
			l-9.808,5.67v-8.51c0-2.708-2.195-4.904-4.904-4.904s-4.904,2.196-4.904,4.904v45.354c0,2.708,2.195,4.904,4.904,4.904
			s4.904-2.196,4.904-4.904v-25.515l9.808-5.669v19.844c0,2.708,2.195,4.904,4.904,4.904s4.904-2.196,4.904-4.904v-19.847
			l10.487,6.062c-0.849,1.469-0.93,3.328-0.02,4.902c0.909,1.572,2.556,2.451,4.25,2.45c0.833,0,1.677-0.212,2.45-0.658
			l49.039-28.348c1.516-0.877,2.45-2.495,2.45-4.246S337.437,455.851,335.921,454.974z M289.333,479.067l-14.719-8.508l9.816-5.675
			l14.719,8.509L289.333,479.067z M304.043,453.547v11.347l-9.814-5.673L304.043,453.547z M313.851,464.895v-11.35l9.817,5.675
			L313.851,464.895z"/>
		</g>
		
		<g id="hack_stub-w">
			<path d="M512.465,284.896l-22.069-12.759V257.96c0-2.708-2.196-4.904-4.904-4.904s-4.904,2.195-4.904,4.904
			v36.854l-17.162-9.919c-1.52-0.877-3.391-0.877-4.908,0l-7.354,4.251V260.79l17.161,9.92c0.772,0.446,1.617,0.658,2.449,0.658
			c1.694,0,3.342-0.878,4.251-2.45c1.354-2.345,0.553-5.344-1.792-6.7l-17.175-9.927l12.271-7.093
			c2.345-1.355,3.146-4.355,1.792-6.7c-1.355-2.344-4.354-3.147-6.7-1.792l-12.257,7.085v-8.51c0-2.708-2.196-4.904-4.904-4.904
			s-4.904,2.195-4.904,4.904v14.958c-0.834-0.001-1.68,0.19-2.454,0.638l-19.615,11.339c-1.516,0.876-2.45,2.495-2.45,4.246
			s0.934,3.369,2.45,4.246l22.069,12.757v12.13c-0.834-0.001-1.68,0.19-2.454,0.638l-19.615,11.339
			c-1.516,0.877-2.45,2.495-2.45,4.246s0.934,3.369,2.45,4.246l17.175,9.927l-17.175,9.927c-2.345,1.355-3.147,4.355-1.792,6.7
			c0.909,1.572,2.556,2.451,4.25,2.45c0.833,0,1.677-0.212,2.45-0.658l24.52-14.173c0.063-0.037,0.12-0.083,0.183-0.122
			c0.065-0.042,0.129-0.084,0.192-0.129c0.221-0.156,0.431-0.324,0.62-0.513c0.007-0.006,0.015-0.012,0.021-0.019
			c0.196-0.197,0.368-0.414,0.527-0.64c0.044-0.062,0.085-0.124,0.126-0.188c0.134-0.21,0.255-0.428,0.356-0.656
			c0.014-0.03,0.031-0.059,0.044-0.09c0.107-0.256,0.185-0.523,0.247-0.796c0.018-0.073,0.031-0.146,0.045-0.221
			c0.052-0.286,0.088-0.576,0.088-0.873v-25.517l9.808-5.67l22.066,12.754c0.149,0.086,0.305,0.157,0.461,0.227
			c0.037,0.017,0.07,0.038,0.108,0.054c0.259,0.107,0.525,0.186,0.796,0.247c0.072,0.017,0.146,0.03,0.219,0.043
			c0.288,0.052,0.578,0.088,0.87,0.088s0.582-0.036,0.871-0.088c0.073-0.013,0.145-0.026,0.217-0.043
			c0.271-0.062,0.539-0.14,0.799-0.248c0.035-0.015,0.067-0.035,0.104-0.051c0.156-0.069,0.313-0.142,0.464-0.229l24.52-14.172
			c1.516-0.877,2.45-2.495,2.45-4.246S513.981,285.771,512.465,284.896z M431.538,266.463l9.816-5.675v11.349L431.538,266.463z
			 M431.538,311.818l9.816-5.674v11.348L431.538,311.818z M490.396,294.814v-11.35l9.816,5.676L490.396,294.814z"/>
			 
			<path d="M436.45,289.142c0-1.751-0.934-3.369-2.45-4.246l-24.446-14.131c-0.731-0.44-1.587-0.696-2.501-0.701
			c-0.003-0.001-0.003-0.001-0.003,0c-0.015,0-0.03,0-0.044,0c-0.002,0-0.003,0-0.003,0c-0.915,0.005-1.771,0.261-2.502,0.701
			l-12.184,7.043v-8.51c0-2.708-2.195-4.904-4.904-4.904s-4.904,2.196-4.904,4.904v45.354c0,2.708,2.195,4.904,4.904,4.904
			s4.904-2.196,4.904-4.904v-25.515l9.808-5.67v19.848c0,1.753,0.935,3.372,2.453,4.247c0.758,0.438,1.604,0.657,2.451,0.657
			c0.847,0,1.695-0.22,2.454-0.658L434,293.388C435.516,292.511,436.45,290.893,436.45,289.142z M411.93,294.815v-11.349
			l9.817,5.675L411.93,294.815z"/>
		</g>
		
		<g id="hackstub-w">
			<path d="M316.307,352.929l-22.07-12.759v-14.177c0-2.708-2.195-4.904-4.904-4.904s-4.904,2.196-4.904,4.904
			v36.854l-17.162-9.92c-1.519-0.877-3.39-0.877-4.908,0l-7.354,4.251v-8.508c0-2.708-2.195-4.904-4.904-4.904
			s-4.904,2.196-4.904,4.904v14.958c-0.835-0.001-1.68,0.19-2.455,0.638l-19.613,11.338c-0.001,0-0.002,0.001-0.002,0.001
			l-12.258,7.086v-8.51c0-2.708-2.195-4.904-4.904-4.904s-4.904,2.196-4.904,4.904v14.938c-0.002,0-0.003,0-0.005,0
			c-0.833,0-1.677,0.212-2.45,0.658l-19.615,11.339c-1.516,0.877-2.45,2.495-2.45,4.246s0.934,3.369,2.45,4.246l24.52,14.173
			c0.759,0.438,1.606,0.658,2.454,0.658c0.846,0,1.692-0.219,2.451-0.657c1.518-0.875,2.453-2.494,2.453-4.247v-19.846
			l10.486,6.061c-0.848,1.469-0.929,3.328-0.02,4.901c0.909,1.572,2.556,2.451,4.25,2.45c0.833,0,1.677-0.212,2.45-0.658
			l4.855-2.807c0.007-0.004,0.015-0.009,0.022-0.013l19.642-11.354c0.064-0.037,0.121-0.083,0.183-0.122
			c0.065-0.042,0.129-0.084,0.192-0.129c0.222-0.157,0.433-0.326,0.624-0.515c0.006-0.006,0.012-0.011,0.018-0.016
			c0.197-0.198,0.37-0.415,0.529-0.642c0.043-0.061,0.083-0.122,0.123-0.186c0.135-0.211,0.257-0.43,0.358-0.66
			c0.013-0.029,0.031-0.057,0.043-0.087c0.107-0.257,0.185-0.524,0.247-0.797c0.017-0.073,0.031-0.146,0.044-0.222
			c0.052-0.285,0.088-0.575,0.088-0.872v-25.517l9.808-5.67l22.066,12.754c0.149,0.086,0.305,0.157,0.46,0.227
			c0.037,0.017,0.071,0.038,0.108,0.054c0.259,0.107,0.526,0.186,0.796,0.247c0.073,0.017,0.146,0.03,0.219,0.043
			c0.288,0.053,0.579,0.088,0.87,0.088s0.582-0.035,0.87-0.088c0.074-0.013,0.146-0.026,0.219-0.043
			c0.27-0.062,0.537-0.14,0.796-0.247c0.038-0.016,0.071-0.037,0.108-0.054c0.156-0.069,0.311-0.141,0.46-0.227l24.52-14.172
			c1.516-0.877,2.45-2.495,2.45-4.246S317.822,353.805,316.307,352.929z M201.062,411.036l-9.817-5.674l9.817-5.675V411.036z
			 M245.197,374.177v11.349l-9.817-5.674L245.197,374.177z M230.485,399.698l-14.72-8.508l9.816-5.675l14.72,8.509L230.485,399.698
			z M294.236,362.848v-11.35l9.817,5.676L294.236,362.848z"/>
			
			<path d="M193.707,423.792l-24.52-14.174c-0.149-0.086-0.305-0.157-0.46-0.227
			c-0.037-0.017-0.071-0.038-0.109-0.054c-0.258-0.107-0.524-0.185-0.794-0.246c-0.074-0.018-0.149-0.031-0.225-0.045
			c-0.283-0.05-0.567-0.085-0.853-0.086c-0.005,0-0.009-0.001-0.014-0.001s-0.009,0.001-0.014,0.001
			c-0.286,0.001-0.57,0.036-0.853,0.086c-0.076,0.014-0.15,0.027-0.225,0.045c-0.27,0.062-0.536,0.139-0.794,0.246
			c-0.038,0.016-0.072,0.037-0.109,0.054c-0.155,0.069-0.311,0.141-0.46,0.227l-12.257,7.086v-8.507
			c0-2.708-2.195-4.904-4.904-4.904s-4.904,2.196-4.904,4.904v45.354c0,2.708,2.195,4.904,4.904,4.904s4.904-2.196,4.904-4.904
			v-25.518l9.808-5.67v19.848c0,0.094,0.022,0.182,0.028,0.273c0.01,0.179,0.024,0.354,0.053,0.532
			c0.026,0.156,0.064,0.308,0.104,0.459c0.041,0.152,0.084,0.303,0.14,0.452c0.063,0.168,0.139,0.327,0.219,0.485
			c0.042,0.083,0.066,0.171,0.114,0.252c0.037,0.063,0.082,0.118,0.12,0.179c0.043,0.068,0.088,0.135,0.135,0.2
			c0.152,0.216,0.316,0.418,0.496,0.602c0.012,0.013,0.022,0.027,0.035,0.04c0.203,0.201,0.423,0.378,0.653,0.538
			c0.054,0.038,0.11,0.072,0.166,0.108c0.206,0.132,0.419,0.249,0.641,0.348c0.042,0.02,0.081,0.042,0.124,0.061
			c0.256,0.105,0.521,0.184,0.791,0.245c0.072,0.017,0.144,0.029,0.217,0.042c0.284,0.052,0.571,0.087,0.861,0.087
			c0.003,0,0.005,0.001,0.008,0.001c0,0,0.001,0,0.002,0c0,0,0.001,0,0.002,0c0.291,0,0.583-0.036,0.873-0.089
			c0.068-0.012,0.135-0.024,0.203-0.039c0.271-0.062,0.542-0.14,0.805-0.25c0.038-0.016,0.072-0.037,0.11-0.054
			c0.155-0.069,0.31-0.14,0.459-0.227l24.52-14.173c1.516-0.877,2.45-2.495,2.45-4.246S195.223,424.669,193.707,423.792z
			 M171.637,433.712v-11.349l9.817,5.675L171.637,433.712z"/>
		</g>
	</g>
	
	<g id="LOGO-W-SPECIAL_1_" transform="translate(0,-300)">
		<g id="cercle">
			<circle fill="#282828" cx="284.428" cy="470.561" r="77.953"/>
		</g>
		
		<g id="hksb-w" fill="none" stroke="#FFFFFF" stroke-width="9.8079" stroke-linecap="round" stroke-linejoin="round" stroke-miterlimit="3">
				<polyline id="b" points="308.947,445.046 333.467,459.22 308.947,473.393 308.947,428.04"/>
				<polyline id="s" points="304.043,447.883 284.428,459.222 308.947,473.395 284.428,487.567"/>
			<g id="k">
				<line x1="264.812" y1="498.904" x2="264.812" y2="453.551"/>
				<polyline points="289.332,484.731 264.812,470.559 284.427,459.22"/>
			</g>
			<g id="h">
				<line x1="245.196" y1="464.891" x2="245.196" y2="510.244"/>
				<polyline points="245.196,481.899 264.812,470.561 264.812,498.907"/>
			</g>
		</g>
	</g>
	
	<g id="LOGO-B-PRINT" fill="#282828">
		<g id="hs-w">
			<path d="M389.866,537.178l-17.175-9.928l12.269-7.092c2.345-1.355,3.147-4.355,1.792-6.7
			c-1.355-2.345-4.357-3.146-6.7-1.792l-12.257,7.086v-7.092c0-2.708-2.195-4.904-4.904-4.904s-4.904,2.196-4.904,4.904v12.761
			l-9.808,5.67v-7.092c0-2.708-2.195-4.904-4.904-4.904s-4.904,2.196-4.904,4.904v43.938c0,2.708,2.195,4.904,4.904,4.904
			s4.904-2.196,4.904-4.904V541.42l9.808-5.67v19.848c0,1.753,0.935,3.372,2.453,4.248c0.758,0.438,1.604,0.656,2.451,0.656
			c0.848,0,1.695-0.22,2.454-0.658l24.521-14.174c1.516-0.877,2.45-2.495,2.45-4.246S391.382,538.055,389.866,537.178z
			 M367.795,547.099v-11.35l9.818,5.675L367.795,547.099z"/>
		</g>
		
		<g id="hk_sb-w">
			<path d="M669.39,375.604l-22.069-12.757v-8.511c0-2.708-2.196-4.904-4.904-4.904s-4.904,2.196-4.904,4.904v2.842
			l-9.816-5.674l12.271-7.093c2.345-1.355,3.146-4.355,1.792-6.7c-1.354-2.344-4.354-3.146-6.7-1.792l-12.257,7.085v-8.509
			c0-2.708-2.196-4.904-4.904-4.904s-4.904,2.196-4.904,4.904v42.524l-9.807,5.669v-19.848c0-1.753-0.936-3.372-2.453-4.248
			s-3.388-0.874-4.905,0.002l-12.257,7.085v-8.509c0-2.708-2.196-4.904-4.904-4.904s-4.904,2.196-4.904,4.904v45.354
			c0,2.708,2.196,4.904,4.904,4.904s4.904-2.196,4.904-4.904V377.01l9.807-5.669v19.848c0,0.297,0.036,0.587,0.088,0.872
			c0.014,0.075,0.028,0.148,0.045,0.223c0.062,0.271,0.14,0.539,0.247,0.795c0.013,0.031,0.03,0.06,0.044,0.09
			c0.102,0.229,0.222,0.446,0.356,0.656c0.041,0.064,0.082,0.127,0.126,0.188c0.159,0.226,0.331,0.442,0.527,0.64
			c0.007,0.007,0.015,0.013,0.022,0.02c0.189,0.188,0.399,0.355,0.619,0.512c0.063,0.045,0.127,0.087,0.192,0.129
			c0.062,0.039,0.118,0.085,0.183,0.122l17.175,9.927l-17.175,9.927c-2.345,1.355-3.146,4.355-1.792,6.7
			c0.909,1.572,2.557,2.45,4.251,2.45c0.832,0,1.677-0.212,2.449-0.658l24.52-14.173c1.516-0.877,2.45-2.495,2.45-4.246
			s-0.935-3.369-2.45-4.246l-17.175-9.927l12.271-7.093c1.517-0.877,2.45-2.495,2.45-4.246v-19.846l14.711,8.504v25.515
			c0,1.752,0.936,3.372,2.453,4.247c0.759,0.438,1.604,0.657,2.451,0.657c0.848,0,1.695-0.22,2.454-0.658l24.52-14.172
			c1.516-0.877,2.45-2.495,2.45-4.246S670.905,376.481,669.39,375.604z M647.32,385.524v-11.348l9.815,5.674L647.32,385.524z"/>
		</g>
		
		<g id="hksb-w">
			<path d="M335.921,454.974l-22.07-12.758V428.04c0-2.708-2.195-4.904-4.904-4.904s-4.904,2.196-4.904,4.904V443
			c-0.834-0.002-1.68,0.189-2.455,0.637l-31.874,18.425v-8.511c0-2.708-2.195-4.904-4.904-4.904s-4.904,2.196-4.904,4.904v14.18
			l-9.808,5.67v-8.51c0-2.708-2.195-4.904-4.904-4.904s-4.904,2.196-4.904,4.904v45.354c0,2.708,2.195,4.904,4.904,4.904
			s4.904-2.196,4.904-4.904v-25.515l9.808-5.669v19.844c0,2.708,2.195,4.904,4.904,4.904s4.904-2.196,4.904-4.904v-19.847
			l10.487,6.062c-0.849,1.469-0.93,3.328-0.02,4.902c0.909,1.572,2.556,2.451,4.25,2.45c0.833,0,1.677-0.212,2.45-0.658
			l49.039-28.348c1.516-0.877,2.45-2.495,2.45-4.246S337.437,455.851,335.921,454.974z M289.333,479.067l-14.719-8.508l9.816-5.675
			l14.719,8.509L289.333,479.067z M304.043,453.547v11.347l-9.814-5.673L304.043,453.547z M313.851,464.895v-11.35l9.817,5.675
			L313.851,464.895z"/>
		</g>
		
		<g id="hack_stub-w">
			<path d="M512.465,284.896l-22.069-12.759V257.96c0-2.708-2.196-4.904-4.904-4.904s-4.904,2.195-4.904,4.904
			v36.854l-17.162-9.919c-1.52-0.877-3.391-0.877-4.908,0l-7.354,4.251V260.79l17.161,9.92c0.772,0.446,1.617,0.658,2.449,0.658
			c1.694,0,3.342-0.878,4.251-2.45c1.354-2.345,0.553-5.344-1.792-6.7l-17.175-9.927l12.271-7.093
			c2.345-1.355,3.146-4.355,1.792-6.7c-1.355-2.344-4.354-3.147-6.7-1.792l-12.257,7.085v-8.51c0-2.708-2.196-4.904-4.904-4.904
			s-4.904,2.195-4.904,4.904v14.958c-0.834-0.001-1.68,0.19-2.454,0.638l-19.615,11.339c-1.516,0.876-2.45,2.495-2.45,4.246
			s0.934,3.369,2.45,4.246l22.069,12.757v12.13c-0.834-0.001-1.68,0.19-2.454,0.638l-19.615,11.339
			c-1.516,0.877-2.45,2.495-2.45,4.246s0.934,3.369,2.45,4.246l17.175,9.927l-17.175,9.927c-2.345,1.355-3.147,4.355-1.792,6.7
			c0.909,1.572,2.556,2.451,4.25,2.45c0.833,0,1.677-0.212,2.45-0.658l24.52-14.173c0.063-0.037,0.12-0.083,0.183-0.122
			c0.065-0.042,0.129-0.084,0.192-0.129c0.221-0.156,0.431-0.324,0.62-0.513c0.007-0.006,0.015-0.012,0.021-0.019
			c0.196-0.197,0.368-0.414,0.527-0.64c0.044-0.062,0.085-0.124,0.126-0.188c0.134-0.21,0.255-0.428,0.356-0.656
			c0.014-0.03,0.031-0.059,0.044-0.09c0.107-0.256,0.185-0.523,0.247-0.796c0.018-0.073,0.031-0.146,0.045-0.221
			c0.052-0.286,0.088-0.576,0.088-0.873v-25.517l9.808-5.67l22.066,12.754c0.149,0.086,0.305,0.157,0.461,0.227
			c0.037,0.017,0.07,0.038,0.108,0.054c0.259,0.107,0.525,0.186,0.796,0.247c0.072,0.017,0.146,0.03,0.219,0.043
			c0.288,0.052,0.578,0.088,0.87,0.088s0.582-0.036,0.871-0.088c0.073-0.013,0.145-0.026,0.217-0.043
			c0.271-0.062,0.539-0.14,0.799-0.248c0.035-0.015,0.067-0.035,0.104-0.051c0.156-0.069,0.313-0.142,0.464-0.229l24.52-14.172
			c1.516-0.877,2.45-2.495,2.45-4.246S513.981,285.771,512.465,284.896z M431.538,266.463l9.816-5.675v11.349L431.538,266.463z
			 M431.538,311.818l9.816-5.674v11.348L431.538,311.818z M490.396,294.814v-11.35l9.816,5.676L490.396,294.814z"/>
			
			<path d="M436.45,289.142c0-1.751-0.934-3.369-2.45-4.246l-24.446-14.131c-0.731-0.44-1.587-0.696-2.501-0.701
			c-0.003-0.001-0.003-0.001-0.003,0c-0.015,0-0.03,0-0.044,0c-0.002,0-0.003,0-0.003,0c-0.915,0.005-1.771,0.261-2.502,0.701
			l-12.184,7.043v-8.51c0-2.708-2.195-4.904-4.904-4.904s-4.904,2.196-4.904,4.904v45.354c0,2.708,2.195,4.904,4.904,4.904
			s4.904-2.196,4.904-4.904v-25.515l9.808-5.67v19.848c0,1.753,0.935,3.372,2.453,4.247c0.758,0.438,1.604,0.657,2.451,0.657
			c0.847,0,1.695-0.22,2.454-0.658L434,293.388C435.516,292.511,436.45,290.893,436.45,289.142z M411.93,294.815v-11.349
			l9.817,5.675L411.93,294.815z"/>
		</g>
		
		<g id="hackstub-w">
			<path d="M316.307,352.929l-22.07-12.759v-14.177c0-2.708-2.195-4.904-4.904-4.904s-4.904,2.196-4.904,4.904
			v36.854l-17.162-9.92c-1.519-0.877-3.39-0.877-4.908,0l-7.354,4.251v-8.508c0-2.708-2.195-4.904-4.904-4.904
			s-4.904,2.196-4.904,4.904v14.958c-0.835-0.001-1.68,0.19-2.455,0.638l-19.613,11.338c-0.001,0-0.002,0.001-0.002,0.001
			l-12.258,7.086v-8.51c0-2.708-2.195-4.904-4.904-4.904s-4.904,2.196-4.904,4.904v14.938c-0.002,0-0.003,0-0.005,0
			c-0.833,0-1.677,0.212-2.45,0.658l-19.615,11.339c-1.516,0.877-2.45,2.495-2.45,4.246s0.934,3.369,2.45,4.246l24.52,14.173
			c0.759,0.438,1.606,0.658,2.454,0.658c0.846,0,1.692-0.219,2.451-0.657c1.518-0.875,2.453-2.494,2.453-4.247v-19.846
			l10.486,6.061c-0.848,1.469-0.929,3.328-0.02,4.901c0.909,1.572,2.556,2.451,4.25,2.45c0.833,0,1.677-0.212,2.45-0.658
			l4.855-2.807c0.007-0.004,0.015-0.009,0.022-0.013l19.642-11.354c0.064-0.037,0.121-0.083,0.183-0.122
			c0.065-0.042,0.129-0.084,0.192-0.129c0.222-0.157,0.433-0.326,0.624-0.515c0.006-0.006,0.012-0.011,0.018-0.016
			c0.197-0.198,0.37-0.415,0.529-0.642c0.043-0.061,0.083-0.122,0.123-0.186c0.135-0.211,0.257-0.43,0.358-0.66
			c0.013-0.029,0.031-0.057,0.043-0.087c0.107-0.257,0.185-0.524,0.247-0.797c0.017-0.073,0.031-0.146,0.044-0.222
			c0.052-0.285,0.088-0.575,0.088-0.872v-25.517l9.808-5.67l22.066,12.754c0.149,0.086,0.305,0.157,0.46,0.227
			c0.037,0.017,0.071,0.038,0.108,0.054c0.259,0.107,0.526,0.186,0.796,0.247c0.073,0.017,0.146,0.03,0.219,0.043
			c0.288,0.053,0.579,0.088,0.87,0.088s0.582-0.035,0.87-0.088c0.074-0.013,0.146-0.026,0.219-0.043
			c0.27-0.062,0.537-0.14,0.796-0.247c0.038-0.016,0.071-0.037,0.108-0.054c0.156-0.069,0.311-0.141,0.46-0.227l24.52-14.172
			c1.516-0.877,2.45-2.495,2.45-4.246S317.822,353.805,316.307,352.929z M201.062,411.036l-9.817-5.674l9.817-5.675V411.036z
			 M245.197,374.177v11.349l-9.817-5.674L245.197,374.177z M230.485,399.698l-14.72-8.508l9.816-5.675l14.72,8.509L230.485,399.698
			z M294.236,362.848v-11.35l9.817,5.676L294.236,362.848z"/>
			
			<path d="M193.707,423.792l-24.52-14.174c-0.149-0.086-0.305-0.157-0.46-0.227
			c-0.037-0.017-0.071-0.038-0.109-0.054c-0.258-0.107-0.524-0.185-0.794-0.246c-0.074-0.018-0.149-0.031-0.225-0.045
			c-0.283-0.05-0.567-0.085-0.853-0.086c-0.005,0-0.009-0.001-0.014-0.001s-0.009,0.001-0.014,0.001
			c-0.286,0.001-0.57,0.036-0.853,0.086c-0.076,0.014-0.15,0.027-0.225,0.045c-0.27,0.062-0.536,0.139-0.794,0.246
			c-0.038,0.016-0.072,0.037-0.109,0.054c-0.155,0.069-0.311,0.141-0.46,0.227l-12.257,7.086v-8.507
			c0-2.708-2.195-4.904-4.904-4.904s-4.904,2.196-4.904,4.904v45.354c0,2.708,2.195,4.904,4.904,4.904s4.904-2.196,4.904-4.904
			v-25.518l9.808-5.67v19.848c0,0.094,0.022,0.182,0.028,0.273c0.01,0.179,0.024,0.354,0.053,0.532
			c0.026,0.156,0.064,0.308,0.104,0.459c0.041,0.152,0.084,0.303,0.14,0.452c0.063,0.168,0.139,0.327,0.219,0.485
			c0.042,0.083,0.066,0.171,0.114,0.252c0.037,0.063,0.082,0.118,0.12,0.179c0.043,0.068,0.088,0.135,0.135,0.2
			c0.152,0.216,0.316,0.418,0.496,0.602c0.012,0.013,0.022,0.027,0.035,0.04c0.203,0.201,0.423,0.378,0.653,0.538
			c0.054,0.038,0.11,0.072,0.166,0.108c0.206,0.132,0.419,0.249,0.641,0.348c0.042,0.02,0.081,0.042,0.124,0.061
			c0.256,0.105,0.521,0.184,0.791,0.245c0.072,0.017,0.144,0.029,0.217,0.042c0.284,0.052,0.571,0.087,0.861,0.087
			c0.003,0,0.005,0.001,0.008,0.001c0,0,0.001,0,0.002,0c0,0,0.001,0,0.002,0c0.291,0,0.583-0.036,0.873-0.089
			c0.068-0.012,0.135-0.024,0.203-0.039c0.271-0.062,0.542-0.14,0.805-0.25c0.038-0.016,0.072-0.037,0.11-0.054
			c0.155-0.069,0.31-0.14,0.459-0.227l24.52-14.173c1.516-0.877,2.45-2.495,2.45-4.246S195.223,424.669,193.707,423.792z
			 M171.637,433.712v-11.349l9.817,5.675L171.637,433.712z"/>
		</g>
	</g>
	
	<g id="LOGO-COLOR-PRINT">
		<g id="hs-color">
			<path fill="#0000FF" d="M384.957,545.67l-7.345-4.245l-9.817,5.675v-11.35v-8.497c0-1.753-0.935-3.372-2.453-4.248
			c-1.518-0.876-3.388-0.874-4.905,0.002l-2.45,1.416l-9.808,5.67v-7.094c0-2.708-2.195-4.904-4.904-4.904
			s-4.904,2.196-4.904,4.904v43.938c0,2.708,2.195,4.904,4.904,4.904s4.904-2.196,4.904-4.904v-25.515l9.808-5.67V555.6
			c0,1.753,0.935,3.372,2.453,4.248c0.758,0.438,1.604,0.656,2.451,0.656c0.848,0,1.695-0.22,2.455-0.659l24.472-14.148
			c-0.735,0.413-1.567,0.632-2.411,0.632C386.573,546.328,385.729,546.116,384.957,545.67z"/>
				
			<path fill="#282828" d="M391.656,543.878c0.028-0.048,0.041-0.1,0.067-0.148c0.084-0.158,0.152-0.319,0.218-0.482
			c0.057-0.141,0.114-0.279,0.157-0.422c0.046-0.153,0.075-0.309,0.105-0.465c0.03-0.156,0.063-0.311,0.078-0.468
			s0.013-0.314,0.013-0.472c0-0.155,0.002-0.311-0.013-0.465c-0.016-0.159-0.048-0.315-0.079-0.473
			c-0.03-0.155-0.059-0.309-0.104-0.46c-0.043-0.145-0.102-0.284-0.158-0.424c-0.066-0.164-0.134-0.325-0.217-0.482
			c-0.067-0.126-0.146-0.246-0.225-0.367c-0.098-0.149-0.199-0.296-0.314-0.436c-0.099-0.119-0.206-0.231-0.316-0.343
			c-0.113-0.112-0.227-0.222-0.352-0.325c-0.134-0.109-0.278-0.21-0.426-0.307c-0.078-0.051-0.144-0.115-0.225-0.162l-17.175-9.927
			l12.271-7.093c2.345-1.355,3.147-4.355,1.792-6.7c-1.355-2.345-4.355-3.146-6.7-1.792l-12.258,7.086v-7.092
			c0-2.708-2.195-4.904-4.904-4.904s-4.904,2.196-4.904,4.904v12.763l2.45-1.416c1.517-0.876,3.387-0.878,4.905-0.002
			c1.518,0.876,2.453,2.495,2.453,4.248v8.497l9.817,5.675l7.345,4.245c0.773,0.446,1.617,0.658,2.45,0.658
			c0.844,0,1.676-0.219,2.411-0.632c0.006-0.003,0.013-0.007,0.019-0.011c0.021-0.012,0.04-0.027,0.061-0.04
			c0.241-0.142,0.468-0.31,0.684-0.493c0.049-0.041,0.099-0.082,0.146-0.125c0.207-0.19,0.401-0.395,0.576-0.623
			c0.03-0.04,0.055-0.084,0.084-0.125C391.48,544.149,391.574,544.02,391.656,543.878z"/>
		</g>
		
		<g id="hk_sb-color">
			<path fill="#282828" d="M669.39,375.605l-22.069-12.759v-8.51c0-2.708-2.196-4.904-4.904-4.904s-4.904,2.196-4.904,4.904v2.842
			l7.358,4.253c2.345,1.355,3.146,4.355,1.792,6.7c-0.909,1.572-2.557,2.45-4.251,2.45c-0.832,0-1.677-0.212-2.449-0.658
			l-2.45-1.416v25.515c0,1.752,0.936,3.372,2.453,4.247c0.759,0.438,1.604,0.657,2.451,0.657c0.848,0,1.695-0.22,2.454-0.658
			l24.52-14.172c1.516-0.877,2.45-2.495,2.45-4.246S670.906,376.481,669.39,375.605z M647.32,385.524v-11.35l9.816,5.676
			L647.32,385.524z"/>
				
			<path fill="#0000FF" d="M642.411,370.582c1.694,0,3.342-0.878,4.251-2.45c1.354-2.345,0.553-5.345-1.792-6.7l-7.358-4.253
			l-9.816-5.674l12.271-7.093c2.345-1.355,3.146-4.355,1.792-6.7c-1.354-2.344-4.354-3.146-6.7-1.792l-12.257,7.085v-8.509
			c0-2.708-2.196-4.904-4.904-4.904s-4.904,2.196-4.904,4.904v42.523l2.45-1.416c2.347-1.354,5.345-0.552,6.7,1.792
			c0.477,0.825,0.672,1.73,0.642,2.617c0.002-0.056,0.017-0.107,0.017-0.163v-19.846l14.711,8.504l2.45,1.416
			C640.734,370.37,641.579,370.582,642.411,370.582z"/>
				
			<path fill="#0000FF" d="M595.827,386.942l7.358-4.254v-19.847c0-1.753-0.936-3.372-2.453-4.248s-3.388-0.874-4.905,0.002
			l-12.257,7.085v-8.509c0-2.708-2.196-4.904-4.904-4.904s-4.904,2.196-4.904,4.904v45.354c0,2.708,2.196,4.904,4.904,4.904
			s4.904-2.196,4.904-4.904V377.01l9.807-5.669v19.848C593.377,389.438,594.311,387.819,595.827,386.942z"/>
				
			<path fill="#282828" d="M615.442,375.604l-2.45,1.416l-9.807,5.669l-7.358,4.254c-1.517,0.877-2.45,2.495-2.45,4.246
			c0,0.297,0.036,0.587,0.088,0.872c0.014,0.075,0.028,0.148,0.045,0.223c0.062,0.271,0.14,0.539,0.247,0.795
			c0.013,0.031,0.03,0.06,0.044,0.09c0.102,0.229,0.222,0.446,0.356,0.656c0.041,0.064,0.082,0.127,0.126,0.188
			c0.159,0.226,0.331,0.442,0.527,0.64c0.007,0.007,0.016,0.013,0.022,0.02c0.189,0.188,0.399,0.355,0.619,0.512
			c0.063,0.044,0.127,0.087,0.192,0.129c0.062,0.039,0.118,0.085,0.183,0.122l17.174,9.927l-17.174,9.927
			c-2.345,1.355-3.146,4.355-1.792,6.7c0.909,1.572,2.557,2.451,4.251,2.45c0.832,0,1.677-0.212,2.449-0.658l24.52-14.173
			c1.516-0.877,2.45-2.495,2.45-4.246s-0.935-3.369-2.45-4.246l-17.175-9.927l12.271-7.093c0.048-0.027,0.085-0.065,0.131-0.095
			c0.15-0.094,0.288-0.199,0.425-0.306c0.12-0.095,0.241-0.187,0.352-0.29c0.115-0.108,0.217-0.228,0.319-0.347
			c0.105-0.12,0.212-0.238,0.305-0.368c0.092-0.129,0.168-0.267,0.246-0.402c0.077-0.135,0.157-0.267,0.221-0.408
			c0.067-0.147,0.118-0.301,0.17-0.454c0.05-0.147,0.102-0.292,0.138-0.443c0.036-0.15,0.055-0.303,0.076-0.456
			c0.024-0.171,0.046-0.341,0.052-0.514c0.03-0.887-0.165-1.792-0.642-2.617C620.787,375.052,617.789,374.249,615.442,375.604z"/>
		</g>
		
		<g id="hksb-color">
			<path fill="#282828" d="M335.921,454.974l-22.07-12.757V428.04c0-2.708-2.195-4.904-4.904-4.904s-4.904,2.196-4.904,4.904V443
			c1.691,0.002,3.337,0.858,4.245,2.429c1.355,2.345,0.553,5.345-1.792,6.7l-2.454,1.418v11.349l7.358,4.253
			c1.516,0.877,2.45,2.495,2.45,4.246c0,1.742-0.925,3.352-2.429,4.232l24.499-14.161c1.516-0.877,2.45-2.495,2.45-4.246
			S337.437,455.851,335.921,454.974z M313.851,464.894v-11.349l9.817,5.675L313.851,464.894z"/>
				
			<path fill="#0000FF" d="M313.851,473.395c0-1.751-0.934-3.369-2.45-4.246l-7.358-4.253l-9.817-5.674l9.817-5.675l2.454-1.418
			c2.345-1.355,3.147-4.355,1.792-6.7c-0.908-1.57-2.554-2.427-4.245-2.429c-0.835-0.002-1.68,0.189-2.455,0.637l-19.597,11.328
			c2.34-1.338,5.328-0.538,6.68,1.801c1.355,2.345,0.553,5.345-1.792,6.7l-2.455,1.419l14.722,8.51l-9.815,5.673l2.453,1.418
			c2.345,1.355,3.147,4.355,1.792,6.7c-0.909,1.572-2.556,2.45-4.25,2.45c-0.833,0-1.677-0.212-2.45-0.658l-6.675-3.858
			c-0.849,1.469-0.93,3.328-0.02,4.902c0.909,1.572,2.556,2.451,4.25,2.45c0.833,0,1.677-0.212,2.45-0.658l24.52-14.173
			c0.007-0.004,0.014-0.01,0.021-0.014C312.926,476.746,313.851,475.137,313.851,473.395z"/>
				
			<path fill="#282828" d="M289.327,489.636c1.694,0,3.341-0.878,4.25-2.45c1.355-2.345,0.553-5.345-1.792-6.7l-2.453-1.418
			l-14.722-8.509l9.815-5.674l2.455-1.419c2.345-1.355,3.147-4.355,1.792-6.7c-1.352-2.339-4.34-3.139-6.68-1.801
			c-0.006,0.004-0.013,0.005-0.02,0.009l-12.257,7.086v-8.509c0-2.708-2.195-4.904-4.904-4.904s-4.904,2.196-4.904,4.904v14.18
			l2.45-1.416c1.517-0.876,3.387-0.877,4.905-0.002c1.518,0.876,2.453,2.495,2.453,4.248v8.497l10.487,6.062l6.675,3.858
			C287.65,489.424,288.494,489.636,289.327,489.636z"/>
				
			<path fill="#0000FF" d="M267.262,466.312c-1.518-0.875-3.388-0.874-4.905,0.002l-2.45,1.416l-9.808,5.67v-8.51
			c0-2.708-2.195-4.904-4.904-4.904s-4.904,2.196-4.904,4.904v45.354c0,2.708,2.195,4.904,4.904,4.904s4.904-2.196,4.904-4.904
			v-25.515l9.808-5.67v19.848c0,2.708,2.195,4.904,4.904,4.904s4.904-2.196,4.904-4.904v-19.85v-8.497
			C269.715,468.808,268.78,467.188,267.262,466.312z"/>
				
		</g>
		<g id="hack_stub-color">
			<path fill="#282828" d="M512.465,284.895l-22.069-12.757V257.96c0-2.708-2.196-4.904-4.904-4.904s-4.904,2.195-4.904,4.904
			v17.007c0-2.708,2.196-4.904,4.904-4.904s4.904,2.196,4.904,4.904v8.5l9.816,5.674l-9.816,5.673v8.499
			c0,1.752-0.936,3.372-2.453,4.247c-0.758,0.438-1.603,0.656-2.449,0.657c0.001,0,0.002,0,0.003,0
			c0.832,0,1.677-0.212,2.449-0.658l24.52-14.172c1.516-0.877,2.45-2.495,2.45-4.246S513.981,285.771,512.465,284.895z"/>
				
			<path fill="#0000FF" d="M490.396,303.312v-8.499v-11.347v-8.5c0-2.708-2.196-4.904-4.904-4.904s-4.904,2.196-4.904,4.904v19.848
			l-17.162-9.92c-0.05-0.028-0.103-0.042-0.152-0.068c0.782,0.416,1.468,1.037,1.944,1.86c1.354,2.345,0.553,5.345-1.792,6.7
			l-2.454,1.418l22.066,12.754c0.006,0.003,0.012,0.006,0.018,0.009c0.118,0.067,0.241,0.122,0.364,0.179
			c0.072,0.034,0.143,0.075,0.217,0.105c0.094,0.038,0.19,0.063,0.285,0.096c0.107,0.036,0.213,0.078,0.322,0.107
			c0.037,0.01,0.075,0.014,0.113,0.022c0.373,0.089,0.753,0.14,1.135,0.14c0.001,0,0.002,0,0.002,0
			c0.847-0.001,1.691-0.219,2.449-0.657C489.46,306.685,490.396,305.064,490.396,303.312z"/>
				
			<path fill="#282828" d="M465.217,286.687c-0.477-0.823-1.162-1.444-1.944-1.86c-0.153-0.082-0.311-0.147-0.471-0.213
			c-0.144-0.058-0.286-0.117-0.434-0.161c-0.148-0.044-0.299-0.072-0.45-0.103c-0.161-0.031-0.32-0.064-0.483-0.08
			c-0.15-0.015-0.301-0.012-0.453-0.013c-0.161,0-0.322-0.003-0.484,0.013c-0.152,0.015-0.303,0.047-0.454,0.076
			c-0.16,0.031-0.32,0.062-0.479,0.108c-0.14,0.042-0.274,0.099-0.412,0.154c-0.165,0.065-0.329,0.135-0.489,0.221
			c-0.048,0.025-0.1,0.038-0.146,0.065l-7.354,4.251v-8.508v-0.001v-0.001V260.79l17.161,9.92c0.772,0.446,1.617,0.658,2.449,0.658
			c1.694,0,3.342-0.878,4.251-2.45c1.354-2.345,0.553-5.344-1.792-6.7l-17.175-9.927l12.271-7.093
			c2.345-1.355,3.146-4.355,1.792-6.7c-1.355-2.344-4.354-3.147-6.7-1.792l-12.257,7.085v-8.51c0-2.708-2.196-4.904-4.904-4.904
			s-4.904,2.195-4.904,4.904v14.958c1.692,0.002,3.338,0.859,4.246,2.429c1.354,2.345,0.553,5.344-1.792,6.7l-2.454,1.418v11.349
			l7.358,4.253c2.345,1.355,3.146,4.355,1.792,6.7c-0.909,1.572-2.557,2.45-4.251,2.45c-0.832,0-1.677-0.212-2.449-0.658
			l-2.45-1.416v12.13c1.692,0.003,3.338,0.86,4.246,2.43c1.354,2.345,0.553,5.345-1.792,6.7l-2.454,1.419v11.348l7.358,4.253
			c1.516,0.877,2.45,2.495,2.45,4.246v-25.517l9.808-5.67l2.454-1.418C465.77,292.031,466.571,289.031,465.217,286.687z"/>
				
			<path fill="#0000FF" d="M448.713,321.745l-7.358-4.253l-9.816-5.674l9.816-5.674l2.454-1.419c2.345-1.355,3.146-4.355,1.792-6.7
			c-0.908-1.569-2.554-2.427-4.246-2.43c-0.834-0.001-1.68,0.19-2.454,0.638l-19.615,11.339c-1.516,0.877-2.45,2.495-2.45,4.246
			s0.934,3.369,2.45,4.246l17.175,9.927l-17.175,9.927c-2.345,1.355-3.147,4.355-1.792,6.7c0.909,1.572,2.556,2.451,4.25,2.45
			c0.833,0,1.677-0.212,2.45-0.658l24.52-14.173c0.063-0.037,0.12-0.083,0.183-0.122c0.065-0.042,0.129-0.085,0.192-0.129
			c0.221-0.156,0.431-0.324,0.62-0.513c0.007-0.006,0.015-0.012,0.021-0.019c0.196-0.197,0.368-0.414,0.527-0.64
			c0.044-0.062,0.085-0.124,0.126-0.188c0.134-0.21,0.255-0.428,0.356-0.656c0.014-0.03,0.031-0.059,0.044-0.09
			c0.107-0.256,0.185-0.523,0.247-0.796c0.018-0.073,0.031-0.146,0.045-0.221c0.052-0.286,0.088-0.576,0.088-0.873
			C451.163,324.24,450.229,322.622,448.713,321.745z"/>
				
			<path fill="#0000FF" d="M446.254,285.54c1.694,0,3.342-0.878,4.251-2.45c1.354-2.345,0.553-5.345-1.792-6.7l-7.358-4.253
			l-9.816-5.674l9.816-5.675l2.454-1.418c2.345-1.355,3.146-4.355,1.792-6.7c-0.908-1.57-2.554-2.427-4.246-2.429
			c-0.834-0.001-1.68,0.19-2.454,0.638l-19.615,11.339c-1.516,0.876-2.45,2.495-2.45,4.246s0.934,3.369,2.45,4.246l22.069,12.757
			l2.45,1.416C444.577,285.328,445.422,285.54,446.254,285.54z"/>
				
			<path fill="#282828" d="M411.93,274.968v8.499l9.817,5.675l-9.817,5.674v8.499c0,1.996-1.197,3.707-2.909,4.473
			c0.155-0.069,0.31-0.14,0.459-0.227L434,293.388c1.516-0.877,2.45-2.495,2.45-4.246s-0.934-3.369-2.45-4.246l-24.52-14.174
			c0,0-0.001,0-0.001-0.001C410.996,271.598,411.93,273.216,411.93,274.968z"/>
				
			<path fill="#0000FF" d="M408.911,307.841c0.038-0.016,0.072-0.037,0.11-0.054c1.712-0.766,2.909-2.477,2.909-4.473v-8.499
			v-11.349v-8.499c0-1.752-0.934-3.37-2.451-4.247c0,0-0.001-0.001-0.002-0.001c-0.256-0.147-0.524-0.261-0.797-0.358
			c-0.071-0.025-0.143-0.05-0.214-0.072c-0.268-0.082-0.538-0.149-0.813-0.185c-0.031-0.004-0.063-0.002-0.094-0.006
			c-0.25-0.027-0.5-0.031-0.751-0.021c-0.076,0.004-0.152,0.009-0.228,0.016c-0.275,0.024-0.548,0.064-0.817,0.137
			c-0.006,0.001-0.011,0.004-0.017,0.005c-0.261,0.071-0.516,0.171-0.765,0.285c-0.069,0.032-0.137,0.065-0.205,0.101
			c-0.067,0.035-0.137,0.062-0.204,0.101l-12.257,7.086v-8.51c0-2.708-2.195-4.904-4.904-4.904s-4.904,2.196-4.904,4.904v45.354
			c0,2.708,2.195,4.904,4.904,4.904s4.904-2.196,4.904-4.904v-25.515l9.808-5.67v19.848c0,0.094,0.022,0.182,0.028,0.273
			c0.01,0.18,0.024,0.357,0.053,0.532c0.026,0.156,0.064,0.308,0.104,0.459c0.041,0.153,0.085,0.306,0.14,0.452
			c0.063,0.168,0.139,0.327,0.219,0.485c0.074,0.146,0.146,0.294,0.234,0.431c0.043,0.068,0.088,0.135,0.135,0.2
			c0.151,0.213,0.314,0.416,0.496,0.602c0.012,0.013,0.022,0.027,0.035,0.04c0.2,0.199,0.421,0.376,0.653,0.538
			c0.054,0.038,0.11,0.072,0.166,0.108c0.204,0.131,0.418,0.248,0.641,0.348c0.042,0.02,0.081,0.042,0.124,0.061
			c0.252,0.104,0.518,0.184,0.791,0.245c0.072,0.017,0.144,0.029,0.217,0.042c0.281,0.051,0.566,0.087,0.861,0.087
			c0.003,0,0.005,0.001,0.008,0.001c0,0,0.001,0,0.002,0c0.3,0,0.59-0.037,0.875-0.089c0.068-0.012,0.135-0.024,0.203-0.039
			C408.383,308.028,408.654,307.948,408.911,307.841z"/>
		</g>
		<g id="hackstub-color">
			<path fill="#282828" d="M316.307,352.929l-22.07-12.759v-14.177c0-2.708-2.195-4.904-4.904-4.904s-4.904,2.196-4.904,4.904
			v16.912c0,0.031,0,0.063,0,0.095c0-2.708,2.195-4.904,4.904-4.904s4.904,2.196,4.904,4.904v8.498l9.817,5.676l-9.817,5.674v8.498
			c0,1.752-0.935,3.372-2.453,4.247c-0.379,0.219-0.78,0.383-1.192,0.493c0.413-0.11,0.815-0.274,1.195-0.494l24.52-14.172
			c1.516-0.877,2.45-2.495,2.45-4.246S317.822,353.805,316.307,352.929z"/>
				
			<path fill="#0000FF" d="M294.236,371.346v-8.498v-11.35V343c0-2.708-2.195-4.904-4.904-4.904s-4.904,2.196-4.904,4.904
			c0,0.028,0,0.056,0,0.084v19.764l-17.162-9.92c-0.05-0.029-0.104-0.043-0.154-0.069c0.783,0.416,1.469,1.037,1.946,1.861
			c1.355,2.345,0.553,5.345-1.792,6.7l-2.454,1.418l22.066,12.754c0.38,0.22,0.782,0.384,1.195,0.494
			c0.192,0.051,0.387,0.087,0.583,0.114c0.014,0.002,0.028,0.007,0.042,0.009c0.21,0.027,0.422,0.041,0.634,0.041
			c0.423,0,0.847-0.055,1.259-0.164c0.412-0.11,0.813-0.274,1.192-0.493C293.301,374.718,294.236,373.098,294.236,371.346z"/>
				
			<path fill="#282828" d="M269.058,354.72c-0.477-0.824-1.163-1.445-1.946-1.861c-0.152-0.081-0.31-0.146-0.469-0.211
			c-0.143-0.058-0.284-0.117-0.431-0.161c-0.152-0.045-0.306-0.074-0.461-0.104c-0.156-0.03-0.311-0.062-0.469-0.078
			c-0.159-0.016-0.317-0.013-0.478-0.013c-0.152,0-0.304-0.002-0.457,0.012c-0.163,0.016-0.324,0.05-0.486,0.082
			c-0.149,0.029-0.298,0.057-0.445,0.101c-0.149,0.044-0.294,0.104-0.441,0.164c-0.156,0.063-0.311,0.128-0.462,0.208
			c-0.051,0.027-0.105,0.041-0.155,0.07l-7.354,4.251v-8.508c0-2.708-2.195-4.904-4.904-4.904s-4.904,2.196-4.904,4.904v14.958
			c1.691,0.002,3.337,0.859,4.245,2.43c1.355,2.345,0.553,5.345-1.792,6.7l-2.454,1.418v11.349l7.358,4.253
			c1.516,0.877,2.45,2.495,2.45,4.246v-25.517l9.808-5.67l2.454-1.418C269.611,360.064,270.414,357.064,269.058,354.72z"/>
				
			<path fill="#0000FF" d="M228.031,409.609l-6.676-3.859c-0.848,1.469-0.929,3.328-0.02,4.901c0.909,1.572,2.556,2.451,4.25,2.45
			c0.833,0,1.677-0.212,2.45-0.658l4.855-2.807c-0.735,0.412-1.566,0.631-2.41,0.631
			C229.648,410.268,228.804,410.056,228.031,409.609z"/>
				
			<path fill="#0000FF" d="M252.555,389.778l-7.358-4.253l-9.817-5.674l9.817-5.675l2.454-1.418c2.345-1.355,3.147-4.355,1.792-6.7
			c-0.908-1.57-2.554-2.428-4.245-2.43c-0.835-0.001-1.68,0.19-2.455,0.638l-19.613,11.338c2.342-1.352,5.343-0.552,6.697,1.793
			c1.355,2.345,0.553,5.345-1.792,6.7l-2.454,1.418l14.72,8.509l-9.816,5.674l2.455,1.419c2.345,1.355,3.147,4.355,1.792,6.7
			c-0.452,0.781-1.086,1.391-1.818,1.807l19.642-11.354c0.064-0.037,0.121-0.083,0.183-0.122c0.065-0.042,0.129-0.085,0.192-0.129
			c0.222-0.157,0.433-0.326,0.624-0.515c0.006-0.006,0.012-0.011,0.018-0.016c0.197-0.198,0.37-0.415,0.529-0.642
			c0.042-0.061,0.083-0.123,0.123-0.186c0.135-0.211,0.257-0.43,0.358-0.66c0.013-0.029,0.031-0.058,0.043-0.087
			c0.107-0.257,0.185-0.524,0.247-0.797c0.017-0.073,0.031-0.147,0.044-0.222c0.052-0.285,0.088-0.575,0.088-0.872
			C255.004,392.273,254.071,390.655,252.555,389.778z"/>
				
			<path fill="#282828" d="M234.731,407.817c1.355-2.345,0.553-5.345-1.792-6.7l-2.455-1.419l-14.72-8.508l9.816-5.675l2.454-1.418
			c2.345-1.355,3.147-4.355,1.792-6.7c-1.354-2.345-4.355-3.145-6.697-1.793c-0.001,0-0.002,0.001-0.002,0.001l-12.258,7.086v-8.51
			c0-2.708-2.195-4.904-4.904-4.904s-4.904,2.196-4.904,4.904v14.958c1.691,0.003,3.337,0.859,4.245,2.43
			c1.355,2.345,0.553,5.345-1.792,6.7l-2.454,1.418v11.349l7.358,4.253c1.655,0.957,2.521,2.733,2.422,4.52
			c0.005-0.092,0.027-0.18,0.027-0.273v-19.846l10.486,6.061l6.676,3.859c0.773,0.446,1.617,0.658,2.45,0.658
			c0.843,0,1.675-0.219,2.41-0.631c0.007-0.004,0.015-0.009,0.022-0.013C233.645,409.208,234.279,408.599,234.731,407.817z"/>
				
			<path fill="#0000FF" d="M208.419,415.289l-7.358-4.253l-9.817-5.674l9.817-5.675l2.454-1.418c2.345-1.355,3.147-4.355,1.792-6.7
			c-0.908-1.57-2.554-2.427-4.245-2.43c-0.835-0.001-1.68,0.19-2.455,0.638l-19.615,11.339c-1.516,0.877-2.45,2.495-2.45,4.246
			s0.934,3.369,2.45,4.246l24.52,14.173c0.149,0.086,0.304,0.156,0.458,0.226c0.038,0.017,0.074,0.039,0.112,0.055
			c0.263,0.11,0.533,0.188,0.804,0.25c0.067,0.015,0.135,0.027,0.203,0.039c0.29,0.053,0.582,0.089,0.873,0.089
			c0.001,0,0.002,0,0.003,0c0.003,0,0.006-0.001,0.009-0.001c0.289-0.001,0.575-0.035,0.857-0.086
			c0.075-0.014,0.15-0.027,0.224-0.044c0.268-0.062,0.531-0.139,0.785-0.244c0.045-0.019,0.088-0.044,0.133-0.063
			c0.218-0.099,0.428-0.214,0.631-0.343c0.057-0.037,0.114-0.072,0.17-0.111c0.229-0.16,0.449-0.336,0.651-0.537
			c0.013-0.013,0.023-0.028,0.037-0.041c0.179-0.184,0.342-0.386,0.495-0.6c0.046-0.065,0.091-0.133,0.135-0.201
			c0.039-0.061,0.083-0.115,0.12-0.179c0.047-0.081,0.072-0.169,0.113-0.252c0.081-0.16,0.157-0.32,0.219-0.485
			c0.056-0.149,0.1-0.3,0.14-0.452c0.041-0.152,0.079-0.306,0.104-0.459c0.029-0.178,0.043-0.354,0.054-0.532
			C210.94,418.022,210.074,416.246,208.419,415.289z"/>
				
			<path fill="#282828" d="M193.707,423.795l-24.52-14.174c0,0-0.001,0-0.001-0.001c1.517,0.877,2.451,2.495,2.451,4.247v8.499
			l9.817,5.675l-9.817,5.674v8.499c0,1.996-1.197,3.707-2.909,4.473c0.155-0.069,0.31-0.14,0.459-0.227l24.52-14.173
			c1.516-0.877,2.45-2.495,2.45-4.246S195.223,424.672,193.707,423.795z"/>
				
			<path fill="#0000FF" d="M171.637,442.214v-8.499v-11.349v-8.499c0-1.752-0.934-3.37-2.451-4.247c0,0-0.001-0.001-0.002-0.001
			c-0.256-0.147-0.524-0.261-0.797-0.358c-0.071-0.025-0.142-0.05-0.214-0.072c-0.267-0.082-0.538-0.149-0.812-0.185
			c-0.032-0.004-0.063-0.002-0.095-0.006c-0.25-0.027-0.5-0.031-0.75-0.02c-0.076,0.003-0.152,0.008-0.229,0.015
			c-0.275,0.024-0.548,0.064-0.816,0.136c-0.006,0.002-0.012,0.005-0.018,0.006c-0.261,0.071-0.515,0.171-0.764,0.285
			c-0.069,0.031-0.137,0.065-0.205,0.101c-0.067,0.035-0.138,0.062-0.204,0.101l-12.257,7.086v-8.51
			c0-2.708-2.195-4.904-4.904-4.904s-4.904,2.196-4.904,4.904v45.354c0,2.708,2.195,4.904,4.904,4.904s4.904-2.196,4.904-4.904
			v-25.515l9.808-5.67v19.848c0,0.094,0.022,0.182,0.028,0.273c0.01,0.18,0.024,0.358,0.053,0.532
			c0.026,0.156,0.064,0.308,0.104,0.459c0.041,0.153,0.085,0.306,0.14,0.452c0.063,0.168,0.139,0.327,0.219,0.485
			c0.074,0.146,0.146,0.294,0.234,0.431c0.043,0.068,0.088,0.135,0.135,0.2c0.151,0.213,0.314,0.416,0.496,0.602
			c0.012,0.013,0.022,0.027,0.035,0.04c0.2,0.198,0.421,0.376,0.653,0.538c0.054,0.038,0.11,0.072,0.166,0.108
			c0.204,0.131,0.418,0.248,0.641,0.348c0.042,0.02,0.081,0.042,0.124,0.06c0.252,0.105,0.518,0.185,0.791,0.246
			c0.072,0.017,0.144,0.029,0.217,0.042c0.281,0.051,0.566,0.087,0.861,0.087c0.003,0,0.005,0.001,0.008,0.001c0,0,0.001,0,0.002,0
			c0.3,0,0.59-0.037,0.875-0.089c0.068-0.012,0.135-0.024,0.203-0.039c0.277-0.062,0.548-0.143,0.805-0.25
			c0.038-0.016,0.072-0.037,0.11-0.054C170.44,445.921,171.637,444.21,171.637,442.214z"/>
		</g>
	</g>
</g>

</svg>
