<?xml version="1.0" encoding="utf-8"?>
<!-- Hackstub logo v1 - 2015 -->
	 
<!DOCTYPE svg PUBLIC "-//W3C//DTD SVG 1.1//EN" "http://www.w3.org/Graphics/SVG/1.1/DTD/svg11.dtd">
<svg version="1.1" id="hackerspace_strasbourg" xmlns="http://www.w3.org/2000/svg" xmlns:xlink="http://www.w3.org/1999/xlink" x="0px" y="0px"
	 width="833.669px" height="850.4px" viewBox="0 0 833.669 850.4" enable-background="new 0 0 833.669 850.4" xml:space="preserve">

<g id="hackerspace_strasbourg" fill="none" stroke-width="9.8079" stroke-linecap="round" stroke-linejoin="round" stroke-miterlimit="3">
	<g id="strasbourg">
		<polyline id="g" stroke="#0000FF" points="462.467,449.298 437.948,435.127 462.467,420.951 462.467,466.307 447.755,457.801"/>
		<polyline id="r" stroke="#282828" points="413.434,477.646 413.434,449.3 423.241,443.63 433.052,449.3"/>
		<polyline id="u" stroke="#0000FF" points="388.913,463.473 413.434,477.646 413.434,449.301"/>
		<polygon  id="o" stroke="#282828" points="379.108,469.141 379.108,486.148 388.913,491.816 398.722,486.147 398.721,469.141 388.913,463.473"/>
		<polyline id="b" stroke="#0000FF" points="349.681,486.146 374.201,500.32 349.681,514.493 349.681,469.138"/>
		<polyline id="s" stroke="#282828" points="344.779,488.981 325.162,500.321 349.681,514.493 325.162,528.667"/>
		<polygon  id="a" stroke="#0000FF" points="300.642,542.839 300.642,514.492 325.162,528.667"/>
		<polyline id="r" stroke="#282828" points="276.11,557.019 276.11,528.672 285.918,523.003 295.727,528.672"/>
		<g id="t">
			<line stroke="#0000FF" x1="256.506" y1="522.994" x2="256.506" y2="568.35"/>
			<line stroke="#0000FF" x1="256.506" y1="540.001" x2="271.218" y2="531.499"/>
		</g>
		<polyline id="s" stroke="#282828" points="251.602,542.838 231.987,554.178 256.506,568.35 231.987,582.523"/>
	</g>
	
	<g id="hackerspace">
		<polygon  id="e" stroke="#0000FF" points="379.103,384.101 403.625,369.93 403.625,398.275"/>
		<polyline id="c" stroke="#282828" points="384.006,409.61 359.49,395.438 379.103,384.101"/>
		<polygon  id="a" stroke="#0000FF" points="344.778,432.288 344.778,403.94 369.297,418.115"/>
		<polyline id="p" stroke="#282828" points="320.257,446.461 344.778,432.288 320.257,418.114 320.257,463.469"/>
		<polyline id="s" stroke="#0000FF" points="315.353,420.949 295.738,432.291 320.257,446.461 295.738,460.635"/>
		<polyline id="r" stroke="#282828" points="271.218,474.811 271.218,446.466 281.026,440.797 290.834,446.466"/>
		<polygon  id="e" stroke="#0000FF" points="246.698,460.635 271.218,446.466 271.218,474.811"/>
		<g id="k">
			<line stroke="#282828" x1="227.082" y1="500.319" x2="227.082" y2="454.965"/>
			<polyline stroke="#282828" points="	251.603,486.146 227.082,471.974 246.698,460.635"/>
		</g>
		<polyline id="c" stroke="#0000FF" points="227.082,500.319 202.562,486.147 222.178,474.809"/>
		<polygon  id="a" stroke="#282828" points="187.85,522.995 187.85,494.647 212.371,508.821"/>
		<g id="h">
			<line stroke="#0000FF" x1="168.235" y1="488.981" x2="168.235" y2="534.335"/>
			<polyline stroke="#0000FF" points="	168.235,505.987 187.85,494.649 187.85,522.995"/>
		</g>
	</g>
</g>

<g id="hackerspace" fill="none" stroke-width="9.8079" stroke-linecap="round" stroke-linejoin="round" stroke-miterlimit="3">
	<g id="strasbourg">
		<polyline id="g" stroke="#282828" points="565.454,162.999 540.932,148.827 565.454,134.651 565.454,180.006 550.742,171.502"/>
		<polyline id="r" stroke="#282828" points="516.415,191.344 516.415,162.999 526.221,157.33 536.032,162.999"/>
		<polyline id="u" stroke="#282828" points="477.182,185.676 501.704,199.85 501.704,171.502"/>
		<polygon  id="o" stroke="#282828" points="452.664,199.851 452.664,216.857 462.47,222.525 472.281,216.856 472.281,199.851 462.47,194.183"/>
		<polyline id="b" stroke="#282828" points="423.241,216.856 447.76,231.029 423.241,245.203 423.241,199.847"/>
		<polyline id="s" stroke="#282828" points="403.623,228.195 384.008,239.536 408.529,253.708 384.008,267.88"/>
		<polygon  id="a" stroke="#282828" points="344.779,290.558 344.779,262.209 369.297,276.384"/>
		<polyline id="r" stroke="#282828" points="310.45,310.398 310.45,282.053 320.257,276.384 330.068,282.053"/>
		<g id="t">
			<line stroke="#282828" x1="281.025" y1="282.052" x2="281.025" y2="327.406"/>
			<line stroke="#282828" x1="281.025" y1="299.06" x2="295.737" y2="290.555"/>
		</g>
		<polyline id="s" stroke="#282828" points="261.409,310.398 241.794,321.738 266.312,335.911 241.794,350.084"/>
	</g>
	
	<g id="hackerspace">
		<polygon  id="e" stroke="#282828" points="482.087,97.801 506.61,83.63 506.61,111.977"/>
		<polyline id="c" stroke="#282828" points="241.794,265.045 217.274,250.873 236.889,239.534"/>
		<polygon  id="a" stroke="#282828" points="433.047,154.495 433.047,126.148 457.569,140.321"/>
		<polyline id="p" stroke="#282828" points="393.819,177.17 418.337,162.997 393.819,148.823 393.819,194.179"/>
		<polyline id="s" stroke="#282828" points="374.2,160.165 354.585,171.502 379.103,185.675 354.585,199.849"/>
		<polyline id="r" stroke="#282828" points="330.064,214.022 330.064,185.674 339.874,180.005 349.681,185.674"/>
		<polygon  id="e" stroke="#282828" points="290.834,208.352 315.353,194.18 315.353,222.526"/>
		<g id="k">
			<line stroke="#282828" x1="256.505" y1="256.542" x2="256.505" y2="211.189"/>
			<polyline stroke="#282828" points="	281.025,242.37 256.505,228.196 276.12,216.857"/>
		</g>
		<polyline id="c" stroke="#282828" points="472.279,131.816 447.76,117.645 467.375,106.305"/>
		<polygon  id="a" stroke="#282828" points="202.562,287.721 202.562,259.375 227.083,273.548"/>
		<g id="h">
		<line stroke="#282828" x1="168.234" y1="262.211" x2="168.234" y2="307.564"/>
		<polyline stroke="#282828" points="	168.234,279.217 187.849,267.879 187.849,296.227"/>
		</g>
	</g>
</g>
</svg>
		