<?xml version="1.0" encoding="utf-8"?>
<!-- Hackstub logo v1 - 2015 -->
<!DOCTYPE svg PUBLIC "-//W3C//DTD SVG 1.1//EN" "http://www.w3.org/Graphics/SVG/1.1/DTD/svg11.dtd">
<svg version="1.1" xmlns="http://www.w3.org/2000/svg" xmlns:xlink="http://www.w3.org/1999/xlink" x="0px" y="0px"
	 width="833.669px" height="850.4px" viewBox="0 0 833.669 850.4" enable-background="new 0 0 833.669 850.4" xml:space="preserve">
		 
<g id="LOGO-COLOR-TRACÉ" fill="none" stroke-width="9.8079" stroke-linecap="round" stroke-linejoin="round" stroke-miterlimit="3">
	<g id="hs">
		<polyline id="b" stroke="#282828" points="362.891,527.25 387.412,541.424 362.891,555.598 362.891,511.66"/>
		<polyline id="s" stroke="#0000FF" points="382.506,515.914 362.891,527.253 387.411,541.426 362.891,555.599"/>
		<g id="k" stroke="#282828">
		<line x1="362.891" y1="555.597" x2="362.891" y2="511.66"/>
		<polyline points="	387.411,541.424 362.891,527.251 382.506,515.912"/>
		</g>
		<g id="h" stroke="#0000FF">
		<line x1="343.275" y1="522.999" x2="343.275" y2="566.937"/>
		<polyline points="	343.275,538.592 362.891,527.253 362.891,555.6"/>
		</g>
	</g>
	
	<g id="hk_sb">
		<polyline id="b" stroke="#282828" points="642.416,365.676 666.936,379.851 642.416,394.022 642.416,354.337"/>
		<g id="k" stroke="#0000FF">
		<line x1="617.896" y1="379.85" x2="617.896" y2="334.496"/>
		<polyline points="	642.416,365.678 617.896,351.505 637.512,340.166"/>
		</g>
		<g id="h" stroke="#0000FF">
		<line x1="578.666" y1="357.172" x2="578.666" y2="402.525"/>
		<polyline points="	578.666,374.181 598.281,362.842 598.281,391.188"/>
		</g>
		<polyline id="s" stroke="#282828" points="617.896,379.85 598.281,391.188 622.801,405.361 598.281,419.534"/>
	</g>
	
	<g id="hksb">
		<polyline id="b" stroke="#282828" points="308.947,445.046 333.467,459.22 308.947,473.393 308.947,428.04"/>
		<polyline id="s" stroke="#0000FF" points="304.043,447.883 284.428,459.222 308.947,473.395 284.428,487.567"/>
		<g id="k" stroke="#282828">
		<line x1="264.812" y1="498.904" x2="264.812" y2="453.551"/>
		<polyline points="	289.332,484.731 264.812,470.559 284.427,459.22"/>
		</g>
		<g id="h" stroke="#0000FF">
		<line x1="245.196" y1="464.891" x2="245.196" y2="510.244"/>
		<polyline points="	245.196,481.899 264.812,470.561 264.812,498.907"/>
		</g>
	</g>
	
	<g id="hack_stub">
		<polyline id="b" stroke="#282828" points="485.491,274.966 510.011,289.141 485.491,303.312 485.491,257.96"/>
		<polyline id="u" stroke="#0000FF" points="460.971,289.141 485.491,303.312 485.491,274.967"/>
		<g id="t" stroke="#282828">
		<line x1="446.259" y1="280.638" x2="446.259" y2="325.991"/>
		<line x1="446.259" y1="297.645" x2="460.971" y2="289.141"/>
		</g>
		<polyline id="s" stroke="#0000FF" points="441.354,300.479 421.739,311.818 446.259,325.991 421.739,340.164"/>
		<g id="k" stroke="#282828">
		<line x1="446.259" y1="280.636" x2="446.259" y2="235.282"/>
		<polyline points="	470.778,266.464 446.259,252.291 465.874,240.952"/>
		</g>
		<polyline id="c" stroke="#0000FF" points="446.259,280.636 421.739,266.463 441.354,255.124"/>
		<polygon id="a" stroke="#282828" points="407.026,303.314 407.026,274.968 431.546,289.142"/>
		<g id="h" stroke="#0000FF">
		<line x1="387.411" y1="269.298" x2="387.411" y2="314.651"/>
		<polyline points="	387.411,286.307 407.026,274.968 407.026,303.314"/>
		</g>
	</g>
	
	<g id="hackstub_1_">
		<polyline id="b" stroke="#282828" points="289.333,342.999 313.852,357.174 289.333,371.346 289.333,325.993"/>
		<polyline id="u" stroke="#0000FF" points="264.812,357.174 289.333,371.346 289.333,343"/>
		<g id="t" stroke="#282828">
		<line x1="250.101" y1="348.671" x2="250.101" y2="394.024"/>
		<line x1="250.101" y1="365.678" x2="264.812" y2="357.174"/>
		</g>
		<polyline id="s" stroke="#0000FF" points="245.196,368.513 225.581,379.852 250.101,394.024 225.581,408.197"/>
		<g id="k" stroke="#282828">
		<line x1="205.965" y1="419.535" x2="205.965" y2="374.182"/>
		<polyline points="	230.485,405.363 205.965,391.19 225.581,379.852"/>
		</g>
		<polyline id="c" stroke="#0000FF" points="205.965,419.535 181.446,405.362 201.061,394.023"/>
		<polygon id="a" stroke="#282828" points="166.733,442.214 166.733,413.867 191.253,428.041"/>
		<g id="h" stroke="#0000FF">
		<line x1="147.118" y1="408.197" x2="147.118" y2="453.551"/>
		<polyline points="	147.118,425.206 166.733,413.867 166.733,442.214"/>
		</g>
	</g>
</g>

</svg>
