<?xml version="1.0" encoding="utf-8"?>
<!-- Hackstub logo v1 - 2015 -->
	 
<!DOCTYPE svg PUBLIC "-//W3C//DTD SVG 1.1//EN" "http://www.w3.org/Graphics/SVG/1.1/DTD/svg11.dtd">
<svg version="1.1" xmlns="http://www.w3.org/2000/svg" xmlns:xlink="http://www.w3.org/1999/xlink" x="305.344px" y="479.298px"
	 width="120px" height="120px" viewBox="305.344 479.298 120 120" enable-background="new 0 0 833.669 850.4" xml:space="preserve">

<g id="PRINT">
	<g id="LOGO-B-PRINT" fill="#282828">
		<g id="hs-w">
			<path d="M389.866,537.178l-17.175-9.928l12.269-7.092c2.345-1.355,3.147-4.355,1.792-6.7
			c-1.355-2.345-4.357-3.146-6.7-1.792l-12.257,7.086v-7.092c0-2.708-2.195-4.904-4.904-4.904s-4.904,2.196-4.904,4.904v12.761
			l-9.808,5.67v-7.092c0-2.708-2.195-4.904-4.904-4.904s-4.904,2.196-4.904,4.904v43.938c0,2.708,2.195,4.904,4.904,4.904
			s4.904-2.196,4.904-4.904V541.42l9.808-5.67v19.848c0,1.753,0.935,3.372,2.453,4.248c0.758,0.438,1.604,0.656,2.451,0.656
			c0.848,0,1.695-0.22,2.454-0.658l24.521-14.174c1.516-0.877,2.45-2.495,2.45-4.246S391.382,538.055,389.866,537.178z
			 M367.795,547.099v-11.35l9.818,5.675L367.795,547.099z"/>
		</g>
	</g>
</g>

</svg>
