<?xml version="1.0" encoding="utf-8"?>
<!-- Hackstub logo v1 - 2015 -->
	 
<!DOCTYPE svg PUBLIC "-//W3C//DTD SVG 1.1//EN" "http://www.w3.org/Graphics/SVG/1.1/DTD/svg11.dtd">
<svg version="1.1" xmlns="http://www.w3.org/2000/svg" xmlns:xlink="http://www.w3.org/1999/xlink" x="0px" y="0px"
	 width="833.669px" height="850.4px" viewBox="0 0 833.669 850.4" enable-background="new 0 0 833.669 850.4" xml:space="preserve">

<g id="PRINT">
	<g id="LOGO-B-PRINT" fill="#282828">
		<g id="hs-w">
			<path d="M389.866,537.178l-17.175-9.928l12.269-7.092c2.345-1.355,3.147-4.355,1.792-6.7
			c-1.355-2.345-4.357-3.146-6.7-1.792l-12.257,7.086v-7.092c0-2.708-2.195-4.904-4.904-4.904s-4.904,2.196-4.904,4.904v12.761
			l-9.808,5.67v-7.092c0-2.708-2.195-4.904-4.904-4.904s-4.904,2.196-4.904,4.904v43.938c0,2.708,2.195,4.904,4.904,4.904
			s4.904-2.196,4.904-4.904V541.42l9.808-5.67v19.848c0,1.753,0.935,3.372,2.453,4.248c0.758,0.438,1.604,0.656,2.451,0.656
			c0.848,0,1.695-0.22,2.454-0.658l24.521-14.174c1.516-0.877,2.45-2.495,2.45-4.246S391.382,538.055,389.866,537.178z
			 M367.795,547.099v-11.35l9.818,5.675L367.795,547.099z"/>
		</g>
		
		<g id="hk_sb-w">
			<path d="M669.39,375.604l-22.069-12.757v-8.511c0-2.708-2.196-4.904-4.904-4.904s-4.904,2.196-4.904,4.904v2.842
			l-9.816-5.674l12.271-7.093c2.345-1.355,3.146-4.355,1.792-6.7c-1.354-2.344-4.354-3.146-6.7-1.792l-12.257,7.085v-8.509
			c0-2.708-2.196-4.904-4.904-4.904s-4.904,2.196-4.904,4.904v42.524l-9.807,5.669v-19.848c0-1.753-0.936-3.372-2.453-4.248
			s-3.388-0.874-4.905,0.002l-12.257,7.085v-8.509c0-2.708-2.196-4.904-4.904-4.904s-4.904,2.196-4.904,4.904v45.354
			c0,2.708,2.196,4.904,4.904,4.904s4.904-2.196,4.904-4.904V377.01l9.807-5.669v19.848c0,0.297,0.036,0.587,0.088,0.872
			c0.014,0.075,0.028,0.148,0.045,0.223c0.062,0.271,0.14,0.539,0.247,0.795c0.013,0.031,0.03,0.06,0.044,0.09
			c0.102,0.229,0.222,0.446,0.356,0.656c0.041,0.064,0.082,0.127,0.126,0.188c0.159,0.226,0.331,0.442,0.527,0.64
			c0.007,0.007,0.015,0.013,0.022,0.02c0.189,0.188,0.399,0.355,0.619,0.512c0.063,0.045,0.127,0.087,0.192,0.129
			c0.062,0.039,0.118,0.085,0.183,0.122l17.175,9.927l-17.175,9.927c-2.345,1.355-3.146,4.355-1.792,6.7
			c0.909,1.572,2.557,2.45,4.251,2.45c0.832,0,1.677-0.212,2.449-0.658l24.52-14.173c1.516-0.877,2.45-2.495,2.45-4.246
			s-0.935-3.369-2.45-4.246l-17.175-9.927l12.271-7.093c1.517-0.877,2.45-2.495,2.45-4.246v-19.846l14.711,8.504v25.515
			c0,1.752,0.936,3.372,2.453,4.247c0.759,0.438,1.604,0.657,2.451,0.657c0.848,0,1.695-0.22,2.454-0.658l24.52-14.172
			c1.516-0.877,2.45-2.495,2.45-4.246S670.905,376.481,669.39,375.604z M647.32,385.524v-11.348l9.815,5.674L647.32,385.524z"/>
		</g>
		
		<g id="hksb-w">
			<path d="M335.921,454.974l-22.07-12.758V428.04c0-2.708-2.195-4.904-4.904-4.904s-4.904,2.196-4.904,4.904V443
			c-0.834-0.002-1.68,0.189-2.455,0.637l-31.874,18.425v-8.511c0-2.708-2.195-4.904-4.904-4.904s-4.904,2.196-4.904,4.904v14.18
			l-9.808,5.67v-8.51c0-2.708-2.195-4.904-4.904-4.904s-4.904,2.196-4.904,4.904v45.354c0,2.708,2.195,4.904,4.904,4.904
			s4.904-2.196,4.904-4.904v-25.515l9.808-5.669v19.844c0,2.708,2.195,4.904,4.904,4.904s4.904-2.196,4.904-4.904v-19.847
			l10.487,6.062c-0.849,1.469-0.93,3.328-0.02,4.902c0.909,1.572,2.556,2.451,4.25,2.45c0.833,0,1.677-0.212,2.45-0.658
			l49.039-28.348c1.516-0.877,2.45-2.495,2.45-4.246S337.437,455.851,335.921,454.974z M289.333,479.067l-14.719-8.508l9.816-5.675
			l14.719,8.509L289.333,479.067z M304.043,453.547v11.347l-9.814-5.673L304.043,453.547z M313.851,464.895v-11.35l9.817,5.675
			L313.851,464.895z"/>
		</g>
		
		<g id="hack_stub-w">
			<path d="M512.465,284.896l-22.069-12.759V257.96c0-2.708-2.196-4.904-4.904-4.904s-4.904,2.195-4.904,4.904
			v36.854l-17.162-9.919c-1.52-0.877-3.391-0.877-4.908,0l-7.354,4.251V260.79l17.161,9.92c0.772,0.446,1.617,0.658,2.449,0.658
			c1.694,0,3.342-0.878,4.251-2.45c1.354-2.345,0.553-5.344-1.792-6.7l-17.175-9.927l12.271-7.093
			c2.345-1.355,3.146-4.355,1.792-6.7c-1.355-2.344-4.354-3.147-6.7-1.792l-12.257,7.085v-8.51c0-2.708-2.196-4.904-4.904-4.904
			s-4.904,2.195-4.904,4.904v14.958c-0.834-0.001-1.68,0.19-2.454,0.638l-19.615,11.339c-1.516,0.876-2.45,2.495-2.45,4.246
			s0.934,3.369,2.45,4.246l22.069,12.757v12.13c-0.834-0.001-1.68,0.19-2.454,0.638l-19.615,11.339
			c-1.516,0.877-2.45,2.495-2.45,4.246s0.934,3.369,2.45,4.246l17.175,9.927l-17.175,9.927c-2.345,1.355-3.147,4.355-1.792,6.7
			c0.909,1.572,2.556,2.451,4.25,2.45c0.833,0,1.677-0.212,2.45-0.658l24.52-14.173c0.063-0.037,0.12-0.083,0.183-0.122
			c0.065-0.042,0.129-0.084,0.192-0.129c0.221-0.156,0.431-0.324,0.62-0.513c0.007-0.006,0.015-0.012,0.021-0.019
			c0.196-0.197,0.368-0.414,0.527-0.64c0.044-0.062,0.085-0.124,0.126-0.188c0.134-0.21,0.255-0.428,0.356-0.656
			c0.014-0.03,0.031-0.059,0.044-0.09c0.107-0.256,0.185-0.523,0.247-0.796c0.018-0.073,0.031-0.146,0.045-0.221
			c0.052-0.286,0.088-0.576,0.088-0.873v-25.517l9.808-5.67l22.066,12.754c0.149,0.086,0.305,0.157,0.461,0.227
			c0.037,0.017,0.07,0.038,0.108,0.054c0.259,0.107,0.525,0.186,0.796,0.247c0.072,0.017,0.146,0.03,0.219,0.043
			c0.288,0.052,0.578,0.088,0.87,0.088s0.582-0.036,0.871-0.088c0.073-0.013,0.145-0.026,0.217-0.043
			c0.271-0.062,0.539-0.14,0.799-0.248c0.035-0.015,0.067-0.035,0.104-0.051c0.156-0.069,0.313-0.142,0.464-0.229l24.52-14.172
			c1.516-0.877,2.45-2.495,2.45-4.246S513.981,285.771,512.465,284.896z M431.538,266.463l9.816-5.675v11.349L431.538,266.463z
			 M431.538,311.818l9.816-5.674v11.348L431.538,311.818z M490.396,294.814v-11.35l9.816,5.676L490.396,294.814z"/>
			
			<path d="M436.45,289.142c0-1.751-0.934-3.369-2.45-4.246l-24.446-14.131c-0.731-0.44-1.587-0.696-2.501-0.701
			c-0.003-0.001-0.003-0.001-0.003,0c-0.015,0-0.03,0-0.044,0c-0.002,0-0.003,0-0.003,0c-0.915,0.005-1.771,0.261-2.502,0.701
			l-12.184,7.043v-8.51c0-2.708-2.195-4.904-4.904-4.904s-4.904,2.196-4.904,4.904v45.354c0,2.708,2.195,4.904,4.904,4.904
			s4.904-2.196,4.904-4.904v-25.515l9.808-5.67v19.848c0,1.753,0.935,3.372,2.453,4.247c0.758,0.438,1.604,0.657,2.451,0.657
			c0.847,0,1.695-0.22,2.454-0.658L434,293.388C435.516,292.511,436.45,290.893,436.45,289.142z M411.93,294.815v-11.349
			l9.817,5.675L411.93,294.815z"/>
		</g>
		
		<g id="hackstub-w">
			<path d="M316.307,352.929l-22.07-12.759v-14.177c0-2.708-2.195-4.904-4.904-4.904s-4.904,2.196-4.904,4.904
			v36.854l-17.162-9.92c-1.519-0.877-3.39-0.877-4.908,0l-7.354,4.251v-8.508c0-2.708-2.195-4.904-4.904-4.904
			s-4.904,2.196-4.904,4.904v14.958c-0.835-0.001-1.68,0.19-2.455,0.638l-19.613,11.338c-0.001,0-0.002,0.001-0.002,0.001
			l-12.258,7.086v-8.51c0-2.708-2.195-4.904-4.904-4.904s-4.904,2.196-4.904,4.904v14.938c-0.002,0-0.003,0-0.005,0
			c-0.833,0-1.677,0.212-2.45,0.658l-19.615,11.339c-1.516,0.877-2.45,2.495-2.45,4.246s0.934,3.369,2.45,4.246l24.52,14.173
			c0.759,0.438,1.606,0.658,2.454,0.658c0.846,0,1.692-0.219,2.451-0.657c1.518-0.875,2.453-2.494,2.453-4.247v-19.846
			l10.486,6.061c-0.848,1.469-0.929,3.328-0.02,4.901c0.909,1.572,2.556,2.451,4.25,2.45c0.833,0,1.677-0.212,2.45-0.658
			l4.855-2.807c0.007-0.004,0.015-0.009,0.022-0.013l19.642-11.354c0.064-0.037,0.121-0.083,0.183-0.122
			c0.065-0.042,0.129-0.084,0.192-0.129c0.222-0.157,0.433-0.326,0.624-0.515c0.006-0.006,0.012-0.011,0.018-0.016
			c0.197-0.198,0.37-0.415,0.529-0.642c0.043-0.061,0.083-0.122,0.123-0.186c0.135-0.211,0.257-0.43,0.358-0.66
			c0.013-0.029,0.031-0.057,0.043-0.087c0.107-0.257,0.185-0.524,0.247-0.797c0.017-0.073,0.031-0.146,0.044-0.222
			c0.052-0.285,0.088-0.575,0.088-0.872v-25.517l9.808-5.67l22.066,12.754c0.149,0.086,0.305,0.157,0.46,0.227
			c0.037,0.017,0.071,0.038,0.108,0.054c0.259,0.107,0.526,0.186,0.796,0.247c0.073,0.017,0.146,0.03,0.219,0.043
			c0.288,0.053,0.579,0.088,0.87,0.088s0.582-0.035,0.87-0.088c0.074-0.013,0.146-0.026,0.219-0.043
			c0.27-0.062,0.537-0.14,0.796-0.247c0.038-0.016,0.071-0.037,0.108-0.054c0.156-0.069,0.311-0.141,0.46-0.227l24.52-14.172
			c1.516-0.877,2.45-2.495,2.45-4.246S317.822,353.805,316.307,352.929z M201.062,411.036l-9.817-5.674l9.817-5.675V411.036z
			 M245.197,374.177v11.349l-9.817-5.674L245.197,374.177z M230.485,399.698l-14.72-8.508l9.816-5.675l14.72,8.509L230.485,399.698
			z M294.236,362.848v-11.35l9.817,5.676L294.236,362.848z"/>
			
			<path d="M193.707,423.792l-24.52-14.174c-0.149-0.086-0.305-0.157-0.46-0.227
			c-0.037-0.017-0.071-0.038-0.109-0.054c-0.258-0.107-0.524-0.185-0.794-0.246c-0.074-0.018-0.149-0.031-0.225-0.045
			c-0.283-0.05-0.567-0.085-0.853-0.086c-0.005,0-0.009-0.001-0.014-0.001s-0.009,0.001-0.014,0.001
			c-0.286,0.001-0.57,0.036-0.853,0.086c-0.076,0.014-0.15,0.027-0.225,0.045c-0.27,0.062-0.536,0.139-0.794,0.246
			c-0.038,0.016-0.072,0.037-0.109,0.054c-0.155,0.069-0.311,0.141-0.46,0.227l-12.257,7.086v-8.507
			c0-2.708-2.195-4.904-4.904-4.904s-4.904,2.196-4.904,4.904v45.354c0,2.708,2.195,4.904,4.904,4.904s4.904-2.196,4.904-4.904
			v-25.518l9.808-5.67v19.848c0,0.094,0.022,0.182,0.028,0.273c0.01,0.179,0.024,0.354,0.053,0.532
			c0.026,0.156,0.064,0.308,0.104,0.459c0.041,0.152,0.084,0.303,0.14,0.452c0.063,0.168,0.139,0.327,0.219,0.485
			c0.042,0.083,0.066,0.171,0.114,0.252c0.037,0.063,0.082,0.118,0.12,0.179c0.043,0.068,0.088,0.135,0.135,0.2
			c0.152,0.216,0.316,0.418,0.496,0.602c0.012,0.013,0.022,0.027,0.035,0.04c0.203,0.201,0.423,0.378,0.653,0.538
			c0.054,0.038,0.11,0.072,0.166,0.108c0.206,0.132,0.419,0.249,0.641,0.348c0.042,0.02,0.081,0.042,0.124,0.061
			c0.256,0.105,0.521,0.184,0.791,0.245c0.072,0.017,0.144,0.029,0.217,0.042c0.284,0.052,0.571,0.087,0.861,0.087
			c0.003,0,0.005,0.001,0.008,0.001c0,0,0.001,0,0.002,0c0,0,0.001,0,0.002,0c0.291,0,0.583-0.036,0.873-0.089
			c0.068-0.012,0.135-0.024,0.203-0.039c0.271-0.062,0.542-0.14,0.805-0.25c0.038-0.016,0.072-0.037,0.11-0.054
			c0.155-0.069,0.31-0.14,0.459-0.227l24.52-14.173c1.516-0.877,2.45-2.495,2.45-4.246S195.223,424.669,193.707,423.792z
			 M171.637,433.712v-11.349l9.817,5.675L171.637,433.712z"/>
		</g>
	</g>
</g>

</svg>
