<?xml version="1.0" encoding="utf-8"?>
<!-- Hackstub logo v1 - 2015 -->
	 
<!DOCTYPE svg PUBLIC "-//W3C//DTD SVG 1.1//EN" "http://www.w3.org/Graphics/SVG/1.1/DTD/svg11.dtd">
<svg version="1.1" xmlns="http://www.w3.org/2000/svg" xmlns:xlink="http://www.w3.org/1999/xlink" x="211.834px" y="396.95px"
	 width="150px" height="150px" viewBox="211.834 396.95 150 150" enable-background="new 0 0 833.669 850.4" xml:space="preserve">

<g id="PRINT">
	<g id="LOGO-B-PRINT" fill="#282828">
		<g id="hksb-w">
			<path d="M335.921,454.974l-22.07-12.758V428.04c0-2.708-2.195-4.904-4.904-4.904s-4.904,2.196-4.904,4.904V443
			c-0.834-0.002-1.68,0.189-2.455,0.637l-31.874,18.425v-8.511c0-2.708-2.195-4.904-4.904-4.904s-4.904,2.196-4.904,4.904v14.18
			l-9.808,5.67v-8.51c0-2.708-2.195-4.904-4.904-4.904s-4.904,2.196-4.904,4.904v45.354c0,2.708,2.195,4.904,4.904,4.904
			s4.904-2.196,4.904-4.904v-25.515l9.808-5.669v19.844c0,2.708,2.195,4.904,4.904,4.904s4.904-2.196,4.904-4.904v-19.847
			l10.487,6.062c-0.849,1.469-0.93,3.328-0.02,4.902c0.909,1.572,2.556,2.451,4.25,2.45c0.833,0,1.677-0.212,2.45-0.658
			l49.039-28.348c1.516-0.877,2.45-2.495,2.45-4.246S337.437,455.851,335.921,454.974z M289.333,479.067l-14.719-8.508l9.816-5.675
			l14.719,8.509L289.333,479.067z M304.043,453.547v11.347l-9.814-5.673L304.043,453.547z M313.851,464.895v-11.35l9.817,5.675
			L313.851,464.895z"/>
		</g>
	</g>
</g>

</svg>
