<?xml version="1.0" encoding="utf-8"?>
<!-- Hackstub logo v1 - 2015 -->
	 
<!DOCTYPE svg PUBLIC "-//W3C//DTD SVG 1.1//EN" "http://www.w3.org/Graphics/SVG/1.1/DTD/svg11.dtd">
<svg version="1.1" xmlns="http://www.w3.org/2000/svg" xmlns:xlink="http://www.w3.org/1999/xlink" x="537.9px" y="299.7px"
	 width="160px" height="160px" viewBox="537.9 299.7 160 160" enable-background="new 0 0 833.669 850.4" xml:space="preserve">

<g id="PRINT">
	<g id="LOGO-B-PRINT" fill="#282828">
		<g id="hk_sb-w">
			<path d="M669.39,375.604l-22.069-12.757v-8.511c0-2.708-2.196-4.904-4.904-4.904s-4.904,2.196-4.904,4.904v2.842
			l-9.816-5.674l12.271-7.093c2.345-1.355,3.146-4.355,1.792-6.7c-1.354-2.344-4.354-3.146-6.7-1.792l-12.257,7.085v-8.509
			c0-2.708-2.196-4.904-4.904-4.904s-4.904,2.196-4.904,4.904v42.524l-9.807,5.669v-19.848c0-1.753-0.936-3.372-2.453-4.248
			s-3.388-0.874-4.905,0.002l-12.257,7.085v-8.509c0-2.708-2.196-4.904-4.904-4.904s-4.904,2.196-4.904,4.904v45.354
			c0,2.708,2.196,4.904,4.904,4.904s4.904-2.196,4.904-4.904V377.01l9.807-5.669v19.848c0,0.297,0.036,0.587,0.088,0.872
			c0.014,0.075,0.028,0.148,0.045,0.223c0.062,0.271,0.14,0.539,0.247,0.795c0.013,0.031,0.03,0.06,0.044,0.09
			c0.102,0.229,0.222,0.446,0.356,0.656c0.041,0.064,0.082,0.127,0.126,0.188c0.159,0.226,0.331,0.442,0.527,0.64
			c0.007,0.007,0.015,0.013,0.022,0.02c0.189,0.188,0.399,0.355,0.619,0.512c0.063,0.045,0.127,0.087,0.192,0.129
			c0.062,0.039,0.118,0.085,0.183,0.122l17.175,9.927l-17.175,9.927c-2.345,1.355-3.146,4.355-1.792,6.7
			c0.909,1.572,2.557,2.45,4.251,2.45c0.832,0,1.677-0.212,2.449-0.658l24.52-14.173c1.516-0.877,2.45-2.495,2.45-4.246
			s-0.935-3.369-2.45-4.246l-17.175-9.927l12.271-7.093c1.517-0.877,2.45-2.495,2.45-4.246v-19.846l14.711,8.504v25.515
			c0,1.752,0.936,3.372,2.453,4.247c0.759,0.438,1.604,0.657,2.451,0.657c0.848,0,1.695-0.22,2.454-0.658l24.52-14.172
			c1.516-0.877,2.45-2.495,2.45-4.246S670.905,376.481,669.39,375.604z M647.32,385.524v-11.348l9.815,5.674L647.32,385.524z"/>
		</g>
	</g>
</g>

</svg>
