<?xml version="1.0" encoding="utf-8"?>
<!-- Hackstub logo v1 - 2015 -->
	 
<!DOCTYPE svg PUBLIC "-//W3C//DTD SVG 1.1//EN" "http://www.w3.org/Graphics/SVG/1.1/DTD/svg11.dtd">
<svg version="1.1" xmlns="http://www.w3.org/2000/svg" xmlns:xlink="http://www.w3.org/1999/xlink" x="0px" y="0px"
	 width="833.669px" height="850.4px" viewBox="0 0 833.669 850.4" enable-background="new 0 0 833.669 850.4" xml:space="preserve">

<g id="GRILLE" fill="none">
	<g id="horiz" display="none">
		<g id="thin" display="inline" stroke="#E3E4E4" stroke-width="0.5669">
			<line x1="-14.173" y1="844.731" x2="864.567" y2="844.731"/>
			<line x1="-14.173" y1="839.062" x2="864.567" y2="839.062"/>
			<line x1="-14.173" y1="833.394" x2="864.567" y2="833.394"/>
			<line x1="-14.173" y1="827.725" x2="864.567" y2="827.725"/>
			<line x1="-14.173" y1="816.385" x2="864.567" y2="816.385"/>
			<line x1="-14.173" y1="810.716" x2="864.567" y2="810.716"/>
			<line x1="-14.173" y1="805.047" x2="864.567" y2="805.047"/>
			<line x1="-14.173" y1="799.378" x2="864.567" y2="799.378"/>
			<line x1="-14.173" y1="788.038" x2="864.567" y2="788.038"/>
			<line x1="-14.173" y1="782.369" x2="864.567" y2="782.369"/>
			<line x1="-14.173" y1="776.7" x2="864.567" y2="776.7"/>
			<line x1="-14.173" y1="771.031" x2="864.567" y2="771.031"/>
			<line x1="-14.173" y1="759.692" x2="864.567" y2="759.692"/>
			<line x1="-14.173" y1="754.023" x2="864.567" y2="754.023"/>
			<line x1="-14.173" y1="748.354" x2="864.567" y2="748.354"/>
			<line x1="-14.173" y1="742.686" x2="864.567" y2="742.686"/>
			<line x1="-14.173" y1="731.346" x2="864.567" y2="731.346"/>
			<line x1="-14.173" y1="725.677" x2="864.567" y2="725.677"/>
			<line x1="-14.173" y1="720.008" x2="864.567" y2="720.008"/>
			<line x1="-14.173" y1="714.339" x2="864.567" y2="714.339"/>
			<line x1="-14.173" y1="702.999" x2="864.567" y2="702.999"/>
			<line x1="-14.173" y1="697.33" x2="864.567" y2="697.33"/>
			<line x1="-14.173" y1="691.661" x2="864.567" y2="691.661"/>
			<line x1="-14.173" y1="685.992" x2="864.567" y2="685.992"/>
			<line x1="-14.173" y1="674.652" x2="864.567" y2="674.652"/>
			<line x1="-14.173" y1="668.983" x2="864.567" y2="668.983"/>
			<line x1="-14.173" y1="663.314" x2="864.567" y2="663.314"/>
			<line x1="-14.173" y1="657.646" x2="864.567" y2="657.646"/>
			<line x1="-14.173" y1="646.306" x2="864.567" y2="646.306"/>
			<line x1="-14.173" y1="640.637" x2="864.567" y2="640.637"/>
			<line x1="-14.173" y1="634.968" x2="864.567" y2="634.968"/>
			<line x1="-14.173" y1="629.299" x2="864.567" y2="629.299"/>
			<line x1="-14.173" y1="617.959" x2="864.567" y2="617.959"/>
			<line x1="-14.173" y1="612.29" x2="864.567" y2="612.29"/>
			<line x1="-14.173" y1="606.622" x2="864.567" y2="606.622"/>
			<line x1="-14.173" y1="600.953" x2="864.567" y2="600.953"/>
			<line x1="-14.173" y1="589.613" x2="864.567" y2="589.613"/>
			<line x1="-14.173" y1="583.944" x2="864.567" y2="583.944"/>
			<line x1="-14.173" y1="578.275" x2="864.567" y2="578.275"/>
			<line x1="-14.173" y1="572.606" x2="864.567" y2="572.606"/>
			<line x1="-14.173" y1="561.267" x2="864.567" y2="561.267"/>
			<line x1="-14.173" y1="555.598" x2="864.567" y2="555.598"/>
			<line x1="-14.173" y1="549.929" x2="864.567" y2="549.929"/>
			<line x1="-14.173" y1="544.26" x2="864.567" y2="544.26"/>
			<line x1="-14.173" y1="532.92" x2="864.567" y2="532.92"/>
			<line x1="-14.173" y1="527.251" x2="864.567" y2="527.251"/>
			<line x1="-14.173" y1="521.582" x2="864.567" y2="521.582"/>
			<line x1="-14.173" y1="515.913" x2="864.567" y2="515.913"/>
			<line x1="-14.173" y1="504.573" x2="864.567" y2="504.573"/>
			<line x1="-14.173" y1="498.904" x2="864.567" y2="498.904"/>
			<line x1="-14.173" y1="493.235" x2="864.567" y2="493.235"/>
			<line x1="-14.173" y1="487.566" x2="864.567" y2="487.566"/>
			<line x1="-14.173" y1="476.227" x2="864.567" y2="476.227"/>
			<line x1="-14.173" y1="470.558" x2="864.567" y2="470.558"/>
			<line x1="-14.173" y1="464.889" x2="864.567" y2="464.889"/>
			<line x1="-14.173" y1="459.22" x2="864.567" y2="459.22"/>
			<line x1="-14.173" y1="447.881" x2="864.567" y2="447.881"/>
			<line x1="-14.173" y1="442.212" x2="864.567" y2="442.212"/>
			<line x1="-14.173" y1="436.543" x2="864.567" y2="436.543"/>
			<line x1="-14.173" y1="430.874" x2="864.567" y2="430.874"/>
			<line x1="-14.173" y1="419.534" x2="864.567" y2="419.534"/>
			<line x1="-14.173" y1="413.865" x2="864.567" y2="413.865"/>
			<line x1="-14.173" y1="408.196" x2="864.567" y2="408.196"/>
			<line x1="-14.173" y1="402.527" x2="864.567" y2="402.527"/>
			<line x1="-14.173" y1="391.188" x2="864.567" y2="391.188"/>
			<line x1="-14.173" y1="385.519" x2="864.567" y2="385.519"/>
			<line x1="-14.173" y1="379.85" x2="864.567" y2="379.85"/>
			<line x1="-14.173" y1="374.181" x2="864.567" y2="374.181"/>
			<line x1="-14.173" y1="362.841" x2="864.567" y2="362.841"/>
			<line x1="-14.173" y1="357.172" x2="864.567" y2="357.172"/>
			<line x1="-14.173" y1="351.503" x2="864.567" y2="351.503"/>
			<line x1="-14.173" y1="345.834" x2="864.567" y2="345.834"/>
			<line x1="-14.173" y1="334.494" x2="864.567" y2="334.494"/>
			<line x1="-14.173" y1="328.825" x2="864.567" y2="328.825"/>
			<line x1="-14.173" y1="323.156" x2="864.567" y2="323.156"/>
			<line x1="-14.173" y1="317.487" x2="864.567" y2="317.487"/>
			<line x1="-14.173" y1="306.147" x2="864.567" y2="306.147"/>
			<line x1="-14.173" y1="300.479" x2="864.567" y2="300.479"/>
			<line x1="-14.173" y1="294.81" x2="864.567" y2="294.81"/>
			<line x1="-14.173" y1="289.141" x2="864.567" y2="289.141"/>
			<line x1="-14.173" y1="277.802" x2="864.567" y2="277.802"/>
			<line x1="-14.173" y1="272.133" x2="864.567" y2="272.133"/>
			<line x1="-14.173" y1="266.464" x2="864.567" y2="266.464"/>
			<line x1="-14.173" y1="260.794" x2="864.567" y2="260.794"/>
			<line x1="-14.173" y1="249.455" x2="864.567" y2="249.455"/>
			<line x1="-14.173" y1="243.786" x2="864.567" y2="243.786"/>
			<line x1="-14.173" y1="238.117" x2="864.567" y2="238.117"/>
			<line x1="-14.173" y1="232.448" x2="864.567" y2="232.448"/>
			<line x1="-14.173" y1="221.108" x2="864.567" y2="221.108"/>
			<line x1="-14.173" y1="215.439" x2="864.567" y2="215.439"/>
			<line x1="-14.173" y1="209.771" x2="864.567" y2="209.771"/>
			<line x1="-14.173" y1="204.102" x2="864.567" y2="204.102"/>
			<line x1="-14.173" y1="192.762" x2="864.567" y2="192.762"/>
			<line x1="-14.173" y1="187.093" x2="864.567" y2="187.093"/>
			<line x1="-14.173" y1="181.424" x2="864.567" y2="181.424"/>
			<line x1="-14.173" y1="175.755" x2="864.567" y2="175.755"/>
			<line x1="-14.173" y1="164.415" x2="864.567" y2="164.415"/>
			<line x1="-14.173" y1="158.747" x2="864.567" y2="158.747"/>
			<line x1="-14.173" y1="153.078" x2="864.567" y2="153.078"/>
			<line x1="-14.173" y1="147.409" x2="864.567" y2="147.409"/>
			<line x1="-14.173" y1="136.069" x2="864.567" y2="136.069"/>
			<line x1="-14.173" y1="130.4" x2="864.567" y2="130.4"/>
			<line x1="-14.173" y1="124.731" x2="864.567" y2="124.731"/>
			<line x1="-14.173" y1="119.062" x2="864.567" y2="119.062"/>
			<line x1="-14.173" y1="107.722" x2="864.567" y2="107.722"/>
			<line x1="-14.173" y1="102.053" x2="864.567" y2="102.053"/>
			<line x1="-14.173" y1="96.384" x2="864.567" y2="96.384"/>
			<line x1="-14.173" y1="90.716" x2="864.567" y2="90.716"/>
			<line x1="-14.173" y1="79.376" x2="864.567" y2="79.376"/>
			<line x1="-14.173" y1="73.707" x2="864.567" y2="73.707"/>
			<line x1="-14.173" y1="68.038" x2="864.567" y2="68.038"/>
			<line x1="-14.173" y1="62.369" x2="864.567" y2="62.369"/>
			<line x1="-14.173" y1="51.029" x2="864.567" y2="51.029"/>
			<line x1="-14.173" y1="45.36" x2="864.567" y2="45.36"/>
			<line x1="-14.173" y1="39.691" x2="864.567" y2="39.691"/>
			<line x1="-14.173" y1="34.022" x2="864.567" y2="34.022"/>
			<line x1="-14.173" y1="22.683" x2="864.567" y2="22.683"/>
			<line x1="-14.173" y1="17.014" x2="864.567" y2="17.014"/>
			<line x1="-14.173" y1="11.345" x2="864.567" y2="11.345"/>
			<line x1="-14.173" y1="5.676" x2="864.567" y2="5.676"/>
		</g>
		
		<g id="fat" display="inline" stroke="#CFD1D2" stroke-width="1.1339">
			<line x1="-14.173" y1="850.4" x2="864.567" y2="850.4"/>
			<line x1="-14.173" y1="822.054" x2="864.567" y2="822.054"/>
			<line x1="-14.173" y1="793.707" x2="864.567" y2="793.707"/>
			<line x1="-14.173" y1="765.361" x2="864.567" y2="765.361"/>
			<line x1="-14.173" y1="737.015" x2="864.567" y2="737.015"/>
			<line x1="-14.173" y1="708.668" x2="864.567" y2="708.668"/>
			<line x1="-14.173" y1="680.321" x2="864.567" y2="680.321"/>
			<line x1="-14.173" y1="651.975" x2="864.567" y2="651.975"/>
			<line x1="-14.173" y1="623.628" x2="864.567" y2="623.628"/>
			<line x1="-14.173" y1="595.282" x2="864.567" y2="595.282"/>
			<line x1="-14.173" y1="566.936" x2="864.567" y2="566.936"/>
			<line x1="-14.173" y1="538.589" x2="864.567" y2="538.589"/>
			<line x1="-14.173" y1="510.242" x2="864.567" y2="510.242"/>
			<line x1="-14.173" y1="481.896" x2="864.567" y2="481.896"/>
			<line x1="-14.173" y1="453.549" x2="864.567" y2="453.549"/>
			<line x1="-14.173" y1="425.203" x2="864.567" y2="425.203"/>
			<line x1="-14.173" y1="396.856" x2="864.567" y2="396.856"/>
			<line x1="-14.173" y1="368.51" x2="864.567" y2="368.51"/>
			<line x1="-14.173" y1="340.163" x2="864.567" y2="340.163"/>
			<line x1="-14.173" y1="311.816" x2="864.567" y2="311.816"/>
			<line x1="-14.173" y1="283.471" x2="864.567" y2="283.471"/>
			<line x1="-14.173" y1="255.124" x2="864.567" y2="255.124"/>
			<line x1="-14.173" y1="226.777" x2="864.567" y2="226.777"/>
			<line x1="-14.173" y1="198.431" x2="864.567" y2="198.431"/>
			<line x1="-14.173" y1="170.084" x2="864.567" y2="170.084"/>
			<line x1="-14.173" y1="141.738" x2="864.567" y2="141.738"/>
			<line x1="-14.173" y1="113.391" x2="864.567" y2="113.391"/>
			<line x1="-14.173" y1="85.045" x2="864.567" y2="85.045"/>
			<line x1="-14.173" y1="56.698" x2="864.567" y2="56.698"/>
			<line x1="-14.173" y1="28.352" x2="864.567" y2="28.352"/>
			<line x1="-14.173" y1="0.005" x2="864.567" y2="0.005"/>
		</g>
	</g>
	
	<g id="vert">
		<g id="thin" stroke="#E3E4E4" stroke-width="0.5669">
			<line x1="4.904" y1="-14.167" x2="4.904" y2="864.573"/>
			<line x1="9.808" y1="-14.167" x2="9.808" y2="864.573"/>
			<line x1="14.711" y1="-14.167" x2="14.711" y2="864.573"/>
			<line x1="19.615" y1="-14.167" x2="19.615" y2="864.573"/>
			<line x1="29.423" y1="-14.167" x2="29.423" y2="864.573"/>
			<line x1="34.327" y1="-14.167" x2="34.327" y2="864.573"/>
			<line x1="39.231" y1="-14.167" x2="39.231" y2="864.573"/>
			<line x1="44.135" y1="-14.167" x2="44.135" y2="864.573"/>
			<line x1="53.943" y1="-14.167" x2="53.943" y2="864.573"/>
			<line x1="58.847" y1="-14.167" x2="58.847" y2="864.573"/>
			<line x1="63.751" y1="-14.167" x2="63.751" y2="864.573"/>
			<line x1="68.655" y1="-14.167" x2="68.655" y2="864.573"/>
			<line x1="78.463" y1="-14.167" x2="78.463" y2="864.573"/>
			<line x1="83.367" y1="-14.167" x2="83.367" y2="864.573"/>
			<line x1="88.271" y1="-14.167" x2="88.271" y2="864.573"/>
			<line x1="93.174" y1="-14.167" x2="93.174" y2="864.573"/>
			<line x1="102.982" y1="-14.167" x2="102.982" y2="864.573"/>
			<line x1="107.886" y1="-14.167" x2="107.886" y2="864.573"/>
			<line x1="112.79" y1="-14.167" x2="112.79" y2="864.573"/>
			<line x1="117.694" y1="-14.167" x2="117.694" y2="864.573"/>
			<line x1="127.502" y1="-14.167" x2="127.502" y2="864.573"/>
			<line x1="132.406" y1="-14.167" x2="132.406" y2="864.573"/>
			<line x1="137.31" y1="-14.167" x2="137.31" y2="864.573"/>
			<line x1="142.214" y1="-14.167" x2="142.214" y2="864.573"/>
			<line x1="152.022" y1="-14.167" x2="152.022" y2="864.573"/>
			<line x1="156.926" y1="-14.167" x2="156.926" y2="864.573"/>
			<line x1="161.83" y1="-14.167" x2="161.83" y2="864.573"/>
			<line x1="166.733" y1="-14.167" x2="166.733" y2="864.573"/>
			<line x1="176.542" y1="-14.167" x2="176.542" y2="864.573"/>
			<line x1="181.445" y1="-14.167" x2="181.445" y2="864.573"/>
			<line x1="186.349" y1="-14.167" x2="186.349" y2="864.573"/>
			<line x1="191.253" y1="-14.167" x2="191.253" y2="864.573"/>
			<line x1="201.062" y1="-14.167" x2="201.062" y2="864.573"/>
			<line x1="205.965" y1="-14.167" x2="205.965" y2="864.573"/>
			<line x1="210.869" y1="-14.167" x2="210.869" y2="864.573"/>
			<line x1="215.773" y1="-14.167" x2="215.773" y2="864.573"/>
			<line x1="225.581" y1="-14.167" x2="225.581" y2="864.573"/>
			<line x1="230.485" y1="-14.167" x2="230.485" y2="864.573"/>
			<line x1="235.389" y1="-14.167" x2="235.389" y2="864.573"/>
			<line x1="240.292" y1="-14.167" x2="240.292" y2="864.573"/>
			<line x1="250.101" y1="-14.167" x2="250.101" y2="864.573"/>
			<line x1="255.004" y1="-14.167" x2="255.004" y2="864.573"/>
			<line x1="259.908" y1="-14.167" x2="259.908" y2="864.573"/>
			<line x1="264.812" y1="-14.167" x2="264.812" y2="864.573"/>
			<line x1="274.621" y1="-14.167" x2="274.621" y2="864.573"/>
			<line x1="279.524" y1="-14.167" x2="279.524" y2="864.573"/>
			<line x1="284.428" y1="-14.167" x2="284.428" y2="864.573"/>
			<line x1="289.332" y1="-14.167" x2="289.332" y2="864.573"/>
			<line x1="299.14" y1="-14.167" x2="299.14" y2="864.573"/>
			<line x1="304.044" y1="-14.167" x2="304.044" y2="864.573"/>
			<line x1="308.948" y1="-14.167" x2="308.948" y2="864.573"/>
			<line x1="313.852" y1="-14.167" x2="313.852" y2="864.573"/>
			<line x1="323.66" y1="-14.167" x2="323.66" y2="864.573"/>
			<line x1="328.563" y1="-14.167" x2="328.563" y2="864.573"/>
			<line x1="333.467" y1="-14.167" x2="333.467" y2="864.573"/>
			<line x1="338.371" y1="-14.167" x2="338.371" y2="864.573"/>
			<line x1="348.18" y1="-14.167" x2="348.18" y2="864.573"/>
			<line x1="353.083" y1="-14.167" x2="353.083" y2="864.573"/>
			<line x1="357.987" y1="-14.167" x2="357.987" y2="864.573"/>
			<line x1="362.891" y1="-14.167" x2="362.891" y2="864.573"/>
			<line x1="372.699" y1="-14.167" x2="372.699" y2="864.573"/>
			<line x1="377.603" y1="-14.167" x2="377.603" y2="864.573"/>
			<line x1="382.507" y1="-14.167" x2="382.507" y2="864.573"/>
			<line x1="387.411" y1="-14.167" x2="387.411" y2="864.573"/>
			<line x1="397.219" y1="-14.167" x2="397.219" y2="864.573"/>
			<line x1="402.123" y1="-14.167" x2="402.123" y2="864.573"/>
			<line x1="407.026" y1="-14.167" x2="407.026" y2="864.573"/>
			<line x1="411.93" y1="-14.167" x2="411.93" y2="864.573"/>
			<line x1="421.738" y1="-14.167" x2="421.738" y2="864.573"/>
			<line x1="426.643" y1="-14.167" x2="426.643" y2="864.573"/>
			<line x1="431.547" y1="-14.167" x2="431.547" y2="864.573"/>
			<line x1="436.45" y1="-14.167" x2="436.45" y2="864.573"/>
			<line x1="446.259" y1="-14.167" x2="446.259" y2="864.573"/>
			<line x1="451.162" y1="-14.167" x2="451.162" y2="864.573"/>
			<line x1="456.066" y1="-14.167" x2="456.066" y2="864.573"/>
			<line x1="460.97" y1="-14.167" x2="460.97" y2="864.573"/>
			<line x1="470.778" y1="-14.167" x2="470.778" y2="864.573"/>
			<line x1="475.682" y1="-14.167" x2="475.682" y2="864.573"/>
			<line x1="480.586" y1="-14.167" x2="480.586" y2="864.573"/>
			<line x1="485.489" y1="-14.167" x2="485.489" y2="864.573"/>
			<line x1="495.298" y1="-14.167" x2="495.298" y2="864.573"/>
			<line x1="500.201" y1="-14.167" x2="500.201" y2="864.573"/>
			<line x1="505.105" y1="-14.167" x2="505.105" y2="864.573"/>
			<line x1="510.009" y1="-14.167" x2="510.009" y2="864.573"/>
			<line x1="519.817" y1="-14.167" x2="519.817" y2="864.573"/>
			<line x1="524.721" y1="-14.167" x2="524.721" y2="864.573"/>
			<line x1="529.625" y1="-14.167" x2="529.625" y2="864.573"/>
			<line x1="534.528" y1="-14.167" x2="534.528" y2="864.573"/>
			<line x1="544.337" y1="-14.167" x2="544.337" y2="864.573"/>
			<line x1="549.241" y1="-14.167" x2="549.241" y2="864.573"/>
			<line x1="554.146" y1="-14.167" x2="554.146" y2="864.573"/>
			<line x1="559.049" y1="-14.167" x2="559.049" y2="864.573"/>
			<line x1="568.857" y1="-14.167" x2="568.857" y2="864.573"/>
			<line x1="573.761" y1="-14.167" x2="573.761" y2="864.573"/>
			<line x1="578.665" y1="-14.167" x2="578.665" y2="864.573"/>
			<line x1="583.568" y1="-14.167" x2="583.568" y2="864.573"/>
			<line x1="593.377" y1="-14.167" x2="593.377" y2="864.573"/>
			<line x1="598.28" y1="-14.167" x2="598.28" y2="864.573"/>
			<line x1="603.185" y1="-14.167" x2="603.185" y2="864.573"/>
			<line x1="608.088" y1="-14.167" x2="608.088" y2="864.573"/>
			<line x1="617.896" y1="-14.167" x2="617.896" y2="864.573"/>
			<line x1="622.8" y1="-14.167" x2="622.8" y2="864.573"/>
			<line x1="627.704" y1="-14.167" x2="627.704" y2="864.573"/>
			<line x1="632.607" y1="-14.167" x2="632.607" y2="864.573"/>
			<line x1="642.416" y1="-14.167" x2="642.416" y2="864.573"/>
			<line x1="647.319" y1="-14.167" x2="647.319" y2="864.573"/>
			<line x1="652.224" y1="-14.167" x2="652.224" y2="864.573"/>
			<line x1="657.127" y1="-14.167" x2="657.127" y2="864.573"/>
			<line x1="666.936" y1="-14.167" x2="666.936" y2="864.573"/>
			<line x1="671.839" y1="-14.167" x2="671.839" y2="864.573"/>
			<line x1="676.743" y1="-14.167" x2="676.743" y2="864.573"/>
			<line x1="681.646" y1="-14.167" x2="681.646" y2="864.573"/>
			<line x1="691.456" y1="-14.167" x2="691.456" y2="864.573"/>
			<line x1="696.358" y1="-14.167" x2="696.358" y2="864.573"/>
			<line x1="701.264" y1="-14.167" x2="701.264" y2="864.573"/>
			<line x1="706.167" y1="-14.167" x2="706.167" y2="864.573"/>
			<line x1="715.976" y1="-14.167" x2="715.976" y2="864.573"/>
			<line x1="720.879" y1="-14.167" x2="720.879" y2="864.573"/>
			<line x1="725.783" y1="-14.167" x2="725.783" y2="864.573"/>
			<line x1="730.687" y1="-14.167" x2="730.687" y2="864.573"/>
			<line x1="740.495" y1="-14.167" x2="740.495" y2="864.573"/>
			<line x1="745.398" y1="-14.167" x2="745.398" y2="864.573"/>
			<line x1="750.303" y1="-14.167" x2="750.303" y2="864.573"/>
			<line x1="755.206" y1="-14.167" x2="755.206" y2="864.573"/>
			<line x1="765.015" y1="-14.167" x2="765.015" y2="864.573"/>
			<line x1="769.918" y1="-14.167" x2="769.918" y2="864.573"/>
			<line x1="774.822" y1="-14.167" x2="774.822" y2="864.573"/>
			<line x1="779.726" y1="-14.167" x2="779.726" y2="864.573"/>
			<line x1="789.534" y1="-14.167" x2="789.534" y2="864.573"/>
			<line x1="794.438" y1="-14.167" x2="794.438" y2="864.573"/>
			<line x1="799.342" y1="-14.167" x2="799.342" y2="864.573"/>
			<line x1="804.245" y1="-14.167" x2="804.245" y2="864.573"/>
			<line x1="814.054" y1="-14.167" x2="814.054" y2="864.573"/>
			<line x1="818.957" y1="-14.167" x2="818.957" y2="864.573"/>
			<line x1="823.861" y1="-14.167" x2="823.861" y2="864.573"/>
			<line x1="828.765" y1="-14.167" x2="828.765" y2="864.573"/>
		</g>
		
		<g id="fat" stroke="#CFD1D2" stroke-width="1.1339">
			<line x1="0" y1="-14.167" x2="0" y2="864.573"/>
			<line x1="24.52" y1="-14.167" x2="24.52" y2="864.573"/>
			<line x1="49.04" y1="-14.167" x2="49.04" y2="864.573"/>
			<line x1="73.559" y1="-14.167" x2="73.559" y2="864.573"/>
			<line x1="98.079" y1="-14.167" x2="98.079" y2="864.573"/>
			<line x1="122.599" y1="-14.167" x2="122.599" y2="864.573"/>
			<line x1="147.118" y1="-14.167" x2="147.118" y2="864.573"/>
			<line x1="171.638" y1="-14.167" x2="171.638" y2="864.573"/>
			<line x1="196.158" y1="-14.167" x2="196.158" y2="864.573"/>
			<line x1="220.677" y1="-14.167" x2="220.677" y2="864.573"/>
			<line x1="245.197" y1="-14.167" x2="245.197" y2="864.573"/>
			<line x1="269.717" y1="-14.167" x2="269.717" y2="864.573"/>
			<line x1="294.236" y1="-14.167" x2="294.236" y2="864.573"/>
			<line x1="318.756" y1="-14.167" x2="318.756" y2="864.573"/>
			<line x1="343.275" y1="-14.167" x2="343.275" y2="864.573"/>
			<line x1="367.795" y1="-14.167" x2="367.795" y2="864.573"/>
			<line x1="392.315" y1="-14.167" x2="392.315" y2="864.573"/>
			<line x1="416.834" y1="-14.167" x2="416.834" y2="864.573"/>
			<line x1="441.354" y1="-14.167" x2="441.354" y2="864.573"/>
			<line x1="465.874" y1="-14.167" x2="465.874" y2="864.573"/>
			<line x1="490.394" y1="-14.167" x2="490.394" y2="864.573"/>
			<line x1="514.913" y1="-14.167" x2="514.913" y2="864.573"/>
			<line x1="539.433" y1="-14.167" x2="539.433" y2="864.573"/>
			<line x1="563.953" y1="-14.167" x2="563.953" y2="864.573"/>
			<line x1="588.473" y1="-14.167" x2="588.473" y2="864.573"/>
			<line x1="612.992" y1="-14.167" x2="612.992" y2="864.573"/>
			<line x1="637.512" y1="-14.167" x2="637.512" y2="864.573"/>
			<line x1="662.031" y1="-14.167" x2="662.031" y2="864.573"/>
			<line x1="686.551" y1="-14.167" x2="686.551" y2="864.573"/>
			<line x1="711.071" y1="-14.167" x2="711.071" y2="864.573"/>
			<line x1="735.591" y1="-14.167" x2="735.591" y2="864.573"/>
			<line x1="760.11" y1="-14.167" x2="760.11" y2="864.573"/>
			<line x1="784.63" y1="-14.167" x2="784.63" y2="864.573"/>
			<line x1="809.149" y1="-14.167" x2="809.149" y2="864.573"/>
			<line x1="833.669" y1="-14.167" x2="833.669" y2="864.573"/>
		</g>
	</g>
	
	<g id="obliques">
		<g id="fat" stroke="#CFD1D2" stroke-width="1.1339">
			<line x1="0" y1="850.4" x2="833.669" y2="368.514"/>
			<line x1="0" y1="878.747" x2="833.669" y2="396.86"/>
			<line x1="0" y1="907.094" x2="833.669" y2="425.207"/>
			<line x1="0" y1="935.44" x2="833.669" y2="453.554"/>
			<line x1="0" y1="963.787" x2="833.669" y2="481.9"/>
			<line x1="0" y1="992.134" x2="833.669" y2="510.247"/>
			<line x1="0" y1="1020.48" x2="833.669" y2="538.594"/>
			<line x1="0" y1="1048.827" x2="833.669" y2="566.94"/>
			<line x1="0" y1="1077.174" x2="833.669" y2="595.287"/>
			<line x1="0" y1="1105.521" x2="833.669" y2="623.634"/>
			<line x1="0" y1="1133.867" x2="833.669" y2="651.98"/>
			<line x1="0" y1="1162.214" x2="833.669" y2="680.327"/>
			<line x1="0" y1="1190.561" x2="833.669" y2="708.674"/>
			<line x1="0" y1="1218.907" x2="833.669" y2="737.021"/>
			<line x1="0" y1="1247.254" x2="833.669" y2="765.367"/>
			<line x1="0" y1="1275.601" x2="833.669" y2="793.714"/>
			<line x1="0" y1="1303.947" x2="833.669" y2="822.061"/>
			<line x1="0" y1="1332.294" x2="833.669" y2="850.407"/>
			<line x1="0" y1="822.054" x2="833.669" y2="340.167"/>
			<line x1="0" y1="793.707" x2="833.669" y2="311.82"/>
			<line x1="0" y1="765.36" x2="833.669" y2="283.474"/>
			<line x1="0" y1="737.015" x2="833.669" y2="255.127"/>
			<line x1="0" y1="708.668" x2="833.669" y2="226.781"/>
			<line x1="0" y1="680.321" x2="833.669" y2="198.434"/>
			<line x1="0" y1="651.975" x2="833.669" y2="170.087"/>
			<line x1="0" y1="623.628" x2="833.669" y2="141.741"/>
			<line x1="0" y1="595.281" x2="833.669" y2="113.395"/>
			<line x1="0" y1="566.936" x2="833.669" y2="85.048"/>
			<line x1="0" y1="538.589" x2="833.669" y2="56.701"/>
			<line x1="0" y1="510.242" x2="833.669" y2="28.355"/>
			<line x1="0" y1="481.896" x2="833.669" y2="0.008"/>
			<line x1="0" y1="453.549" x2="833.669" y2="-28.338"/>
			<line x1="0" y1="425.202" x2="833.669" y2="-56.685"/>
			<line x1="0" y1="396.855" x2="833.669" y2="-85.031"/>
			<line x1="0" y1="368.51" x2="833.669" y2="-113.378"/>
			<line x1="0" y1="340.163" x2="833.669" y2="-141.724"/>
			<line x1="0" y1="311.816" x2="833.669" y2="-170.071"/>
			<line x1="0" y1="283.47" x2="833.669" y2="-198.417"/>
			<line x1="0" y1="255.123" x2="833.669" y2="-226.764"/>
			<line x1="0" y1="226.777" x2="833.669" y2="-255.11"/>
			<line x1="0" y1="198.43" x2="833.669" y2="-283.457"/>
			<line x1="0" y1="170.083" x2="833.669" y2="-311.804"/>
			<line x1="0" y1="141.737" x2="833.669" y2="-340.15"/>
			<line x1="0" y1="113.391" x2="833.669" y2="-368.497"/>
			<line x1="0" y1="85.044" x2="833.669" y2="-396.843"/>
			<line x1="0" y1="56.697" x2="833.669" y2="-425.189"/>
			<line x1="0" y1="28.351" x2="833.669" y2="-453.536"/>
			<line x1="0" y1="0.004" x2="833.669" y2="-481.883"/>
		</g>
		
		<g id="thin" stroke="#E3E4E4" stroke-width="0.5669">
			<line x1="0" y1="844.731" x2="833.669" y2="362.845"/>
			<line x1="0" y1="839.062" x2="833.669" y2="357.176"/>
			<line x1="0" y1="833.394" x2="833.669" y2="351.507"/>
			<line x1="0" y1="827.725" x2="833.669" y2="345.836"/>
			<line x1="0" y1="873.078" x2="833.669" y2="391.191"/>
			<line x1="0" y1="867.409" x2="833.669" y2="385.522"/>
			<line x1="0" y1="861.74" x2="833.669" y2="379.854"/>
			<line x1="0" y1="856.071" x2="833.669" y2="374.183"/>
			<line x1="0" y1="901.425" x2="833.669" y2="419.538"/>
			<line x1="0" y1="895.756" x2="833.669" y2="413.869"/>
			<line x1="0" y1="890.087" x2="833.669" y2="408.2"/>
			<line x1="0" y1="884.418" x2="833.669" y2="402.529"/>
			<line x1="0" y1="929.771" x2="833.669" y2="447.885"/>
			<line x1="0" y1="924.103" x2="833.669" y2="442.216"/>
			<line x1="0" y1="918.434" x2="833.669" y2="436.547"/>
			<line x1="0" y1="912.765" x2="833.669" y2="430.876"/>
			<line x1="0" y1="958.118" x2="833.669" y2="476.231"/>
			<line x1="0" y1="952.449" x2="833.669" y2="470.562"/>
			<line x1="0" y1="946.78" x2="833.669" y2="464.894"/>
			<line x1="0" y1="941.111" x2="833.669" y2="459.223"/>
			<line x1="0" y1="986.465" x2="833.669" y2="504.578"/>
			<line x1="0" y1="980.796" x2="833.669" y2="498.909"/>
			<line x1="0" y1="975.127" x2="833.669" y2="493.24"/>
			<line x1="0" y1="969.458" x2="833.669" y2="487.569"/>
			<line x1="0" y1="1014.812" x2="833.669" y2="532.925"/>
			<line x1="0" y1="1009.143" x2="833.669" y2="527.256"/>
			<line x1="0" y1="1003.474" x2="833.669" y2="521.587"/>
			<line x1="0" y1="997.805" x2="833.669" y2="515.916"/>
			<line x1="0" y1="1043.158" x2="833.669" y2="561.271"/>
			<line x1="0" y1="1037.489" x2="833.669" y2="555.603"/>
			<line x1="0" y1="1031.82" x2="833.669" y2="549.934"/>
			<line x1="0" y1="1026.151" x2="833.669" y2="544.263"/>
			<line x1="0" y1="1071.505" x2="833.669" y2="589.618"/>
			<line x1="0" y1="1065.836" x2="833.669" y2="583.949"/>
			<line x1="0" y1="1060.167" x2="833.669" y2="578.28"/>
			<line x1="0" y1="1054.498" x2="833.669" y2="572.609"/>
			<line x1="0" y1="1099.852" x2="833.669" y2="617.965"/>
			<line x1="0" y1="1094.183" x2="833.669" y2="612.296"/>
			<line x1="0" y1="1088.514" x2="833.669" y2="606.627"/>
			<line x1="0" y1="1082.845" x2="833.669" y2="600.956"/>
			<line x1="0" y1="1128.198" x2="833.669" y2="646.312"/>
			<line x1="0" y1="1122.529" x2="833.669" y2="640.643"/>
			<line x1="0" y1="1116.86" x2="833.669" y2="634.974"/>
			<line x1="0" y1="1111.191" x2="833.669" y2="629.303"/>
			<line x1="0" y1="1156.545" x2="833.669" y2="674.658"/>
			<line x1="0" y1="1150.876" x2="833.669" y2="668.989"/>
			<line x1="0" y1="1145.207" x2="833.669" y2="663.32"/>
			<line x1="0" y1="1139.538" x2="833.669" y2="657.649"/>
			<line x1="0" y1="1184.892" x2="833.669" y2="703.005"/>
			<line x1="0" y1="1179.223" x2="833.669" y2="697.336"/>
			<line x1="0" y1="1173.554" x2="833.669" y2="691.667"/>
			<line x1="0" y1="1167.885" x2="833.669" y2="685.996"/>
			<line x1="0" y1="1213.238" x2="833.669" y2="731.352"/>
			<line x1="0" y1="1207.569" x2="833.669" y2="725.683"/>
			<line x1="0" y1="1201.9" x2="833.669" y2="720.014"/>
			<line x1="0" y1="1196.231" x2="833.669" y2="714.343"/>
			<line x1="0" y1="1241.585" x2="833.669" y2="759.698"/>
			<line x1="0" y1="1235.916" x2="833.669" y2="754.029"/>
			<line x1="0" y1="1230.247" x2="833.669" y2="748.36"/>
			<line x1="0" y1="1224.578" x2="833.669" y2="742.689"/>
			<line x1="0" y1="1269.932" x2="833.669" y2="788.045"/>
			<line x1="0" y1="1264.263" x2="833.669" y2="782.376"/>
			<line x1="0" y1="1258.594" x2="833.669" y2="776.707"/>
			<line x1="0" y1="1252.925" x2="833.669" y2="771.036"/>
			<line x1="0" y1="1298.278" x2="833.669" y2="816.392"/>
			<line x1="0" y1="1292.609" x2="833.669" y2="810.723"/>
			<line x1="0" y1="1286.94" x2="833.669" y2="805.054"/>
			<line x1="0" y1="1281.271" x2="833.669" y2="799.383"/>
			<line x1="0" y1="1326.625" x2="833.669" y2="844.738"/>
			<line x1="0" y1="1320.956" x2="833.669" y2="839.069"/>
			<line x1="0" y1="1315.287" x2="833.669" y2="833.4"/>
			<line x1="0" y1="1309.618" x2="833.669" y2="827.729"/>
			<line x1="0" y1="816.385" x2="833.669" y2="334.498"/>
			<line x1="0" y1="810.716" x2="833.669" y2="328.829"/>
			<line x1="0" y1="805.047" x2="833.669" y2="323.16"/>
			<line x1="0" y1="799.378" x2="833.669" y2="317.489"/>
			<line x1="0" y1="788.038" x2="833.669" y2="306.151"/>
			<line x1="0" y1="782.369" x2="833.669" y2="300.482"/>
			<line x1="0" y1="776.7" x2="833.669" y2="294.813"/>
			<line x1="0" y1="771.031" x2="833.669" y2="289.143"/>
			<line x1="0" y1="759.691" x2="833.669" y2="277.805"/>
			<line x1="0" y1="754.023" x2="833.669" y2="272.136"/>
			<line x1="0" y1="748.354" x2="833.669" y2="266.467"/>
			<line x1="0" y1="742.686" x2="833.669" y2="260.796"/>
			<line x1="0" y1="731.346" x2="833.669" y2="249.458"/>
			<line x1="0" y1="725.677" x2="833.669" y2="243.789"/>
			<line x1="0" y1="720.008" x2="833.669" y2="238.121"/>
			<line x1="0" y1="714.339" x2="833.669" y2="232.45"/>
			<line x1="0" y1="702.999" x2="833.669" y2="221.112"/>
			<line x1="0" y1="697.33" x2="833.669" y2="215.443"/>
			<line x1="0" y1="691.661" x2="833.669" y2="209.774"/>
			<line x1="0" y1="685.992" x2="833.669" y2="204.103"/>
			<line x1="0" y1="674.652" x2="833.669" y2="192.765"/>
			<line x1="0" y1="668.983" x2="833.669" y2="187.096"/>
			<line x1="0" y1="663.314" x2="833.669" y2="181.427"/>
			<line x1="0" y1="657.646" x2="833.669" y2="175.756"/>
			<line x1="0" y1="646.306" x2="833.669" y2="164.418"/>
			<line x1="0" y1="640.637" x2="833.669" y2="158.75"/>
			<line x1="0" y1="634.968" x2="833.669" y2="153.081"/>
			<line x1="0" y1="629.299" x2="833.669" y2="147.41"/>
			<line x1="0" y1="617.959" x2="833.669" y2="136.072"/>
			<line x1="0" y1="612.29" x2="833.669" y2="130.403"/>
			<line x1="0" y1="606.621" x2="833.669" y2="124.734"/>
			<line x1="0" y1="600.952" x2="833.669" y2="119.063"/>
			<line x1="0" y1="589.612" x2="833.669" y2="107.726"/>
			<line x1="0" y1="583.943" x2="833.669" y2="102.057"/>
			<line x1="0" y1="578.274" x2="833.669" y2="96.388"/>
			<line x1="0" y1="572.605" x2="833.669" y2="90.717"/>
			<line x1="0" y1="561.267" x2="833.669" y2="79.379"/>
			<line x1="0" y1="555.598" x2="833.669" y2="73.71"/>
			<line x1="0" y1="549.929" x2="833.669" y2="68.041"/>
			<line x1="0" y1="544.26" x2="833.669" y2="62.37"/>
			<line x1="0" y1="532.92" x2="833.669" y2="51.033"/>
			<line x1="0" y1="527.251" x2="833.669" y2="45.364"/>
			<line x1="0" y1="521.582" x2="833.669" y2="39.695"/>
			<line x1="0" y1="515.913" x2="833.669" y2="34.024"/>
			<line x1="0" y1="504.573" x2="833.669" y2="22.686"/>
			<line x1="0" y1="498.904" x2="833.669" y2="17.017"/>
			<line x1="0" y1="493.235" x2="833.669" y2="11.348"/>
			<line x1="0" y1="487.566" x2="833.669" y2="5.677"/>
			<line x1="0" y1="476.227" x2="833.669" y2="-5.661"/>
			<line x1="0" y1="470.558" x2="833.669" y2="-11.33"/>
			<line x1="0" y1="464.889" x2="833.669" y2="-16.999"/>
			<line x1="0" y1="459.22" x2="833.669" y2="-22.669"/>
			<line x1="0" y1="447.88" x2="833.669" y2="-34.007"/>
			<line x1="0" y1="442.211" x2="833.669" y2="-39.676"/>
			<line x1="0" y1="436.542" x2="833.669" y2="-45.345"/>
			<line x1="0" y1="430.873" x2="833.669" y2="-51.016"/>
			<line x1="0" y1="419.533" x2="833.669" y2="-62.354"/>
			<line x1="0" y1="413.864" x2="833.669" y2="-68.022"/>
			<line x1="0" y1="408.195" x2="833.669" y2="-73.691"/>
			<line x1="0" y1="402.526" x2="833.669" y2="-79.362"/>
			<line x1="0" y1="391.187" x2="833.669" y2="-90.7"/>
			<line x1="0" y1="385.518" x2="833.669" y2="-96.369"/>
			<line x1="0" y1="379.85" x2="833.669" y2="-102.038"/>
			<line x1="0" y1="374.181" x2="833.669" y2="-107.709"/>
			<line x1="0" y1="362.841" x2="833.669" y2="-119.047"/>
			<line x1="0" y1="357.172" x2="833.669" y2="-124.716"/>
			<line x1="0" y1="351.503" x2="833.669" y2="-130.385"/>
			<line x1="0" y1="345.834" x2="833.669" y2="-136.055"/>
			<line x1="0" y1="334.494" x2="833.669" y2="-147.393"/>
			<line x1="0" y1="328.825" x2="833.669" y2="-153.062"/>
			<line x1="0" y1="323.156" x2="833.669" y2="-158.731"/>
			<line x1="0" y1="317.487" x2="833.669" y2="-164.402"/>
			<line x1="0" y1="306.147" x2="833.669" y2="-175.74"/>
			<line x1="0" y1="300.479" x2="833.669" y2="-181.409"/>
			<line x1="0" y1="294.81" x2="833.669" y2="-187.078"/>
			<line x1="0" y1="289.141" x2="833.669" y2="-192.749"/>
			<line x1="0" y1="277.801" x2="833.669" y2="-204.086"/>
			<line x1="0" y1="272.132" x2="833.669" y2="-209.755"/>
			<line x1="0" y1="266.463" x2="833.669" y2="-215.424"/>
			<line x1="0" y1="260.794" x2="833.669" y2="-221.095"/>
			<line x1="0" y1="249.454" x2="833.669" y2="-232.433"/>
			<line x1="0" y1="243.785" x2="833.669" y2="-238.102"/>
			<line x1="0" y1="238.117" x2="833.669" y2="-243.771"/>
			<line x1="0" y1="232.448" x2="833.669" y2="-249.441"/>
			<line x1="0" y1="221.108" x2="833.669" y2="-260.779"/>
			<line x1="0" y1="215.439" x2="833.669" y2="-266.448"/>
			<line x1="0" y1="209.77" x2="833.669" y2="-272.117"/>
			<line x1="0" y1="204.101" x2="833.669" y2="-277.788"/>
			<line x1="0" y1="192.761" x2="833.669" y2="-289.126"/>
			<line x1="0" y1="187.092" x2="833.669" y2="-294.795"/>
			<line x1="0" y1="181.423" x2="833.669" y2="-300.464"/>
			<line x1="0" y1="175.754" x2="833.669" y2="-306.135"/>
			<line x1="0" y1="164.415" x2="833.669" y2="-317.473"/>
			<line x1="0" y1="158.746" x2="833.669" y2="-323.142"/>
			<line x1="0" y1="153.077" x2="833.669" y2="-328.81"/>
			<line x1="0" y1="147.408" x2="833.669" y2="-334.481"/>
			<line x1="0" y1="136.068" x2="833.669" y2="-345.819"/>
			<line x1="0" y1="130.399" x2="833.669" y2="-351.488"/>
			<line x1="0" y1="124.73" x2="833.669" y2="-357.157"/>
			<line x1="0" y1="119.062" x2="833.669" y2="-362.828"/>
			<line x1="0" y1="107.722" x2="833.669" y2="-374.166"/>
			<line x1="0" y1="102.053" x2="833.669" y2="-379.834"/>
			<line x1="0" y1="96.384" x2="833.669" y2="-385.503"/>
			<line x1="0" y1="90.715" x2="833.669" y2="-391.174"/>
			<line x1="0" y1="79.375" x2="833.669" y2="-402.512"/>
			<line x1="0" y1="73.706" x2="833.669" y2="-408.181"/>
			<line x1="0" y1="68.037" x2="833.669" y2="-413.85"/>
			<line x1="0" y1="62.368" x2="833.669" y2="-419.521"/>
			<line x1="0" y1="51.029" x2="833.669" y2="-430.858"/>
			<line x1="0" y1="45.36" x2="833.669" y2="-436.527"/>
			<line x1="0" y1="39.691" x2="833.669" y2="-442.196"/>
			<line x1="0" y1="34.022" x2="833.669" y2="-447.867"/>
			<line x1="0" y1="22.682" x2="833.669" y2="-459.205"/>
			<line x1="0" y1="17.013" x2="833.669" y2="-464.874"/>
			<line x1="0" y1="11.344" x2="833.669" y2="-470.543"/>
			<line x1="0" y1="5.675" x2="833.669" y2="-476.214"/>
		</g>
	</g>
</g>

<g id="FONT" fill="none" stroke="#282829" stroke-width="9.8079" stroke-linecap="round" stroke-linejoin="round" stroke-miterlimit="3" transform="translate(0,11.338)">
	<g id="cara">
		<polygon id="a" points="171.638,541.425 171.638,513.078 196.157,527.252"/>
		<polyline id="b" points="220.677,484.731 245.197,498.905 220.677,513.078 220.677,467.723"/>
		<polyline id="c" points="294.236,470.559 269.717,456.386 289.332,445.047"/>
		<polyline id="d" points="343.275,413.866 318.756,428.039 343.275,442.211 343.275,396.857"/>
		<polygon id="e" points="367.795,399.691 392.315,385.52 392.315,413.866"/>
		<polyline id="f" points="436.45,354.337 426.642,348.669 416.834,354.338 416.834,371.347 426.643,365.676 416.834,371.347 416.834,399.691"/>
		<polyline id="g" points="490.394,357.172 465.874,343 490.394,328.825 490.394,374.18 475.682,365.676"/>
		<g id="h">
			<line x1="514.913" y1="297.646" x2="514.913" y2="342.999"/>
			<polyline points="514.913,314.652 534.528,303.313 534.528,331.66"/>
		</g>
		<g id="i">
			<line x1="568.857" y1="283.473" x2="568.857" y2="311.817"/>
			<polyline points="573.762,269.299 568.857,266.464 563.953,269.299"/>
		</g>
		<g id="j">
			<polyline points="632.607,235.282 627.704,232.449 622.8,235.282"/>
			<polyline points="627.704,249.456 627.704,294.81 612.992,286.306"/>
		</g>
		<g id="k">
			<line x1="171.638" y1="626.463" x2="171.638" y2="581.109"/>
			<polyline points="196.158,612.291 171.638,598.118 191.253,586.779"/>
		</g>
		<line id="l" x1="220.677" y1="552.763" x2="220.677" y2="598.118"/>
		<polyline id="m" points="269.717,569.771 269.717,541.425 279.524,547.094 279.524,535.756 294.236,544.26 294.236,555.599"/>
		<polyline id="n" points="318.756,541.425 318.756,513.078 328.563,507.408 338.371,513.078 338.371,530.085"/>
		<polygon id="o" points="367.795,484.732 367.795,501.74 377.603,507.408 387.411,501.739 387.41,484.732 377.603,479.064"/>
		<polyline id="p" points="416.834,484.732 441.354,470.558 416.834,456.385 416.834,501.74"/>
		<polyline id="q" points="490.394,442.211 465.874,428.038 490.394,413.865 490.394,459.22"/>
		<polyline id="r" points="514.913,428.038 514.913,399.691 524.721,394.022 534.529,399.691"/>
		<polyline id="s" points="583.568,360.007 563.953,371.346 588.473,385.519 563.953,399.691"/>
		<g id="t">
			<line x1="612.992" y1="325.992" x2="612.992" y2="371.346"/>
			<line x1="612.992" y1="342.999" x2="627.704" y2="334.495"/>
		</g>
		<polyline id="u" points="171.638,683.157 196.158,697.33 196.158,668.983"/>
		<polyline id="v" points="220.677,654.811 220.677,660.479 240.292,671.817 240.292,643.473"/>
		<polyline id="w" points="269.717,626.463 269.717,637.803 284.428,646.306 284.428,634.968 294.236,640.638 294.237,612.291"/>
		<g id="x">
			<line x1="318.756" y1="603.787" x2="338.371" y2="615.125"/>
			<polyline points="318.756,626.463 318.756,615.126 338.371,603.786 338.371,592.447"/>
		</g>
		<g id="y">
			<line x1="367.796" y1="569.771" x2="392.315" y2="583.943"/>
			<line x1="392.315" y1="555.599" x2="392.315" y2="600.951"/>
		</g>
		<polyline id="z" points="416.834,541.424 426.642,535.755 426.643,564.102 441.354,555.598"/>
	</g>
	
	<g id="chiffres">
		<polygon id="0" points="612.992,155.913 622.8,150.244 632.607,155.912 632.607,189.928 622.8,195.597 612.992,189.929"/>
		<polyline id="1" points="171.638,411.03 181.446,405.36 181.446,450.716"/>
		<polyline id="2" points="220.677,382.684 230.485,377.015 240.293,382.686 240.293,394.023 220.677,405.361 220.677,428.039 240.293,416.701"/>
		<polyline id="3" points="269.717,354.337 279.524,348.668 289.332,354.339 289.332,377.015 279.525,371.346 289.332,377.015 289.332,388.354 279.524,394.023 269.717,388.354"/>
		<g id="4">
			<polyline points="318.756,325.991 318.756,354.338 338.371,342.999"/>
			<line x1="328.563" y1="337.329" x2="328.563" y2="365.676"/>
		</g>
		<polyline id="5" points="387.411,297.645 377.603,291.976 367.795,297.645 367.795,314.653 377.603,308.984 387.411,314.652 387.411,331.66 377.603,337.329 367.795,331.661"/>
		<g id="6">
			<polyline points="436.45,269.298 426.643,263.63 416.834,269.299 416.834,274.967 436.45,286.306 436.451,303.314 426.643,308.984 416.834,303.314 416.834,286.306 426.643,280.637"/>
		</g>
		<g id="7">
			<polyline points="465.874,240.952 475.682,235.283 485.489,240.952 485.489,252.29 475.682,257.959 485.489,252.29 485.489,274.967"/>
		</g>
		<polygon id="8" points="514.913,218.274 514.913,212.606 524.721,206.937 534.528,212.605 534.528,218.274 514.913,229.613 514.913,246.622 524.721,252.29 534.528,246.621 534.528,229.614"/>
		<g id="9">
			<polyline points="563.953,218.275 573.761,223.944 583.568,218.274 583.568,212.605 563.953,201.267 563.953,184.259 573.761,178.59 583.568,184.259 583.569,201.267 573.76,206.937"/>
		</g>
	</g>
</g>

</svg>
