<?xml version="1.0" encoding="utf-8"?>
<!-- Hackstub logo v1 - 2015 -->
	 
<!DOCTYPE svg PUBLIC "-//W3C//DTD SVG 1.1//EN" "http://www.w3.org/Graphics/SVG/1.1/DTD/svg11.dtd">
<svg version="1.1" xmlns="http://www.w3.org/2000/svg" xmlns:xlink="http://www.w3.org/1999/xlink" x="211.834px" y="396.95px"
	 width="150px" height="150px" viewBox="211.834 396.95 150 150" enable-background="new 0 0 833.669 850.4" xml:space="preserve">

<g id="fond" display="none">
	<rect display="inline" y="0" fill="#282828" width="833.669" height="850.4"/>
</g>

<g id="PRINT">
	<g id="LOGO-COLOR-PRINT">
		<g id="hksb-color">
			<path fill="#282828" d="M335.921,454.974l-22.07-12.757V428.04c0-2.708-2.195-4.904-4.904-4.904s-4.904,2.196-4.904,4.904V443
			c1.691,0.002,3.337,0.858,4.245,2.429c1.355,2.345,0.553,5.345-1.792,6.7l-2.454,1.418v11.349l7.358,4.253
			c1.516,0.877,2.45,2.495,2.45,4.246c0,1.742-0.925,3.352-2.429,4.232l24.499-14.161c1.516-0.877,2.45-2.495,2.45-4.246
			S337.437,455.851,335.921,454.974z M313.851,464.894v-11.349l9.817,5.675L313.851,464.894z"/>
				
			<path fill="#0000FF" d="M313.851,473.395c0-1.751-0.934-3.369-2.45-4.246l-7.358-4.253l-9.817-5.674l9.817-5.675l2.454-1.418
			c2.345-1.355,3.147-4.355,1.792-6.7c-0.908-1.57-2.554-2.427-4.245-2.429c-0.835-0.002-1.68,0.189-2.455,0.637l-19.597,11.328
			c2.34-1.338,5.328-0.538,6.68,1.801c1.355,2.345,0.553,5.345-1.792,6.7l-2.455,1.419l14.722,8.51l-9.815,5.673l2.453,1.418
			c2.345,1.355,3.147,4.355,1.792,6.7c-0.909,1.572-2.556,2.45-4.25,2.45c-0.833,0-1.677-0.212-2.45-0.658l-6.675-3.858
			c-0.849,1.469-0.93,3.328-0.02,4.902c0.909,1.572,2.556,2.451,4.25,2.45c0.833,0,1.677-0.212,2.45-0.658l24.52-14.173
			c0.007-0.004,0.014-0.01,0.021-0.014C312.926,476.746,313.851,475.137,313.851,473.395z"/>
				
			<path fill="#282828" d="M289.327,489.636c1.694,0,3.341-0.878,4.25-2.45c1.355-2.345,0.553-5.345-1.792-6.7l-2.453-1.418
			l-14.722-8.509l9.815-5.674l2.455-1.419c2.345-1.355,3.147-4.355,1.792-6.7c-1.352-2.339-4.34-3.139-6.68-1.801
			c-0.006,0.004-0.013,0.005-0.02,0.009l-12.257,7.086v-8.509c0-2.708-2.195-4.904-4.904-4.904s-4.904,2.196-4.904,4.904v14.18
			l2.45-1.416c1.517-0.876,3.387-0.877,4.905-0.002c1.518,0.876,2.453,2.495,2.453,4.248v8.497l10.487,6.062l6.675,3.858
			C287.65,489.424,288.494,489.636,289.327,489.636z"/>
				
			<path fill="#0000FF" d="M267.262,466.312c-1.518-0.875-3.388-0.874-4.905,0.002l-2.45,1.416l-9.808,5.67v-8.51
			c0-2.708-2.195-4.904-4.904-4.904s-4.904,2.196-4.904,4.904v45.354c0,2.708,2.195,4.904,4.904,4.904s4.904-2.196,4.904-4.904
			v-25.515l9.808-5.67v19.848c0,2.708,2.195,4.904,4.904,4.904s4.904-2.196,4.904-4.904v-19.85v-8.497
			C269.715,468.808,268.78,467.188,267.262,466.312z"/>
				
		</g>
	</g>
</g>

</svg>
