<?xml version="1.0" encoding="utf-8"?>
<!-- Hackstub logo v1 - 2015 -->
	 
<!DOCTYPE svg PUBLIC "-//W3C//DTD SVG 1.1//EN" "http://www.w3.org/Graphics/SVG/1.1/DTD/svg11.dtd">
<svg version="1.1" xmlns="http://www.w3.org/2000/svg" xmlns:xlink="http://www.w3.org/1999/xlink" x="537.9px" y="299.7px"
	 width="160px" height="160px" viewBox="537.9 299.7 160 160" enable-background="new 0 0 833.669 850.4" xml:space="preserve">

<g id="fond" display="none">
	<rect display="inline" y="0" fill="#282828" width="833.669" height="850.4"/>
</g>

<g id="PRINT">
	<g id="LOGO-COLOR-PRINT">
		<g id="hk_sb-color">
			<path fill="#282828" d="M669.39,375.605l-22.069-12.759v-8.51c0-2.708-2.196-4.904-4.904-4.904s-4.904,2.196-4.904,4.904v2.842
			l7.358,4.253c2.345,1.355,3.146,4.355,1.792,6.7c-0.909,1.572-2.557,2.45-4.251,2.45c-0.832,0-1.677-0.212-2.449-0.658
			l-2.45-1.416v25.515c0,1.752,0.936,3.372,2.453,4.247c0.759,0.438,1.604,0.657,2.451,0.657c0.848,0,1.695-0.22,2.454-0.658
			l24.52-14.172c1.516-0.877,2.45-2.495,2.45-4.246S670.906,376.481,669.39,375.605z M647.32,385.524v-11.35l9.816,5.676
			L647.32,385.524z"/>
				
			<path fill="#0000FF" d="M642.411,370.582c1.694,0,3.342-0.878,4.251-2.45c1.354-2.345,0.553-5.345-1.792-6.7l-7.358-4.253
			l-9.816-5.674l12.271-7.093c2.345-1.355,3.146-4.355,1.792-6.7c-1.354-2.344-4.354-3.146-6.7-1.792l-12.257,7.085v-8.509
			c0-2.708-2.196-4.904-4.904-4.904s-4.904,2.196-4.904,4.904v42.523l2.45-1.416c2.347-1.354,5.345-0.552,6.7,1.792
			c0.477,0.825,0.672,1.73,0.642,2.617c0.002-0.056,0.017-0.107,0.017-0.163v-19.846l14.711,8.504l2.45,1.416
			C640.734,370.37,641.579,370.582,642.411,370.582z"/>
				
			<path fill="#0000FF" d="M595.827,386.942l7.358-4.254v-19.847c0-1.753-0.936-3.372-2.453-4.248s-3.388-0.874-4.905,0.002
			l-12.257,7.085v-8.509c0-2.708-2.196-4.904-4.904-4.904s-4.904,2.196-4.904,4.904v45.354c0,2.708,2.196,4.904,4.904,4.904
			s4.904-2.196,4.904-4.904V377.01l9.807-5.669v19.848C593.377,389.438,594.311,387.819,595.827,386.942z"/>
				
			<path fill="#282828" d="M615.442,375.604l-2.45,1.416l-9.807,5.669l-7.358,4.254c-1.517,0.877-2.45,2.495-2.45,4.246
			c0,0.297,0.036,0.587,0.088,0.872c0.014,0.075,0.028,0.148,0.045,0.223c0.062,0.271,0.14,0.539,0.247,0.795
			c0.013,0.031,0.03,0.06,0.044,0.09c0.102,0.229,0.222,0.446,0.356,0.656c0.041,0.064,0.082,0.127,0.126,0.188
			c0.159,0.226,0.331,0.442,0.527,0.64c0.007,0.007,0.016,0.013,0.022,0.02c0.189,0.188,0.399,0.355,0.619,0.512
			c0.063,0.044,0.127,0.087,0.192,0.129c0.062,0.039,0.118,0.085,0.183,0.122l17.174,9.927l-17.174,9.927
			c-2.345,1.355-3.146,4.355-1.792,6.7c0.909,1.572,2.557,2.451,4.251,2.45c0.832,0,1.677-0.212,2.449-0.658l24.52-14.173
			c1.516-0.877,2.45-2.495,2.45-4.246s-0.935-3.369-2.45-4.246l-17.175-9.927l12.271-7.093c0.048-0.027,0.085-0.065,0.131-0.095
			c0.15-0.094,0.288-0.199,0.425-0.306c0.12-0.095,0.241-0.187,0.352-0.29c0.115-0.108,0.217-0.228,0.319-0.347
			c0.105-0.12,0.212-0.238,0.305-0.368c0.092-0.129,0.168-0.267,0.246-0.402c0.077-0.135,0.157-0.267,0.221-0.408
			c0.067-0.147,0.118-0.301,0.17-0.454c0.05-0.147,0.102-0.292,0.138-0.443c0.036-0.15,0.055-0.303,0.076-0.456
			c0.024-0.171,0.046-0.341,0.052-0.514c0.03-0.887-0.165-1.792-0.642-2.617C620.787,375.052,617.789,374.249,615.442,375.604z"/>
		</g>
	</g>
</g>

</svg>
