<?xml version="1.0" encoding="utf-8"?>
<!-- Hackstub logo v1 - 2015 -->
	 
<!DOCTYPE svg PUBLIC "-//W3C//DTD SVG 1.1//EN" "http://www.w3.org/Graphics/SVG/1.1/DTD/svg11.dtd">
<svg version="1.1" xmlns="http://www.w3.org/2000/svg" xmlns:xlink="http://www.w3.org/1999/xlink" x="346.334px" y="183.7px"
	 width="200px" height="200px" viewBox="346.334 183.7 200 200" enable-background="new 0 0 833.669 850.4" xml:space="preserve">

<g id="fond" display="none">
	<rect display="inline" y="0" fill="#282828" width="833.669" height="850.4"/>
</g>

<g id="PRINT">
	<g id="LOGO-COLOR-PRINT">
		<g id="hack_stub-color">
			<path fill="#282828" d="M512.465,284.895l-22.069-12.757V257.96c0-2.708-2.196-4.904-4.904-4.904s-4.904,2.195-4.904,4.904
			v17.007c0-2.708,2.196-4.904,4.904-4.904s4.904,2.196,4.904,4.904v8.5l9.816,5.674l-9.816,5.673v8.499
			c0,1.752-0.936,3.372-2.453,4.247c-0.758,0.438-1.603,0.656-2.449,0.657c0.001,0,0.002,0,0.003,0
			c0.832,0,1.677-0.212,2.449-0.658l24.52-14.172c1.516-0.877,2.45-2.495,2.45-4.246S513.981,285.771,512.465,284.895z"/>
				
			<path fill="#0000FF" d="M490.396,303.312v-8.499v-11.347v-8.5c0-2.708-2.196-4.904-4.904-4.904s-4.904,2.196-4.904,4.904v19.848
			l-17.162-9.92c-0.05-0.028-0.103-0.042-0.152-0.068c0.782,0.416,1.468,1.037,1.944,1.86c1.354,2.345,0.553,5.345-1.792,6.7
			l-2.454,1.418l22.066,12.754c0.006,0.003,0.012,0.006,0.018,0.009c0.118,0.067,0.241,0.122,0.364,0.179
			c0.072,0.034,0.143,0.075,0.217,0.105c0.094,0.038,0.19,0.063,0.285,0.096c0.107,0.036,0.213,0.078,0.322,0.107
			c0.037,0.01,0.075,0.014,0.113,0.022c0.373,0.089,0.753,0.14,1.135,0.14c0.001,0,0.002,0,0.002,0
			c0.847-0.001,1.691-0.219,2.449-0.657C489.46,306.685,490.396,305.064,490.396,303.312z"/>
				
			<path fill="#282828" d="M465.217,286.687c-0.477-0.823-1.162-1.444-1.944-1.86c-0.153-0.082-0.311-0.147-0.471-0.213
			c-0.144-0.058-0.286-0.117-0.434-0.161c-0.148-0.044-0.299-0.072-0.45-0.103c-0.161-0.031-0.32-0.064-0.483-0.08
			c-0.15-0.015-0.301-0.012-0.453-0.013c-0.161,0-0.322-0.003-0.484,0.013c-0.152,0.015-0.303,0.047-0.454,0.076
			c-0.16,0.031-0.32,0.062-0.479,0.108c-0.14,0.042-0.274,0.099-0.412,0.154c-0.165,0.065-0.329,0.135-0.489,0.221
			c-0.048,0.025-0.1,0.038-0.146,0.065l-7.354,4.251v-8.508v-0.001v-0.001V260.79l17.161,9.92c0.772,0.446,1.617,0.658,2.449,0.658
			c1.694,0,3.342-0.878,4.251-2.45c1.354-2.345,0.553-5.344-1.792-6.7l-17.175-9.927l12.271-7.093
			c2.345-1.355,3.146-4.355,1.792-6.7c-1.355-2.344-4.354-3.147-6.7-1.792l-12.257,7.085v-8.51c0-2.708-2.196-4.904-4.904-4.904
			s-4.904,2.195-4.904,4.904v14.958c1.692,0.002,3.338,0.859,4.246,2.429c1.354,2.345,0.553,5.344-1.792,6.7l-2.454,1.418v11.349
			l7.358,4.253c2.345,1.355,3.146,4.355,1.792,6.7c-0.909,1.572-2.557,2.45-4.251,2.45c-0.832,0-1.677-0.212-2.449-0.658
			l-2.45-1.416v12.13c1.692,0.003,3.338,0.86,4.246,2.43c1.354,2.345,0.553,5.345-1.792,6.7l-2.454,1.419v11.348l7.358,4.253
			c1.516,0.877,2.45,2.495,2.45,4.246v-25.517l9.808-5.67l2.454-1.418C465.77,292.031,466.571,289.031,465.217,286.687z"/>
				
			<path fill="#0000FF" d="M448.713,321.745l-7.358-4.253l-9.816-5.674l9.816-5.674l2.454-1.419c2.345-1.355,3.146-4.355,1.792-6.7
			c-0.908-1.569-2.554-2.427-4.246-2.43c-0.834-0.001-1.68,0.19-2.454,0.638l-19.615,11.339c-1.516,0.877-2.45,2.495-2.45,4.246
			s0.934,3.369,2.45,4.246l17.175,9.927l-17.175,9.927c-2.345,1.355-3.147,4.355-1.792,6.7c0.909,1.572,2.556,2.451,4.25,2.45
			c0.833,0,1.677-0.212,2.45-0.658l24.52-14.173c0.063-0.037,0.12-0.083,0.183-0.122c0.065-0.042,0.129-0.085,0.192-0.129
			c0.221-0.156,0.431-0.324,0.62-0.513c0.007-0.006,0.015-0.012,0.021-0.019c0.196-0.197,0.368-0.414,0.527-0.64
			c0.044-0.062,0.085-0.124,0.126-0.188c0.134-0.21,0.255-0.428,0.356-0.656c0.014-0.03,0.031-0.059,0.044-0.09
			c0.107-0.256,0.185-0.523,0.247-0.796c0.018-0.073,0.031-0.146,0.045-0.221c0.052-0.286,0.088-0.576,0.088-0.873
			C451.163,324.24,450.229,322.622,448.713,321.745z"/>
				
			<path fill="#0000FF" d="M446.254,285.54c1.694,0,3.342-0.878,4.251-2.45c1.354-2.345,0.553-5.345-1.792-6.7l-7.358-4.253
			l-9.816-5.674l9.816-5.675l2.454-1.418c2.345-1.355,3.146-4.355,1.792-6.7c-0.908-1.57-2.554-2.427-4.246-2.429
			c-0.834-0.001-1.68,0.19-2.454,0.638l-19.615,11.339c-1.516,0.876-2.45,2.495-2.45,4.246s0.934,3.369,2.45,4.246l22.069,12.757
			l2.45,1.416C444.577,285.328,445.422,285.54,446.254,285.54z"/>
				
			<path fill="#282828" d="M411.93,274.968v8.499l9.817,5.675l-9.817,5.674v8.499c0,1.996-1.197,3.707-2.909,4.473
			c0.155-0.069,0.31-0.14,0.459-0.227L434,293.388c1.516-0.877,2.45-2.495,2.45-4.246s-0.934-3.369-2.45-4.246l-24.52-14.174
			c0,0-0.001,0-0.001-0.001C410.996,271.598,411.93,273.216,411.93,274.968z"/>
				
			<path fill="#0000FF" d="M408.911,307.841c0.038-0.016,0.072-0.037,0.11-0.054c1.712-0.766,2.909-2.477,2.909-4.473v-8.499
			v-11.349v-8.499c0-1.752-0.934-3.37-2.451-4.247c0,0-0.001-0.001-0.002-0.001c-0.256-0.147-0.524-0.261-0.797-0.358
			c-0.071-0.025-0.143-0.05-0.214-0.072c-0.268-0.082-0.538-0.149-0.813-0.185c-0.031-0.004-0.063-0.002-0.094-0.006
			c-0.25-0.027-0.5-0.031-0.751-0.021c-0.076,0.004-0.152,0.009-0.228,0.016c-0.275,0.024-0.548,0.064-0.817,0.137
			c-0.006,0.001-0.011,0.004-0.017,0.005c-0.261,0.071-0.516,0.171-0.765,0.285c-0.069,0.032-0.137,0.065-0.205,0.101
			c-0.067,0.035-0.137,0.062-0.204,0.101l-12.257,7.086v-8.51c0-2.708-2.195-4.904-4.904-4.904s-4.904,2.196-4.904,4.904v45.354
			c0,2.708,2.195,4.904,4.904,4.904s4.904-2.196,4.904-4.904v-25.515l9.808-5.67v19.848c0,0.094,0.022,0.182,0.028,0.273
			c0.01,0.18,0.024,0.357,0.053,0.532c0.026,0.156,0.064,0.308,0.104,0.459c0.041,0.153,0.085,0.306,0.14,0.452
			c0.063,0.168,0.139,0.327,0.219,0.485c0.074,0.146,0.146,0.294,0.234,0.431c0.043,0.068,0.088,0.135,0.135,0.2
			c0.151,0.213,0.314,0.416,0.496,0.602c0.012,0.013,0.022,0.027,0.035,0.04c0.2,0.199,0.421,0.376,0.653,0.538
			c0.054,0.038,0.11,0.072,0.166,0.108c0.204,0.131,0.418,0.248,0.641,0.348c0.042,0.02,0.081,0.042,0.124,0.061
			c0.252,0.104,0.518,0.184,0.791,0.245c0.072,0.017,0.144,0.029,0.217,0.042c0.281,0.051,0.566,0.087,0.861,0.087
			c0.003,0,0.005,0.001,0.008,0.001c0,0,0.001,0,0.002,0c0.3,0,0.59-0.037,0.875-0.089c0.068-0.012,0.135-0.024,0.203-0.039
			C408.383,308.028,408.654,307.948,408.911,307.841z"/>
		</g>
	</g>
</g>

</svg>
