<?xml version="1.0" encoding="utf-8"?>
<!-- Hackstub logo v1 - 2015 -->

<!DOCTYPE svg PUBLIC "-//W3C//DTD SVG 1.1//EN" "http://www.w3.org/Graphics/SVG/1.1/DTD/svg11.dtd">
<svg version="1.1" id="Calque_1" xmlns="http://www.w3.org/2000/svg" xmlns:xlink="http://www.w3.org/1999/xlink" x="0px" y="0px"
	 width="600px" height="500px" viewBox="0 0 600 500" enable-background="new 0 0 600 500" xml:space="preserve">
<g id="PRINT">
	<g id="LOGO-COLOR-PRINT">
		<g id="hs-color">
			<path fill="#0000FF" d="M277.93,394.561l-7.345-4.245l-9.817,5.675v-11.35v-8.497c0-1.753-0.935-3.372-2.453-4.248
				c-1.518-0.876-3.388-0.874-4.904,0.002l-2.45,1.416l-9.809,5.67v-7.094c0-2.708-2.194-4.904-4.903-4.904
				s-4.904,2.196-4.904,4.904v43.938c0,2.707,2.195,4.903,4.904,4.903s4.903-2.196,4.903-4.903v-25.516l9.809-5.67v19.848
				c0,1.753,0.935,3.372,2.453,4.248c0.758,0.438,1.604,0.656,2.45,0.656c0.849,0,1.695-0.22,2.455-0.659l24.473-14.147
				c-0.735,0.413-1.567,0.632-2.411,0.632C279.546,395.219,278.702,395.007,277.93,394.561z"/>
			<path fill="#282828" d="M284.629,392.769c0.027-0.048,0.041-0.1,0.066-0.147c0.084-0.158,0.152-0.319,0.219-0.482
				c0.057-0.141,0.113-0.279,0.156-0.422c0.046-0.153,0.075-0.31,0.105-0.465c0.03-0.156,0.062-0.312,0.078-0.469
				c0.015-0.156,0.013-0.313,0.013-0.472c0-0.155,0.002-0.311-0.013-0.465c-0.017-0.159-0.048-0.315-0.079-0.474
				c-0.03-0.154-0.06-0.309-0.104-0.46c-0.043-0.145-0.102-0.283-0.157-0.424c-0.066-0.164-0.135-0.325-0.218-0.481
				c-0.066-0.126-0.146-0.246-0.225-0.367c-0.098-0.149-0.199-0.296-0.314-0.437c-0.099-0.118-0.206-0.23-0.315-0.343
				c-0.113-0.111-0.228-0.222-0.353-0.325c-0.134-0.108-0.277-0.21-0.426-0.307c-0.078-0.051-0.144-0.115-0.225-0.162l-17.175-9.927
				l12.271-7.093c2.345-1.355,3.147-4.355,1.792-6.7c-1.354-2.345-4.354-3.146-6.7-1.792l-12.258,7.086v-7.092
				c0-2.708-2.195-4.904-4.904-4.904s-4.903,2.196-4.903,4.904v12.763l2.45-1.416c1.517-0.876,3.387-0.878,4.904-0.002
				c1.519,0.876,2.453,2.495,2.453,4.248v8.497l9.817,5.675l7.345,4.245c0.773,0.446,1.617,0.658,2.45,0.658
				c0.844,0,1.676-0.22,2.411-0.633c0.006-0.003,0.013-0.007,0.019-0.011c0.021-0.012,0.04-0.026,0.062-0.04
				c0.24-0.142,0.468-0.31,0.684-0.493c0.049-0.041,0.099-0.082,0.146-0.125c0.206-0.189,0.4-0.395,0.575-0.623
				c0.03-0.039,0.056-0.084,0.084-0.125C284.454,393.04,284.547,392.91,284.629,392.769z"/>
		</g>
		<g id="hk_sb-color">
			<path fill="#282828" d="M562.363,224.496l-22.068-12.759v-8.511c0-2.708-2.197-4.903-4.904-4.903
				c-2.709,0-4.904,2.195-4.904,4.903v2.843l7.357,4.253c2.346,1.354,3.146,4.354,1.793,6.699c-0.91,1.572-2.557,2.45-4.252,2.45
				c-0.832,0-1.676-0.212-2.449-0.658l-2.449-1.416v25.516c0,1.752,0.936,3.372,2.453,4.247c0.758,0.438,1.604,0.656,2.451,0.656
				s1.695-0.22,2.453-0.658l24.52-14.171c1.518-0.877,2.451-2.495,2.451-4.246S563.879,225.372,562.363,224.496z M540.293,234.415
				v-11.351l9.816,5.677L540.293,234.415z"/>
			<path fill="#0000FF" d="M535.385,219.473c1.693,0,3.342-0.878,4.25-2.45c1.354-2.345,0.553-5.345-1.791-6.699l-7.359-4.253
				l-9.814-5.675l12.27-7.093c2.346-1.354,3.146-4.354,1.793-6.7c-1.354-2.344-4.354-3.146-6.701-1.792l-12.256,7.085v-8.509
				c0-2.708-2.195-4.904-4.904-4.904c-2.707,0-4.904,2.196-4.904,4.904v42.523l2.451-1.416c2.346-1.354,5.344-0.553,6.699,1.792
				c0.477,0.825,0.672,1.729,0.643,2.617c0.002-0.057,0.016-0.107,0.016-0.163v-19.847l14.711,8.504l2.451,1.416
				C533.707,219.261,534.553,219.473,535.385,219.473z"/>
			<path fill="#0000FF" d="M488.801,235.833l7.357-4.254v-19.848c0-1.753-0.936-3.372-2.453-4.248s-3.389-0.873-4.904,0.003
				l-12.258,7.085v-8.51c0-2.708-2.195-4.903-4.904-4.903c-2.707,0-4.904,2.195-4.904,4.903v45.354c0,2.708,2.197,4.903,4.904,4.903
				c2.709,0,4.904-2.195,4.904-4.903v-25.516l9.807-5.669v19.849C486.35,238.329,487.283,236.71,488.801,235.833z"/>
			<path fill="#282828" d="M508.416,224.495l-2.451,1.416l-9.807,5.669l-7.357,4.254c-1.518,0.877-2.451,2.495-2.451,4.246
				c0,0.297,0.037,0.587,0.088,0.872c0.014,0.075,0.029,0.147,0.045,0.223c0.062,0.271,0.141,0.539,0.248,0.795
				c0.012,0.031,0.029,0.061,0.043,0.09c0.104,0.229,0.223,0.446,0.357,0.656c0.041,0.064,0.082,0.127,0.125,0.188
				c0.16,0.226,0.332,0.441,0.527,0.64c0.008,0.007,0.016,0.013,0.021,0.02c0.189,0.188,0.398,0.355,0.619,0.513
				c0.062,0.044,0.127,0.087,0.191,0.129c0.062,0.039,0.119,0.085,0.184,0.122l17.174,9.927l-17.174,9.927
				c-2.344,1.354-3.146,4.354-1.791,6.7c0.908,1.572,2.557,2.451,4.25,2.45c0.832,0,1.678-0.212,2.449-0.658l24.52-14.173
				c1.516-0.877,2.451-2.495,2.451-4.246s-0.936-3.369-2.451-4.246l-17.174-9.927l12.27-7.093c0.049-0.027,0.086-0.065,0.131-0.096
				c0.15-0.094,0.289-0.198,0.426-0.306c0.121-0.095,0.24-0.188,0.352-0.29c0.115-0.108,0.217-0.228,0.32-0.347
				c0.104-0.12,0.211-0.238,0.305-0.368c0.092-0.129,0.168-0.268,0.246-0.402c0.076-0.135,0.156-0.267,0.221-0.408
				c0.066-0.146,0.117-0.301,0.17-0.453c0.049-0.147,0.102-0.292,0.139-0.443c0.035-0.15,0.055-0.303,0.074-0.456
				c0.025-0.171,0.047-0.341,0.053-0.514c0.029-0.888-0.164-1.792-0.643-2.617C513.76,223.943,510.762,223.14,508.416,224.495z"/>
		</g>
		<g id="hksb-color">
			<path fill="#282828" d="M228.894,303.865l-22.07-12.757v-14.177c0-2.708-2.194-4.904-4.903-4.904
				c-2.709,0-4.904,2.196-4.904,4.904v14.96c1.691,0.002,3.337,0.858,4.245,2.429c1.354,2.346,0.553,5.346-1.792,6.7l-2.454,1.418
				v11.35l7.358,4.253c1.516,0.877,2.449,2.494,2.449,4.245c0,1.742-0.925,3.353-2.429,4.232l24.499-14.161
				c1.516-0.877,2.45-2.495,2.45-4.246S230.411,304.741,228.894,303.865z M206.824,313.784v-11.349l9.817,5.675L206.824,313.784z"/>
			<path fill="#0000FF" d="M206.824,322.285c0-1.751-0.934-3.368-2.449-4.245l-7.358-4.253l-9.817-5.675l9.817-5.675l2.454-1.418
				c2.345-1.354,3.146-4.354,1.792-6.7c-0.908-1.569-2.554-2.427-4.245-2.429c-0.835-0.002-1.68,0.189-2.455,0.637l-19.597,11.328
				c2.34-1.338,5.328-0.538,6.68,1.801c1.355,2.346,0.553,5.346-1.792,6.7l-2.455,1.419l14.722,8.51l-9.815,5.674l2.453,1.418
				c2.345,1.354,3.147,4.354,1.792,6.699c-0.909,1.572-2.556,2.45-4.25,2.45c-0.833,0-1.677-0.212-2.45-0.657l-6.675-3.858
				c-0.849,1.469-0.93,3.328-0.02,4.902c0.909,1.571,2.556,2.45,4.25,2.449c0.833,0,1.677-0.212,2.45-0.657l24.521-14.174
				c0.007-0.004,0.014-0.01,0.021-0.014C205.899,325.637,206.824,324.028,206.824,322.285z"/>
			<path fill="#282828" d="M182.3,338.527c1.694,0,3.341-0.878,4.25-2.45c1.355-2.345,0.553-5.345-1.792-6.699l-2.453-1.418
				l-14.722-8.51l9.815-5.674l2.455-1.419c2.345-1.354,3.147-4.354,1.792-6.7c-1.352-2.339-4.34-3.139-6.68-1.801
				c-0.006,0.004-0.013,0.005-0.02,0.009l-12.257,7.086v-8.509c0-2.708-2.195-4.904-4.904-4.904s-4.904,2.196-4.904,4.904v14.18
				l2.45-1.416c1.517-0.876,3.387-0.877,4.905-0.002c1.518,0.876,2.453,2.495,2.453,4.248v8.497l10.487,6.062l6.675,3.857
				C180.623,338.315,181.467,338.527,182.3,338.527z"/>
			<path fill="#0000FF" d="M160.235,315.203c-1.518-0.875-3.388-0.874-4.905,0.002l-2.45,1.416l-9.808,5.67v-8.511
				c0-2.708-2.195-4.903-4.904-4.903s-4.904,2.195-4.904,4.903v45.354c0,2.708,2.195,4.904,4.904,4.904s4.904-2.196,4.904-4.904
				v-25.516l9.808-5.67v19.849c0,2.708,2.195,4.903,4.904,4.903s4.904-2.195,4.904-4.903v-19.851v-8.497
				C162.688,317.698,161.753,316.078,160.235,315.203z"/>
		</g>
		<g id="hack_stub-color">
			<path fill="#282828" d="M405.438,133.786l-22.068-12.757v-14.179c0-2.708-2.195-4.903-4.904-4.903
				c-2.707,0-4.904,2.194-4.904,4.903v17.007c0-2.708,2.197-4.903,4.904-4.903c2.709,0,4.904,2.195,4.904,4.903v8.5l9.816,5.675
				l-9.816,5.673v8.499c0,1.752-0.936,3.372-2.453,4.247c-0.758,0.438-1.604,0.655-2.449,0.656c0.002,0,0.002,0,0.004,0
				c0.832,0,1.676-0.212,2.449-0.657l24.52-14.172c1.516-0.878,2.449-2.495,2.449-4.246S406.955,134.662,405.438,133.786z"/>
			<path fill="#0000FF" d="M383.369,152.203v-8.499v-11.348v-8.5c0-2.708-2.195-4.903-4.904-4.903c-2.707,0-4.904,2.195-4.904,4.903
				v19.849l-17.162-9.92c-0.049-0.028-0.102-0.042-0.15-0.068c0.781,0.416,1.467,1.037,1.943,1.86
				c1.354,2.345,0.553,5.345-1.793,6.699l-2.453,1.418l22.066,12.755c0.006,0.003,0.012,0.006,0.018,0.009
				c0.117,0.066,0.24,0.122,0.363,0.179c0.072,0.034,0.145,0.075,0.217,0.105c0.096,0.038,0.191,0.062,0.285,0.096
				c0.107,0.036,0.213,0.078,0.322,0.107c0.037,0.01,0.076,0.014,0.113,0.021c0.373,0.089,0.754,0.14,1.135,0.14
				c0.002,0,0.002,0,0.002,0c0.848-0.001,1.691-0.219,2.449-0.656C382.434,155.576,383.369,153.955,383.369,152.203z"/>
			<path fill="#282828" d="M358.189,135.578c-0.477-0.823-1.162-1.444-1.943-1.86c-0.152-0.082-0.311-0.146-0.471-0.213
				c-0.145-0.058-0.287-0.117-0.434-0.161c-0.148-0.044-0.299-0.072-0.451-0.103c-0.16-0.031-0.32-0.064-0.482-0.08
				c-0.15-0.016-0.301-0.013-0.453-0.014c-0.16,0-0.322-0.003-0.484,0.014c-0.152,0.015-0.303,0.047-0.453,0.076
				c-0.16,0.03-0.32,0.062-0.479,0.107c-0.141,0.042-0.275,0.099-0.412,0.154c-0.166,0.064-0.33,0.135-0.49,0.221
				c-0.047,0.025-0.1,0.038-0.146,0.065l-7.354,4.251v-8.508v-0.002v-0.001v-19.845l17.162,9.92
				c0.771,0.446,1.617,0.658,2.449,0.658c1.693,0,3.342-0.878,4.25-2.45c1.354-2.345,0.553-5.344-1.791-6.7l-17.176-9.927
				l12.271-7.093c2.344-1.355,3.145-4.355,1.791-6.7c-1.355-2.344-4.354-3.146-6.699-1.792l-12.258,7.085v-8.51
				c0-2.708-2.195-4.904-4.904-4.904c-2.707,0-4.902,2.195-4.902,4.904V99.13c1.691,0.002,3.338,0.859,4.244,2.429
				c1.355,2.346,0.555,5.344-1.791,6.7l-2.453,1.418v11.349l7.357,4.253c2.344,1.355,3.146,4.355,1.791,6.7
				c-0.908,1.572-2.557,2.45-4.25,2.45c-0.832,0-1.678-0.212-2.449-0.658l-2.449-1.416v12.13c1.691,0.004,3.338,0.86,4.244,2.431
				c1.355,2.345,0.555,5.345-1.791,6.7l-2.453,1.419v11.348l7.357,4.253c1.516,0.877,2.449,2.495,2.449,4.246v-25.517l9.809-5.671
				l2.453-1.418C358.742,140.922,359.545,137.922,358.189,135.578z"/>
			<path fill="#0000FF" d="M341.686,170.636l-7.357-4.253l-9.816-5.674l9.816-5.674l2.453-1.419c2.346-1.355,3.146-4.355,1.793-6.7
				c-0.908-1.569-2.555-2.427-4.246-2.431c-0.834-0.001-1.68,0.19-2.453,0.639l-19.615,11.339c-1.518,0.877-2.451,2.495-2.451,4.246
				s0.934,3.369,2.451,4.246l17.174,9.927l-17.174,9.927c-2.346,1.355-3.148,4.355-1.793,6.7c0.91,1.572,2.557,2.451,4.25,2.45
				c0.834,0,1.678-0.212,2.451-0.658l24.52-14.173c0.062-0.037,0.119-0.083,0.184-0.122c0.064-0.042,0.129-0.085,0.191-0.129
				c0.221-0.156,0.43-0.324,0.619-0.513c0.008-0.007,0.016-0.013,0.021-0.02c0.195-0.197,0.367-0.414,0.527-0.64
				c0.043-0.062,0.084-0.124,0.125-0.188c0.135-0.21,0.256-0.428,0.357-0.656c0.014-0.029,0.029-0.059,0.043-0.09
				c0.107-0.256,0.186-0.522,0.248-0.796c0.018-0.073,0.029-0.146,0.045-0.221c0.051-0.286,0.088-0.576,0.088-0.873
				C344.137,173.131,343.201,171.513,341.686,170.636z"/>
			<path fill="#0000FF" d="M339.227,134.431c1.695,0,3.342-0.878,4.252-2.45c1.354-2.345,0.553-5.345-1.793-6.699l-7.357-4.254
				l-9.816-5.674l9.816-5.675l2.453-1.418c2.346-1.354,3.146-4.354,1.793-6.7c-0.908-1.569-2.555-2.427-4.246-2.429
				c-0.834-0.001-1.68,0.19-2.453,0.638l-19.615,11.339c-1.518,0.876-2.451,2.495-2.451,4.246s0.934,3.369,2.451,4.246
				l22.068,12.757l2.449,1.416C337.551,134.219,338.395,134.431,339.227,134.431z"/>
			<path fill="#282828" d="M304.902,123.859v8.499l9.818,5.676l-9.818,5.674v8.499c0,1.996-1.195,3.707-2.908,4.473
				c0.154-0.069,0.311-0.14,0.459-0.227l24.52-14.173c1.516-0.878,2.451-2.495,2.451-4.246s-0.936-3.369-2.451-4.246l-24.52-14.174
				c0,0-0.002,0-0.002-0.002C303.969,120.49,304.902,122.107,304.902,123.859z"/>
			<path fill="#0000FF" d="M301.885,156.732c0.037-0.016,0.072-0.036,0.109-0.054c1.713-0.766,2.908-2.477,2.908-4.473v-8.499
				v-11.35v-8.499c0-1.752-0.934-3.369-2.451-4.246c0,0,0-0.002-0.002-0.002c-0.256-0.146-0.523-0.261-0.797-0.357
				c-0.07-0.025-0.143-0.05-0.213-0.072c-0.268-0.082-0.539-0.148-0.812-0.185c-0.031-0.004-0.064-0.002-0.096-0.006
				c-0.25-0.027-0.5-0.031-0.75-0.021c-0.075,0.004-0.151,0.009-0.228,0.016c-0.275,0.024-0.548,0.064-0.817,0.138
				c-0.006,0.001-0.011,0.004-0.017,0.005c-0.261,0.071-0.516,0.171-0.765,0.285c-0.069,0.031-0.138,0.064-0.205,0.101
				c-0.067,0.035-0.138,0.062-0.204,0.102l-12.257,7.086v-8.511c0-2.708-2.195-4.903-4.904-4.903s-4.904,2.195-4.904,4.903v45.354
				c0,2.708,2.195,4.904,4.904,4.904s4.904-2.196,4.904-4.904v-25.515l9.808-5.671v19.849c0,0.094,0.022,0.182,0.028,0.272
				c0.01,0.181,0.023,0.357,0.053,0.532c0.026,0.156,0.063,0.309,0.104,0.459c0.041,0.153,0.085,0.306,0.141,0.452
				c0.062,0.168,0.139,0.327,0.219,0.485c0.074,0.146,0.146,0.294,0.234,0.431c0.043,0.068,0.088,0.135,0.135,0.2
				c0.151,0.213,0.313,0.416,0.496,0.602c0.012,0.014,0.021,0.027,0.035,0.04c0.2,0.199,0.421,0.376,0.652,0.538
				c0.055,0.038,0.11,0.072,0.166,0.108c0.204,0.131,0.418,0.248,0.642,0.348c0.042,0.021,0.081,0.042,0.124,0.062
				c0.252,0.104,0.518,0.184,0.791,0.244c0.071,0.018,0.144,0.029,0.217,0.042c0.281,0.052,0.565,0.087,0.861,0.087
				c0.003,0,0.005,0.002,0.008,0.002c0,0,0.001,0,0.002,0c0.3,0,0.59-0.037,0.875-0.09c0.066-0.012,0.135-0.023,0.203-0.039
				C301.355,156.919,301.627,156.839,301.885,156.732z"/>
		</g>
		<g id="hackstub-color">
			<path fill="#282828" d="M209.28,201.821l-22.07-12.76v-14.177c0-2.708-2.195-4.904-4.904-4.904s-4.904,2.196-4.904,4.904v16.912
				c0,0.031,0,0.062,0,0.095c0-2.708,2.195-4.903,4.904-4.903s4.904,2.195,4.904,4.903v8.498l9.817,5.676l-9.817,5.675v8.497
				c0,1.753-0.935,3.372-2.453,4.247c-0.379,0.22-0.78,0.384-1.192,0.493c0.413-0.109,0.815-0.273,1.195-0.494l24.52-14.172
				c1.517-0.877,2.45-2.495,2.45-4.246S210.795,202.697,209.28,201.821z"/>
			<path fill="#0000FF" d="M187.209,220.238v-8.498v-11.351v-8.498c0-2.708-2.195-4.903-4.904-4.903s-4.904,2.195-4.904,4.903
				c0,0.028,0,0.057,0,0.084v19.765l-17.162-9.92c-0.05-0.029-0.104-0.044-0.154-0.069c0.783,0.416,1.469,1.037,1.946,1.861
				c1.355,2.345,0.553,5.345-1.792,6.699l-2.454,1.418l22.066,12.754c0.38,0.221,0.782,0.385,1.195,0.494
				c0.192,0.052,0.387,0.087,0.583,0.114c0.014,0.002,0.028,0.007,0.042,0.009c0.21,0.027,0.422,0.041,0.634,0.041
				c0.423,0,0.847-0.055,1.259-0.164c0.412-0.109,0.813-0.273,1.192-0.493C186.274,223.609,187.209,221.99,187.209,220.238z"/>
			<path fill="#282828" d="M162.031,203.612c-0.477-0.824-1.163-1.445-1.946-1.861c-0.152-0.081-0.31-0.146-0.469-0.211
				c-0.143-0.059-0.284-0.117-0.431-0.161c-0.152-0.045-0.306-0.074-0.461-0.104c-0.156-0.029-0.311-0.062-0.469-0.077
				c-0.159-0.017-0.317-0.014-0.478-0.014c-0.152,0-0.304-0.002-0.457,0.013c-0.163,0.016-0.324,0.05-0.486,0.081
				c-0.149,0.029-0.298,0.058-0.445,0.102c-0.149,0.044-0.294,0.104-0.441,0.164c-0.156,0.062-0.311,0.128-0.462,0.208
				c-0.051,0.027-0.105,0.041-0.155,0.07l-7.354,4.251v-8.509c0-2.708-2.195-4.903-4.904-4.903s-4.904,2.195-4.904,4.903v14.958
				c1.691,0.002,3.337,0.859,4.245,2.431c1.355,2.345,0.553,5.345-1.792,6.7l-2.454,1.418v11.349l7.358,4.253
				c1.516,0.877,2.45,2.495,2.45,4.246V217.4l9.808-5.67l2.454-1.418C162.584,208.955,163.387,205.955,162.031,203.612z"/>
			<path fill="#0000FF" d="M121.004,258.5l-6.676-3.859c-0.848,1.469-0.929,3.328-0.02,4.901c0.909,1.571,2.556,2.45,4.25,2.449
				c0.833,0,1.677-0.212,2.45-0.657l4.855-2.808c-0.735,0.412-1.566,0.631-2.41,0.631
				C122.621,259.158,121.777,258.947,121.004,258.5z"/>
			<path fill="#0000FF" d="M145.528,238.669l-7.358-4.253l-9.817-5.674l9.817-5.676l2.454-1.418
				c2.345-1.354,3.147-4.354,1.792-6.699c-0.908-1.57-2.554-2.429-4.245-2.431c-0.835-0.001-1.68,0.19-2.455,0.639l-19.613,11.338
				c2.342-1.353,5.343-0.552,6.697,1.793c1.355,2.345,0.553,5.345-1.792,6.7l-2.454,1.418l14.72,8.509l-9.816,5.674l2.455,1.419
				c2.345,1.354,3.147,4.354,1.792,6.7c-0.452,0.78-1.086,1.391-1.818,1.807l19.642-11.354c0.064-0.037,0.121-0.083,0.183-0.122
				c0.065-0.042,0.129-0.085,0.192-0.129c0.222-0.157,0.433-0.326,0.624-0.516c0.006-0.006,0.012-0.011,0.018-0.016
				c0.197-0.198,0.37-0.415,0.529-0.643c0.042-0.061,0.083-0.123,0.123-0.186c0.135-0.211,0.257-0.43,0.358-0.66
				c0.013-0.028,0.031-0.058,0.043-0.087c0.107-0.257,0.185-0.523,0.247-0.797c0.017-0.073,0.031-0.146,0.044-0.222
				c0.052-0.285,0.088-0.575,0.088-0.872C147.977,241.164,147.044,239.546,145.528,238.669z"/>
			<path fill="#282828" d="M127.704,256.708c1.355-2.346,0.553-5.346-1.792-6.7l-2.455-1.419l-14.72-8.508l9.816-5.675l2.454-1.418
				c2.345-1.355,3.147-4.355,1.792-6.7c-1.354-2.346-4.355-3.146-6.697-1.793c-0.001,0-0.002,0.001-0.002,0.001l-12.258,7.086v-8.51
				c0-2.708-2.195-4.904-4.904-4.904s-4.904,2.196-4.904,4.904v14.958c1.691,0.003,3.337,0.858,4.245,2.43
				c1.355,2.345,0.553,5.345-1.792,6.699l-2.454,1.418v11.35l7.358,4.253c1.655,0.957,2.521,2.732,2.422,4.52
				c0.005-0.092,0.027-0.18,0.027-0.272V248.58l10.486,6.062l6.676,3.859c0.773,0.445,1.617,0.657,2.45,0.657
				c0.843,0,1.675-0.219,2.41-0.631c0.007-0.004,0.015-0.009,0.022-0.013C126.618,258.099,127.252,257.49,127.704,256.708z"/>
			<path fill="#0000FF" d="M101.392,264.18l-7.358-4.253l-9.817-5.674l9.817-5.675l2.454-1.419c2.345-1.354,3.147-4.354,1.792-6.699
				c-0.908-1.57-2.554-2.427-4.245-2.43c-0.835-0.001-1.68,0.189-2.455,0.638l-19.615,11.339c-1.516,0.877-2.45,2.495-2.45,4.246
				s0.934,3.369,2.45,4.246l24.52,14.173c0.149,0.086,0.304,0.156,0.458,0.226c0.038,0.018,0.074,0.039,0.112,0.056
				c0.263,0.109,0.533,0.188,0.804,0.25c0.067,0.015,0.135,0.026,0.203,0.038c0.29,0.054,0.582,0.09,0.873,0.09
				c0.001,0,0.002,0,0.003,0c0.003,0,0.006-0.001,0.009-0.001c0.289-0.002,0.575-0.035,0.857-0.087
				c0.075-0.014,0.15-0.026,0.224-0.044c0.268-0.062,0.531-0.139,0.785-0.243c0.045-0.02,0.088-0.044,0.133-0.063
				c0.218-0.099,0.428-0.214,0.631-0.343c0.057-0.037,0.114-0.072,0.17-0.111c0.229-0.16,0.449-0.336,0.651-0.537
				c0.013-0.013,0.023-0.027,0.037-0.041c0.179-0.184,0.342-0.386,0.495-0.6c0.046-0.065,0.091-0.133,0.135-0.201
				c0.039-0.061,0.083-0.115,0.12-0.179c0.047-0.081,0.072-0.169,0.113-0.252c0.081-0.16,0.157-0.32,0.219-0.485
				c0.056-0.148,0.1-0.3,0.14-0.452c0.041-0.151,0.079-0.306,0.104-0.459c0.029-0.178,0.043-0.354,0.054-0.531
				C103.913,266.913,103.047,265.137,101.392,264.18z"/>
			<path fill="#282828" d="M86.68,272.686l-24.52-14.174c0,0-0.001,0-0.001-0.001c1.517,0.877,2.451,2.495,2.451,4.247v8.499
				l9.817,5.675l-9.817,5.674v8.499c0,1.996-1.197,3.707-2.909,4.473c0.155-0.068,0.31-0.14,0.459-0.227l24.52-14.173
				c1.516-0.877,2.45-2.495,2.45-4.246S88.196,273.563,86.68,272.686z"/>
			<path fill="#0000FF" d="M64.61,291.105v-8.499v-11.349v-8.499c0-1.752-0.934-3.37-2.451-4.247c0,0-0.001-0.001-0.002-0.001
				c-0.256-0.147-0.524-0.261-0.797-0.358c-0.071-0.024-0.142-0.05-0.214-0.071c-0.267-0.082-0.538-0.149-0.812-0.186
				c-0.032-0.004-0.063-0.002-0.095-0.006c-0.25-0.027-0.5-0.031-0.75-0.021c-0.076,0.004-0.152,0.009-0.229,0.016
				c-0.275,0.023-0.548,0.063-0.816,0.136c-0.006,0.002-0.012,0.005-0.018,0.006c-0.261,0.071-0.515,0.171-0.764,0.285
				c-0.069,0.031-0.137,0.065-0.205,0.102c-0.067,0.034-0.138,0.062-0.204,0.101l-12.257,7.086v-8.51
				c0-2.708-2.195-4.904-4.904-4.904s-4.904,2.196-4.904,4.904v45.354c0,2.708,2.195,4.904,4.904,4.904s4.904-2.196,4.904-4.904
				v-25.515l9.808-5.67v19.848c0,0.094,0.022,0.183,0.028,0.273c0.01,0.18,0.024,0.357,0.053,0.532
				c0.026,0.155,0.064,0.308,0.104,0.459c0.041,0.152,0.085,0.306,0.14,0.451c0.063,0.168,0.139,0.327,0.219,0.485
				c0.074,0.146,0.146,0.294,0.234,0.431c0.043,0.068,0.088,0.136,0.135,0.2c0.151,0.213,0.314,0.416,0.496,0.603
				c0.012,0.013,0.022,0.026,0.035,0.04c0.2,0.197,0.421,0.376,0.653,0.537c0.054,0.038,0.11,0.072,0.166,0.108
				c0.204,0.131,0.418,0.248,0.641,0.348c0.042,0.021,0.081,0.042,0.124,0.061c0.252,0.104,0.518,0.185,0.791,0.246
				c0.072,0.017,0.144,0.028,0.217,0.042c0.281,0.051,0.566,0.087,0.861,0.087c0.003,0,0.005,0.001,0.008,0.001c0,0,0.001,0,0.002,0
				c0.3,0,0.59-0.037,0.875-0.089c0.068-0.013,0.135-0.024,0.203-0.039c0.277-0.062,0.548-0.144,0.805-0.25
				c0.038-0.017,0.072-0.037,0.11-0.054C63.413,294.812,64.61,293.101,64.61,291.105z"/>
		</g>
	</g>
</g>
</svg>
