<?xml version="1.0" encoding="utf-8"?>
<!-- Hackstub logo v1 - 2015 -->
	 
<!DOCTYPE svg PUBLIC "-//W3C//DTD SVG 1.1//EN" "http://www.w3.org/Graphics/SVG/1.1/DTD/svg11.dtd">
<svg version="1.1" xmlns="http://www.w3.org/2000/svg" xmlns:xlink="http://www.w3.org/1999/xlink" x="305.344px" y="479.298px"
	 width="120px" height="120px" viewBox="305.344 479.298 120 120" enable-background="new 0 0 833.669 850.4" xml:space="preserve">

<g id="fond" display="none">
	<rect display="inline" y="0" fill="#282828" width="833.669" height="850.4"/>
</g>

<g id="PRINT">
	<g id="LOGO-COLOR-PRINT">
		<g id="hs-color">
			<path fill="#0000FF" d="M384.957,545.67l-7.345-4.245l-9.817,5.675v-11.35v-8.497c0-1.753-0.935-3.372-2.453-4.248
			c-1.518-0.876-3.388-0.874-4.905,0.002l-2.45,1.416l-9.808,5.67v-7.094c0-2.708-2.195-4.904-4.904-4.904
			s-4.904,2.196-4.904,4.904v43.938c0,2.708,2.195,4.904,4.904,4.904s4.904-2.196,4.904-4.904v-25.515l9.808-5.67V555.6
			c0,1.753,0.935,3.372,2.453,4.248c0.758,0.438,1.604,0.656,2.451,0.656c0.848,0,1.695-0.22,2.455-0.659l24.472-14.148
			c-0.735,0.413-1.567,0.632-2.411,0.632C386.573,546.328,385.729,546.116,384.957,545.67z"/>
				
			<path fill="#282828" d="M391.656,543.878c0.028-0.048,0.041-0.1,0.067-0.148c0.084-0.158,0.152-0.319,0.218-0.482
			c0.057-0.141,0.114-0.279,0.157-0.422c0.046-0.153,0.075-0.309,0.105-0.465c0.03-0.156,0.063-0.311,0.078-0.468
			s0.013-0.314,0.013-0.472c0-0.155,0.002-0.311-0.013-0.465c-0.016-0.159-0.048-0.315-0.079-0.473
			c-0.03-0.155-0.059-0.309-0.104-0.46c-0.043-0.145-0.102-0.284-0.158-0.424c-0.066-0.164-0.134-0.325-0.217-0.482
			c-0.067-0.126-0.146-0.246-0.225-0.367c-0.098-0.149-0.199-0.296-0.314-0.436c-0.099-0.119-0.206-0.231-0.316-0.343
			c-0.113-0.112-0.227-0.222-0.352-0.325c-0.134-0.109-0.278-0.21-0.426-0.307c-0.078-0.051-0.144-0.115-0.225-0.162l-17.175-9.927
			l12.271-7.093c2.345-1.355,3.147-4.355,1.792-6.7c-1.355-2.345-4.355-3.146-6.7-1.792l-12.258,7.086v-7.092
			c0-2.708-2.195-4.904-4.904-4.904s-4.904,2.196-4.904,4.904v12.763l2.45-1.416c1.517-0.876,3.387-0.878,4.905-0.002
			c1.518,0.876,2.453,2.495,2.453,4.248v8.497l9.817,5.675l7.345,4.245c0.773,0.446,1.617,0.658,2.45,0.658
			c0.844,0,1.676-0.219,2.411-0.632c0.006-0.003,0.013-0.007,0.019-0.011c0.021-0.012,0.04-0.027,0.061-0.04
			c0.241-0.142,0.468-0.31,0.684-0.493c0.049-0.041,0.099-0.082,0.146-0.125c0.207-0.19,0.401-0.395,0.576-0.623
			c0.03-0.04,0.055-0.084,0.084-0.125C391.48,544.149,391.574,544.02,391.656,543.878z"/>
		</g>
	</g>
</g>

</svg>
