<?xml version="1.0" encoding="utf-8"?>
<!-- Hackstub logo v1 - 2015 -->
	 
<!DOCTYPE svg PUBLIC "-//W3C//DTD SVG 1.1//EN" "http://www.w3.org/Graphics/SVG/1.1/DTD/svg11.dtd">
<svg version="1.1" xmlns="http://www.w3.org/2000/svg" xmlns:xlink="http://www.w3.org/1999/xlink" x="120.678px" y="285.543px"
	 width="213.313px" height="213.313px" viewBox="120.678 285.543 213.313 213.313" enable-background="new 0 0 833.669 850.4" xml:space="preserve">

<g id="fond" display="none">
	<rect display="inline" y="0" fill="#282828" width="833.669" height="850.4"/>
</g>

<g id="PRINT">
	<g id="LOGO-COLOR-PRINT">
		<g id="hackstub-color">
			<path fill="#282828" d="M316.307,352.929l-22.07-12.759v-14.177c0-2.708-2.195-4.904-4.904-4.904s-4.904,2.196-4.904,4.904
			v16.912c0,0.031,0,0.063,0,0.095c0-2.708,2.195-4.904,4.904-4.904s4.904,2.196,4.904,4.904v8.498l9.817,5.676l-9.817,5.674v8.498
			c0,1.752-0.935,3.372-2.453,4.247c-0.379,0.219-0.78,0.383-1.192,0.493c0.413-0.11,0.815-0.274,1.195-0.494l24.52-14.172
			c1.516-0.877,2.45-2.495,2.45-4.246S317.822,353.805,316.307,352.929z"/>
				
			<path fill="#0000FF" d="M294.236,371.346v-8.498v-11.35V343c0-2.708-2.195-4.904-4.904-4.904s-4.904,2.196-4.904,4.904
			c0,0.028,0,0.056,0,0.084v19.764l-17.162-9.92c-0.05-0.029-0.104-0.043-0.154-0.069c0.783,0.416,1.469,1.037,1.946,1.861
			c1.355,2.345,0.553,5.345-1.792,6.7l-2.454,1.418l22.066,12.754c0.38,0.22,0.782,0.384,1.195,0.494
			c0.192,0.051,0.387,0.087,0.583,0.114c0.014,0.002,0.028,0.007,0.042,0.009c0.21,0.027,0.422,0.041,0.634,0.041
			c0.423,0,0.847-0.055,1.259-0.164c0.412-0.11,0.813-0.274,1.192-0.493C293.301,374.718,294.236,373.098,294.236,371.346z"/>
				
			<path fill="#282828" d="M269.058,354.72c-0.477-0.824-1.163-1.445-1.946-1.861c-0.152-0.081-0.31-0.146-0.469-0.211
			c-0.143-0.058-0.284-0.117-0.431-0.161c-0.152-0.045-0.306-0.074-0.461-0.104c-0.156-0.03-0.311-0.062-0.469-0.078
			c-0.159-0.016-0.317-0.013-0.478-0.013c-0.152,0-0.304-0.002-0.457,0.012c-0.163,0.016-0.324,0.05-0.486,0.082
			c-0.149,0.029-0.298,0.057-0.445,0.101c-0.149,0.044-0.294,0.104-0.441,0.164c-0.156,0.063-0.311,0.128-0.462,0.208
			c-0.051,0.027-0.105,0.041-0.155,0.07l-7.354,4.251v-8.508c0-2.708-2.195-4.904-4.904-4.904s-4.904,2.196-4.904,4.904v14.958
			c1.691,0.002,3.337,0.859,4.245,2.43c1.355,2.345,0.553,5.345-1.792,6.7l-2.454,1.418v11.349l7.358,4.253
			c1.516,0.877,2.45,2.495,2.45,4.246v-25.517l9.808-5.67l2.454-1.418C269.611,360.064,270.414,357.064,269.058,354.72z"/>
				
			<path fill="#0000FF" d="M228.031,409.609l-6.676-3.859c-0.848,1.469-0.929,3.328-0.02,4.901c0.909,1.572,2.556,2.451,4.25,2.45
			c0.833,0,1.677-0.212,2.45-0.658l4.855-2.807c-0.735,0.412-1.566,0.631-2.41,0.631
			C229.648,410.268,228.804,410.056,228.031,409.609z"/>
				
			<path fill="#0000FF" d="M252.555,389.778l-7.358-4.253l-9.817-5.674l9.817-5.675l2.454-1.418c2.345-1.355,3.147-4.355,1.792-6.7
			c-0.908-1.57-2.554-2.428-4.245-2.43c-0.835-0.001-1.68,0.19-2.455,0.638l-19.613,11.338c2.342-1.352,5.343-0.552,6.697,1.793
			c1.355,2.345,0.553,5.345-1.792,6.7l-2.454,1.418l14.72,8.509l-9.816,5.674l2.455,1.419c2.345,1.355,3.147,4.355,1.792,6.7
			c-0.452,0.781-1.086,1.391-1.818,1.807l19.642-11.354c0.064-0.037,0.121-0.083,0.183-0.122c0.065-0.042,0.129-0.085,0.192-0.129
			c0.222-0.157,0.433-0.326,0.624-0.515c0.006-0.006,0.012-0.011,0.018-0.016c0.197-0.198,0.37-0.415,0.529-0.642
			c0.042-0.061,0.083-0.123,0.123-0.186c0.135-0.211,0.257-0.43,0.358-0.66c0.013-0.029,0.031-0.058,0.043-0.087
			c0.107-0.257,0.185-0.524,0.247-0.797c0.017-0.073,0.031-0.147,0.044-0.222c0.052-0.285,0.088-0.575,0.088-0.872
			C255.004,392.273,254.071,390.655,252.555,389.778z"/>
				
			<path fill="#282828" d="M234.731,407.817c1.355-2.345,0.553-5.345-1.792-6.7l-2.455-1.419l-14.72-8.508l9.816-5.675l2.454-1.418
			c2.345-1.355,3.147-4.355,1.792-6.7c-1.354-2.345-4.355-3.145-6.697-1.793c-0.001,0-0.002,0.001-0.002,0.001l-12.258,7.086v-8.51
			c0-2.708-2.195-4.904-4.904-4.904s-4.904,2.196-4.904,4.904v14.958c1.691,0.003,3.337,0.859,4.245,2.43
			c1.355,2.345,0.553,5.345-1.792,6.7l-2.454,1.418v11.349l7.358,4.253c1.655,0.957,2.521,2.733,2.422,4.52
			c0.005-0.092,0.027-0.18,0.027-0.273v-19.846l10.486,6.061l6.676,3.859c0.773,0.446,1.617,0.658,2.45,0.658
			c0.843,0,1.675-0.219,2.41-0.631c0.007-0.004,0.015-0.009,0.022-0.013C233.645,409.208,234.279,408.599,234.731,407.817z"/>
				
			<path fill="#0000FF" d="M208.419,415.289l-7.358-4.253l-9.817-5.674l9.817-5.675l2.454-1.418c2.345-1.355,3.147-4.355,1.792-6.7
			c-0.908-1.57-2.554-2.427-4.245-2.43c-0.835-0.001-1.68,0.19-2.455,0.638l-19.615,11.339c-1.516,0.877-2.45,2.495-2.45,4.246
			s0.934,3.369,2.45,4.246l24.52,14.173c0.149,0.086,0.304,0.156,0.458,0.226c0.038,0.017,0.074,0.039,0.112,0.055
			c0.263,0.11,0.533,0.188,0.804,0.25c0.067,0.015,0.135,0.027,0.203,0.039c0.29,0.053,0.582,0.089,0.873,0.089
			c0.001,0,0.002,0,0.003,0c0.003,0,0.006-0.001,0.009-0.001c0.289-0.001,0.575-0.035,0.857-0.086
			c0.075-0.014,0.15-0.027,0.224-0.044c0.268-0.062,0.531-0.139,0.785-0.244c0.045-0.019,0.088-0.044,0.133-0.063
			c0.218-0.099,0.428-0.214,0.631-0.343c0.057-0.037,0.114-0.072,0.17-0.111c0.229-0.16,0.449-0.336,0.651-0.537
			c0.013-0.013,0.023-0.028,0.037-0.041c0.179-0.184,0.342-0.386,0.495-0.6c0.046-0.065,0.091-0.133,0.135-0.201
			c0.039-0.061,0.083-0.115,0.12-0.179c0.047-0.081,0.072-0.169,0.113-0.252c0.081-0.16,0.157-0.32,0.219-0.485
			c0.056-0.149,0.1-0.3,0.14-0.452c0.041-0.152,0.079-0.306,0.104-0.459c0.029-0.178,0.043-0.354,0.054-0.532
			C210.94,418.022,210.074,416.246,208.419,415.289z"/>
				
			<path fill="#282828" d="M193.707,423.795l-24.52-14.174c0,0-0.001,0-0.001-0.001c1.517,0.877,2.451,2.495,2.451,4.247v8.499
			l9.817,5.675l-9.817,5.674v8.499c0,1.996-1.197,3.707-2.909,4.473c0.155-0.069,0.31-0.14,0.459-0.227l24.52-14.173
			c1.516-0.877,2.45-2.495,2.45-4.246S195.223,424.672,193.707,423.795z"/>
				
			<path fill="#0000FF" d="M171.637,442.214v-8.499v-11.349v-8.499c0-1.752-0.934-3.37-2.451-4.247c0,0-0.001-0.001-0.002-0.001
			c-0.256-0.147-0.524-0.261-0.797-0.358c-0.071-0.025-0.142-0.05-0.214-0.072c-0.267-0.082-0.538-0.149-0.812-0.185
			c-0.032-0.004-0.063-0.002-0.095-0.006c-0.25-0.027-0.5-0.031-0.75-0.02c-0.076,0.003-0.152,0.008-0.229,0.015
			c-0.275,0.024-0.548,0.064-0.816,0.136c-0.006,0.002-0.012,0.005-0.018,0.006c-0.261,0.071-0.515,0.171-0.764,0.285
			c-0.069,0.031-0.137,0.065-0.205,0.101c-0.067,0.035-0.138,0.062-0.204,0.101l-12.257,7.086v-8.51
			c0-2.708-2.195-4.904-4.904-4.904s-4.904,2.196-4.904,4.904v45.354c0,2.708,2.195,4.904,4.904,4.904s4.904-2.196,4.904-4.904
			v-25.515l9.808-5.67v19.848c0,0.094,0.022,0.182,0.028,0.273c0.01,0.18,0.024,0.358,0.053,0.532
			c0.026,0.156,0.064,0.308,0.104,0.459c0.041,0.153,0.085,0.306,0.14,0.452c0.063,0.168,0.139,0.327,0.219,0.485
			c0.074,0.146,0.146,0.294,0.234,0.431c0.043,0.068,0.088,0.135,0.135,0.2c0.151,0.213,0.314,0.416,0.496,0.602
			c0.012,0.013,0.022,0.027,0.035,0.04c0.2,0.198,0.421,0.376,0.653,0.538c0.054,0.038,0.11,0.072,0.166,0.108
			c0.204,0.131,0.418,0.248,0.641,0.348c0.042,0.02,0.081,0.042,0.124,0.06c0.252,0.105,0.518,0.185,0.791,0.246
			c0.072,0.017,0.144,0.029,0.217,0.042c0.281,0.051,0.566,0.087,0.861,0.087c0.003,0,0.005,0.001,0.008,0.001c0,0,0.001,0,0.002,0
			c0.3,0,0.59-0.037,0.875-0.089c0.068-0.012,0.135-0.024,0.203-0.039c0.277-0.062,0.548-0.143,0.805-0.25
			c0.038-0.016,0.072-0.037,0.11-0.054C170.44,445.921,171.637,444.21,171.637,442.214z"/>
		</g>
	</g>
</g>

</svg>
